<svg width="178" height="177" viewBox="0 0 178 177" fill="none" xmlns="http://www.w3.org/2000/svg">
<path d="M129.539 128.483C169.628 95.0477 150.036 49.6731 119.426 32C88.8149 14.3269 49.6731 24.8149 32 55.4256C14.3269 86.0364 24.8149 125.178 55.4256 142.851C83.69 159.17 121.822 152.976 141.016 127.604" stroke="#86E5FF" stroke-width="4" stroke-linecap="round"/>
<path d="M70.3163 62.3291C70.8141 62.5391 72.4166 60.779 72.8913 60.5155C75.2996 59.1786 78.073 58.4507 80.5714 57.2694C82.6891 56.2682 85.1617 55.8425 87.0853 54.4908C88.0076 53.8427 88.1216 54.4251 88.8378 55.0545C92.4546 58.2331 95.5629 61.5041 99.8272 63.9661C107.511 68.4026 115.342 72.5568 123.027 76.9936C125.413 78.3714 126.153 78.537 123.22 79.3053C119.207 80.3563 115.244 80.886 111.102 81.0282C108.567 81.1153 106.259 81.6845 103.896 82.5717C103.528 82.7098 102.676 83.2301 102.305 82.9979C100.715 82.0024 99.4359 80.6081 97.7333 79.6251C93.4889 77.1746 89.2736 74.7041 84.8624 72.5608C80.3589 70.3726 75.5782 68.3006 71.2462 65.7995" stroke="#86E5FF" stroke-width="3" stroke-linecap="round"/>
<path d="M69.2444 73.078C70.8218 71.3583 74.1634 80.4009 74.5387 81.2683C75.6122 83.75 75.3263 86.2321 75.9892 88.7063" stroke="#86E5FF" stroke-width="3" stroke-linecap="round"/>
<path d="M72.9048 73.7244C85.0057 80.7108 97.1066 87.6973 109.207 94.6837C110.831 95.6213 109.003 98.2338 108.608 99.6748C108.259 100.944 107.551 105.134 108.802 106.184C108.987 106.34 109.395 107.469 109.12 107.467C107.42 107.46 105.215 105.569 103.893 104.735C100.067 102.323 96.2388 99.9415 92.2473 97.8075C87.7194 95.3868 82.3675 93.2475 78.4657 89.8507C77.0087 88.5823 74.9651 87.3815 73.2816 86.4095" stroke="#86E5FF" stroke-width="3" stroke-linecap="round"/>
<path d="M63.3349 90.9341C60.1297 92.4756 57.0802 94.2159 53.8404 95.6995C52.8153 96.169 51.2869 96.5586 50.7006 97.5741" stroke="#86E5FF" stroke-width="3" stroke-linecap="round"/>
<path d="M63.8431 91.9608C68.5387 94.6718 73.2477 97.3607 77.9303 100.094C81.123 101.958 84.1746 104.044 87.3667 105.909C90.4653 107.719 93.8237 109.32 96.6044 111.609C97.7446 112.548 98.7615 113.221 100.051 113.966C100.471 114.208 100.896 114.502 101.344 114.691C102.984 115.383 99.8068 116.816 99.1818 117.131C96.1625 118.648 92.8672 119.544 89.8986 121.142C89.1068 121.568 87.9151 120.543 87.2857 120.163C83.3332 117.776 79.8888 114.523 76.0833 111.903C69.6201 107.453 62.7232 103.089 55.2085 100.706C52.8733 99.9658 51.3769 98.6977 49.2837 97.4893" stroke="#86E5FF" stroke-width="3" stroke-linecap="round"/>
</svg>
