<svg width="866" height="291" viewBox="0 0 866 291" fill="none" xmlns="http://www.w3.org/2000/svg">
<path opacity="0.2" fill-rule="evenodd" clip-rule="evenodd" d="M210 0C182.386 0 160 22.3858 160 50C160 64.8083 148.114 91 133.306 91H50C22.3858 91 0 113.386 0 141C0 168.614 22.3858 191 50 191H228C244.016 191 257 203.984 257 220C257 259.212 288.788 291 328 291H816C843.614 291 866 268.614 866 241C866 213.386 843.614 191 816 191H679C662.984 191 650 178.016 650 162C650 122.788 618.212 91 579 91H525.694C510.886 91 499 64.8083 499 50C499 22.3858 476.614 0 449 0H210Z" fill="white"/>
</svg>
