<svg width="316" height="313" viewBox="0 0 316 313" fill="none" xmlns="http://www.w3.org/2000/svg">
<path d="M187.237 38.3673C186.654 32.8576 184.995 31.8591 180.994 31.3883C124.917 24.7825 139 24.7678 120.525 35.2918C109.575 41.5293 94.604 40.8442 86.3506 50.3684C79.5365 58.2317 83.6499 59.6302 68.5474 67.0743C36.7656 82.7426 44.2746 103.261 43.6422 107.144C42.7894 112.378 33.7884 121.807 30.4406 133.973C25.3949 152.315 36.8436 157.906 38.6341 162.612C40.5611 167.674 36.5538 172.948 35.8512 178.319C34.5504 188.255 44.2889 195.756 48.6885 204.758C53.7248 215.062 51.965 228.386 59.4001 237.119C64.3735 242.961 72.2964 245.249 78.4956 249.77C89.3566 257.691 96.0074 272.965 109.371 274.422C114.796 275.012 120.252 273.019 125.682 273.568C137.226 274.732 146.854 287.036 158.102 284.185C166.009 282.181 171.318 273.042 179.474 273.05C185.311 273.055 206.293 288.581 222.957 269.837C225.763 266.681 227.867 262.885 231.063 260.125C238.044 254.1 248.929 254.066 255.487 247.583C262.652 240.503 261.823 228.907 265.123 219.389C270.029 205.24 284.662 194.33 284.076 179.367C283.855 173.738 281.382 168.31 281.657 162.682C281.909 157.529 284.451 152.696 284.706 147.544C284.976 142.065 268.873 85.347 255.621 72.7984C253.982 71.2468 215.058 98.8478 189.464 131.187C184.344 137.657 167.318 149.259 165.346 156.605C171.155 134.965 193.281 95.5683 187.237 38.3673Z" fill="#86E5FF"/>
<path d="M187.237 38.3673C186.654 32.8576 184.995 31.8591 180.994 31.3883C124.917 24.7825 139 24.7678 120.525 35.2918C109.575 41.5293 94.604 40.8443 86.3506 50.3684C79.5365 58.2317 83.6499 59.6302 68.5474 67.0743C36.7656 82.7426 44.2746 103.261 43.6422 107.144C42.7894 112.378 33.7884 121.807 30.4406 133.973C25.3949 152.315 36.8436 157.906 38.6342 162.612C40.5611 167.674 36.5538 172.948 35.8512 178.319C34.5504 188.255 44.289 195.756 48.6885 204.758C53.7248 215.062 51.965 228.386 59.4001 237.118C64.3735 242.961 72.2964 245.249 78.4956 249.77C89.3566 257.691 96.0074 272.965 109.371 274.422C114.796 275.012 120.252 273.019 125.682 273.568C137.226 274.732 146.854 287.036 158.102 284.185C166.009 282.181 171.318 273.042 179.474 273.05C185.311 273.055 206.293 288.581 222.957 269.837C225.763 266.681 227.867 262.885 231.063 260.125C238.044 254.1 248.929 254.066 255.487 247.583C262.652 240.503 261.823 228.907 265.123 219.389C270.029 205.24 284.662 194.33 284.076 179.367C283.855 173.738 281.382 168.31 281.657 162.682C281.909 157.529 284.451 152.696 284.706 147.544C284.976 142.065 268.873 85.347 255.621 72.7984C253.982 71.2468 215.058 98.8478 189.464 131.187C184.344 137.657 167.318 149.259 165.346 156.605C171.155 134.965 193.281 95.5683 187.237 38.3673Z" stroke="#092839" stroke-width="1.5" stroke-miterlimit="10" stroke-linecap="round" stroke-linejoin="round"/>
<path d="M215.53 139.358C189.967 166.383 167.061 171.569 160.696 162.777C154.051 153.597 161.883 120.838 162.74 109.539C163.71 96.7186 167.214 57.3226 154.431 59.3003C145.824 60.6318 150.028 74.2583 147.026 79.8275C139.85 93.1363 119.894 77.9411 112.583 76.0958C101.433 73.2823 69.613 80.6641 72.2943 94.9005C74.7605 107.984 95.6944 102.274 118.24 122.677C95.887 126.328 70.4282 132.103 59.8103 152.11C57.91 155.692 58.0229 158.132 61.7416 160.739C76.8998 171.367 126.75 151.674 117.283 169.368C111.093 180.935 81.72 216.081 90.5664 229.837C98.5316 242.226 116.393 222.465 135.873 205.826C138.439 219.08 141.618 232.213 145.397 245.173C151.313 265.458 167.076 257.738 172.137 250.397C181.451 236.892 175.624 214.497 190.734 205.492C213.78 282.677 264.025 215.527 229.296 191.696C221.982 186.678 225.428 182.201 233.508 178.54C279.35 157.766 265.152 86.8979 215.53 139.358Z" fill="#2EC3EB"/>
<path d="M259.66 100.488C230.417 123.184 200.064 145.909 165.456 159.046C201.107 164.057 236.737 146.631 272.301 141.042" stroke="#092839" stroke-width="1.5" stroke-miterlimit="10" stroke-linecap="round" stroke-linejoin="round"/>
<path d="M267.654 190.163C265.55 190.931 263.223 190.312 261.072 189.69C228.991 180.42 197.537 168.316 165.456 159.045C189.37 187.565 226.211 204.54 254.841 228.326" stroke="#092839" stroke-width="1.5" stroke-miterlimit="10" stroke-linecap="round" stroke-linejoin="round"/>
<path d="M219.888 252.18C198.914 223.508 177.448 192.485 165.456 159.045C167.9 193.58 174.264 229.686 183.983 262.915" stroke="#092839" stroke-width="1.5" stroke-miterlimit="10" stroke-linecap="round" stroke-linejoin="round"/>
<path d="M158.577 269.636C151.918 233.33 153.644 194.016 165.455 159.047C146.584 190.894 132.526 226.313 121.667 261.705" stroke="#092839" stroke-width="1.5" stroke-miterlimit="10" stroke-linecap="round" stroke-linejoin="round"/>
<path d="M94.247 249.225C114.64 216.523 138.046 186.143 165.456 159.047C132.273 178.822 100.168 199.095 67.5078 219.723" stroke="#092839" stroke-width="1.5" stroke-miterlimit="10" stroke-linecap="round" stroke-linejoin="round"/>
<path d="M51.6789 193.213C69.8165 186.206 83.0797 182.813 165.456 159.045C127.875 155.066 90.3425 155.035 52.7939 159.295" stroke="#092839" stroke-width="1.5" stroke-miterlimit="10" stroke-linecap="round" stroke-linejoin="round"/>
<path d="M43.3226 126.168C74.8431 130.702 149.447 150.374 165.456 159.046C140.895 127.087 96.5969 115.881 63.0506 93.5353" stroke="#092839" stroke-width="1.5" stroke-miterlimit="10" stroke-linecap="round" stroke-linejoin="round"/>
<path d="M90.2566 65.644C123.474 86.1964 151.091 122.722 165.456 159.046C162.434 123.169 153.741 82.618 142.162 48.5261" stroke="#092839" stroke-width="1.5" stroke-miterlimit="10" stroke-linecap="round" stroke-linejoin="round"/>
</svg>
