<svg width="134" height="131" viewBox="0 0 134 131" fill="none" xmlns="http://www.w3.org/2000/svg">
<path d="M37.5126 35.2136C33.7976 28.7356 29.8606 15.3316 32.5686 8.3716C39.9606 12.3016 52.4766 19.4626 54.7336 27.5246C58.6846 13.7796 64.1126 1.0926 65.6776 1.0006C67.5396 0.890602 73.8266 15.8806 73.2586 26.4756C75.5376 19.7696 80.6916 7.60861 86.3196 3.30761C95.6276 13.8926 87.0946 26.5136 85.4916 34.8636C90.4806 27.2606 100.84 14.4326 108.913 10.2466C120.094 31.2536 94.7136 45.0166 89.3366 53.9636C106.114 39.7566 127.811 35.0256 127.654 39.1166C127.085 53.9636 117.298 53.9636 103.318 56.1836C110.553 56.8406 130.175 63.4926 132.917 71.8156C118.348 80.0886 108.544 75.5716 94.7486 72.9496C102.923 75.0316 122.192 86.5916 121.063 101.568C105.765 105.114 90.8046 90.6176 82.9696 81.3896C91.1496 90.0636 104.017 105.114 97.2426 122.358C83.3946 118.048 77.8786 99.8896 73.2066 90.1676C76.7006 99.9646 81.6476 118.049 69.2936 129.921C60.3266 118.049 63.2696 102.216 64.8326 92.1116C64.5326 98.2626 55.3446 119.842 43.5346 127.628C40.2996 119.851 44.4276 107.325 47.2156 99.3766C44.5616 106.961 33.9606 112.367 28.6016 116.638C27.6906 109.449 39.1406 88.7896 43.3346 82.8786C37.2136 93.0946 17.7836 100.348 10.9916 95.3226C15.3806 88.4646 21.7796 82.9106 29.1866 79.5286C12.6496 81.8586 -0.103383 72.9106 1.07562 70.7176C1.67562 69.6016 21.1716 61.2586 32.5216 61.3446C24.1806 61.1286 6.85161 62.1746 2.70461 49.9376C13.4926 42.9026 24.3596 49.8486 31.6506 53.9636C25.0736 46.8426 12.4696 30.5936 12.6116 20.4286C21.1126 22.0536 31.3136 29.1726 37.5126 35.2136Z" fill="white" stroke="#39092C" stroke-width="1.5" stroke-miterlimit="10" stroke-linecap="round" stroke-linejoin="round"/>
<path d="M89.4806 49.3897C93.4286 43.0297 97.8656 35.2817 93.8606 28.1487C86.8386 30.4567 80.5796 35.3617 76.8346 41.7347C79.8026 34.9907 78.4276 26.5577 73.4716 21.1057C68.8496 25.2127 66.0776 34.2497 64.8716 40.3147C62.8476 31.0277 52.1595 21.3627 51.0526 24.5517C49.2346 29.7867 51.6725 39.3457 53.7845 44.4687C50.2915 38.5877 41.2966 31.1107 34.4556 31.1317C33.0906 38.0217 38.5455 48.1717 42.5215 53.9617C36.0815 52.1087 24.9826 50.2247 19.1536 53.5307C22.5436 61.2617 27.4375 69.4107 40.6935 69.4107C34.9505 73.9307 28.0936 83.0537 28.3486 90.3577C34.0386 89.8337 44.8696 81.7547 48.7076 77.5217C46.0576 85.0057 43.7515 102.871 47.2155 99.3737C52.2905 94.2507 57.7756 88.5227 57.6366 80.9937C58.9406 82.4677 56.2296 95.7317 69.0836 105.112C73.8506 96.8187 74.5536 86.3097 70.9336 77.4557C72.9866 83.7667 79.8916 89.7507 86.3906 91.0937C87.1786 86.0517 85.9446 80.6557 83.5936 76.0987C90.6156 78.0667 96.3386 82.1927 102.15 78.7557C100.845 71.7367 95.4586 65.6307 88.6566 63.4607C96.3606 67.5387 104.006 61.5917 110.074 56.1187C105.072 51.0177 96.4866 47.9877 89.4806 49.3897Z" fill="#D3D8F7" stroke="#39092C" stroke-width="1.5" stroke-miterlimit="10" stroke-linecap="round" stroke-linejoin="round"/>
<path d="M80.0247 81.3636C77.5867 80.1626 72.0457 73.3646 68.9777 75.0406C66.8087 76.2266 67.9947 80.7766 68.0297 82.7006C68.0867 85.7936 67.9327 88.8476 67.3777 91.8966C67.3127 92.2536 67.2287 92.6366 66.9577 92.8776C66.3217 93.4436 65.3387 92.7956 64.8337 92.1106C61.4587 87.5326 62.8707 80.9256 60.4447 75.7816C60.2027 75.2686 59.7757 74.6946 59.2157 74.7866C58.8627 74.8446 58.6137 75.1536 58.4097 75.4476C55.6367 79.4376 54.6207 84.6756 50.9667 87.8776C50.1697 88.5756 48.8127 89.0956 48.1717 88.2526C47.8307 87.8036 47.8947 87.1776 47.9757 86.6196C48.2997 84.3806 48.6227 82.1426 48.9467 79.9036C49.0637 79.0956 49.1627 78.2016 48.7077 77.5236C47.7557 76.1026 45.5547 76.8746 44.1027 77.7786C41.1217 79.6346 38.1397 81.4896 35.1587 83.3456C35.1507 80.7425 36.7337 78.3866 38.5947 76.5666C40.4557 74.7456 42.6477 73.2746 44.3957 71.3456C44.9287 70.7575 45.4477 69.9986 45.2467 69.2316C45.0067 68.3196 43.9307 67.9676 43.0247 67.7056C39.0467 66.5566 35.3827 64.3376 32.5217 61.3446C32.0867 60.8896 31.6447 60.3536 31.6507 59.7236C31.6617 58.6166 32.9817 58.0336 34.0837 57.9336C39.6537 57.4276 44.8577 62.0106 50.3807 61.1286C45.7757 56.9686 42.2697 51.6036 40.3087 45.7156C39.9057 44.5056 39.8167 42.7596 41.0327 42.3736C41.5337 42.2146 42.0757 42.3836 42.5637 42.5796C48.0697 44.7966 51.8887 50.5506 57.7217 51.6476C56.6477 46.0146 55.5747 40.3806 54.5007 34.7476C54.4137 34.2916 54.3607 33.7345 54.7247 33.4445C55.2197 33.0495 55.9247 33.5386 56.3307 34.0246C60.0027 38.4206 60.7417 44.6835 64.3097 49.1645C64.4927 49.3945 64.7127 49.6355 65.0047 49.6685C65.5587 49.7305 65.8717 49.0586 65.9907 48.5146C67.1987 42.9796 66.5257 36.7396 69.8337 32.1396C70.1057 31.7616 70.4377 31.3776 70.8927 31.2786C71.9507 31.0496 72.6037 32.4016 72.7527 33.4736C73.4877 38.7856 71.9687 44.4125 73.8317 49.4405C74.1337 50.2556 74.7277 51.1686 75.5947 51.1026C76.2187 51.0556 76.6707 50.5095 77.0347 50.0005C80.2777 45.4715 82.9507 40.1176 87.8847 37.5316C88.4907 37.2146 89.3057 36.9725 89.7957 37.4485C90.1557 37.7985 90.1487 38.3756 90.0587 38.8696C89.6247 41.2346 87.9267 43.1266 86.5497 45.0976C84.6837 47.7666 83.3177 50.7826 82.5417 53.9456C82.4067 54.4956 82.3197 55.1606 82.7277 55.5536C83.1367 55.9476 83.7967 55.8346 84.3467 55.6966C88.6667 54.6106 93.1447 53.5616 97.5357 54.3096C99.2277 54.5976 101.275 55.8466 100.757 57.4826C100.321 58.8606 98.4937 59.0556 97.0497 59.1026C91.9577 59.2686 86.9167 60.8136 82.6057 63.5296C86.7307 66.1346 92.6917 66.4926 94.9737 70.8046C95.3507 71.5176 95.4767 72.6036 94.7477 72.9476C94.4497 73.0876 94.1027 73.0436 93.7767 72.9946C88.1287 72.1396 82.5867 70.5936 77.3117 68.4026C79.4807 71.6246 81.3557 75.0436 82.9047 78.6056C83.2977 79.5076 83.6337 80.6616 82.9687 81.3876C82.2557 82.1686 80.9717 81.8306 80.0247 81.3636Z" fill="#B0C2F7"/>
<path d="M49.9826 73.8375C49.1196 70.7285 44.6356 71.2416 44.1206 67.7956C43.7436 65.2766 46.5406 63.1346 46.7246 61.7536C46.8516 60.7976 44.9406 57.7356 48.9056 55.7096C51.3216 54.4746 54.3266 54.7695 55.6956 53.8455C57.9606 52.3175 57.3046 48.8215 59.8756 47.3115C65.0416 44.2795 64.5876 50.4456 71.5116 46.2586C76.9226 42.9866 77.0886 47.9455 78.7976 48.9315C80.0596 49.6595 86.9596 48.1185 84.5006 53.5395C82.8546 57.1675 85.0476 56.4375 86.2126 58.0535C87.9316 60.4366 83.9366 62.4135 83.6766 64.6345C83.5556 65.6665 84.4046 66.2615 84.4846 67.2335C84.6406 69.1285 82.4536 70.0735 80.8596 69.8155C75.2276 68.9035 78.4616 74.2716 77.4366 76.4346C75.7926 79.9046 71.7696 76.5025 70.2296 76.7375C67.6546 77.1315 67.9496 81.5396 65.4956 82.1926C63.0666 82.8396 61.6686 79.4436 59.3356 79.2476C56.9216 79.0456 52.7846 83.9365 49.9826 73.8375Z" fill="#F55F06" stroke="#39092C" stroke-width="1.5" stroke-miterlimit="10" stroke-linecap="round" stroke-linejoin="round"/>
<path d="M75.4257 66.1756C64.6927 84.7686 40.9237 71.4766 59.3387 58.0166C72.8137 48.1666 79.9147 58.3986 75.4257 66.1756Z" fill="#F58F05" stroke="#39092C" stroke-width="1.5" stroke-miterlimit="10" stroke-linecap="round" stroke-linejoin="round"/>
<path d="M58.7987 64.2055C58.0867 63.2815 56.2177 64.3025 56.7907 66.8765C57.1997 68.7185 60.1237 65.9225 58.7987 64.2055Z" fill="#F55F06"/>
<path d="M64.8716 59.0626C63.0596 57.9516 59.8806 61.5526 62.7776 61.3766C64.7736 61.2556 65.7356 59.5926 64.8716 59.0626Z" fill="#F55F06"/>
<path d="M65.4697 62.1216C61.9407 60.4916 60.1127 65.9196 64.8357 64.5876C66.1137 64.2256 66.4677 62.5816 65.4697 62.1216Z" fill="#F55F06"/>
<path d="M59.0396 68.7126C56.2416 69.3846 59.8406 72.2226 61.3966 70.5326C62.2746 69.5786 61.2026 68.1986 59.0396 68.7126Z" fill="#F55F06"/>
<path d="M68.3597 67.6034C67.1907 67.5564 64.3517 69.4254 64.6477 70.5034C65.0067 71.8104 67.2717 71.0384 67.9857 70.5124C69.1797 69.6314 69.7247 67.6584 68.3597 67.6034Z" fill="#F55F06"/>
<path d="M71.5716 61.7946C70.8616 60.5626 67.6116 62.3916 68.2826 63.9826C69.1396 66.0126 72.6706 63.7036 71.5716 61.7946Z" fill="#F55F06"/>
<path d="M66.6337 58.4685C66.1457 59.6415 68.0267 60.6565 69.2837 59.5135C72.0767 56.9735 67.9987 55.1855 66.6337 58.4685Z" fill="#F55F06"/>
</svg>
