<svg width="49" height="32" viewBox="0 0 49 32" fill="none" xmlns="http://www.w3.org/2000/svg">
<path d="M1.51465 11.5089C6.5946 10.1052 11.2723 8.11013 15.9049 5.57635C17.8496 4.51275 19.7655 3.3966 21.7565 2.41988C22.0894 2.2566 22.4328 1.92529 22.7925 2.01521C23.3652 2.15839 22.3668 3.12391 22.056 3.62582C20.5138 6.11642 18.7829 8.48714 17.0704 10.8614C16.3618 11.8439 15.5404 12.9649 14.8366 13.9693C14.6869 14.1829 13.833 15.1805 13.833 15.588C13.833 15.7311 14.123 15.6384 14.2619 15.6042C15.4913 15.3019 16.7067 14.8641 17.9121 14.4873C22.3851 13.089 26.8283 11.5788 31.3312 10.2787C32.6721 9.89151 33.5801 9.64871 34.8842 9.33175C35.2885 9.23349 35.7282 8.96681 36.1144 9.12132C36.4139 9.24109 33.9576 12.8716 33.8563 13.0305C33.0281 14.3303 31.887 15.8256 31.5416 17.3686C31.2485 18.6779 33.8508 17.9116 34.2772 17.8138C37.0371 17.1803 39.6597 16.0726 42.3545 15.2238C43.7222 14.7931 44.506 14.5773 45.859 14.285C46.353 14.1783 47.6623 13.96 47.3725 14.374C46.9926 14.9167 45.3822 16.3402 45.1549 16.5431C42.4538 18.9539 39.6844 21.2659 37.1504 23.8596C35.1966 25.8595 33.6035 27.8138 32.3995 30.302" stroke="#86E5FF" stroke-width="3" stroke-linecap="round"/>
</svg>
