<svg width="40" height="29" viewBox="0 0 40 29" fill="none" xmlns="http://www.w3.org/2000/svg">
<path d="M12.6817 2.38452C10.5808 6.12671 7.26501 8.87165 4.5621 12.1567C3.71966 13.1806 2.83832 14.2826 2.15498 15.4261C1.13862 17.127 3.67752 16.6339 4.59803 16.5039C11.9231 15.4695 18.8139 12.0816 26.1903 11.4022C28.6014 11.1802 26.0256 13.1344 25.4538 13.6836C23.2572 15.7934 21.1032 17.9133 19.1126 20.2224C18.8007 20.5842 16.7556 22.5449 16.8133 23.2941C16.8442 23.6963 21.526 22.1379 21.6275 22.1086C23.1655 21.6642 25.0687 20.9038 26.7112 20.9768C28.1066 21.0389 25.146 23.2499 25.0047 23.366C23.3958 24.6876 21.5648 25.9702 24.861 26.4917C29.9235 27.2925 34.9628 25.5921 38.2259 21.7852" stroke="white" stroke-width="3" stroke-linecap="round"/>
</svg>
