<svg width="50" height="32" viewBox="0 0 50 32" fill="none" xmlns="http://www.w3.org/2000/svg">
<path d="M2.43359 11.4635C7.51354 10.0598 12.1912 8.06472 16.8239 5.53094C18.7685 4.46734 20.6845 3.35119 22.6755 2.37447C23.0083 2.21119 23.3518 1.87988 23.7115 1.9698C24.2842 2.11297 23.2857 3.0785 22.9749 3.58041C21.4327 6.07101 19.7018 8.44173 17.9893 10.816C17.2807 11.7985 16.4594 12.9194 15.7555 13.9239C15.6059 14.1375 14.7519 15.1351 14.7519 15.5426C14.7519 15.6857 15.0419 15.593 15.1809 15.5588C16.4102 15.2565 17.6257 14.8187 18.8311 14.4419C23.3041 13.0436 27.7473 11.5334 32.2501 10.2333C33.5911 9.8461 34.4991 9.6033 35.8032 9.28634C36.2074 9.18808 36.6471 8.9214 37.0334 9.0759C37.3328 9.19568 34.8765 12.8262 34.7753 12.9851C33.9471 14.2849 32.806 15.7802 32.4605 17.3232C32.1674 18.6325 34.7697 17.8662 35.1962 17.7683C37.9561 17.1349 40.5786 16.0272 43.2735 15.1784C44.6411 14.7477 45.4249 14.5319 46.778 14.2396C47.2719 14.1328 48.5813 13.9146 48.2915 14.3286C47.9116 14.8713 46.3012 16.2948 46.0738 16.4977C43.3728 18.9085 40.6033 21.2205 38.0694 23.8142C36.1156 25.814 34.5224 27.7684 33.3185 30.2566" stroke="white" stroke-width="3" stroke-linecap="round"/>
</svg>
