<svg width="40" height="29" viewBox="0 0 40 29" fill="none" xmlns="http://www.w3.org/2000/svg">
<path d="M12.7627 2.42969C10.6618 6.17188 7.34607 8.91681 4.64316 12.2019C3.80072 13.2258 2.91937 14.3277 2.23604 15.4713C1.21967 17.1721 3.75857 16.6791 4.67909 16.5491C12.0041 15.5146 18.895 12.1268 26.2713 11.4474C28.6824 11.2253 26.1067 13.1795 25.5348 13.7288C23.3383 15.8386 21.1843 17.9584 19.1937 20.2675C18.8818 20.6293 16.8367 22.59 16.8943 23.3393C16.9253 23.7414 21.6071 22.183 21.7086 22.1537C23.2466 21.7094 25.1498 20.949 26.7923 21.022C28.1877 21.084 25.2271 23.2951 25.0857 23.4112C23.4769 24.7327 21.6459 26.0154 24.942 26.5368C30.0046 27.3377 35.0439 25.6373 38.3069 21.8304" stroke="#86E5FF" stroke-width="3" stroke-linecap="round"/>
</svg>
