<svg width="180" height="115" viewBox="0 0 180 115" fill="none" xmlns="http://www.w3.org/2000/svg">
<path d="M16.4017 83.9246C65.4365 99.4324 100.231 90.2165 112.876 78.3793C120.807 70.954 127.04 61.5827 129.467 50.8779C130.492 46.3553 130.897 41.2231 129.188 36.7961C126.607 30.1115 119.669 26.2546 113.416 23.6902C98.222 17.4593 81.7256 15.3744 65.4365 14.7671C52.1284 14.2708 38.1487 13.7255 25.0558 16.5273C15.8717 18.4926 7.00377 22.4703 3.27077 31.6897C-0.0590721 39.9134 3.32184 49.6712 10.8171 54.4332C14.4489 56.7407 18.8772 57.9191 22.9819 59.0342C28.5039 60.5344 34.1308 61.6697 39.7825 62.5547C53.9636 64.7752 68.1654 64.7991 82.4811 64.7506C93.9852 64.7117 105.229 63.6362 116.64 62.3107C124.62 61.3837 132.68 60.4907 140.307 57.8317C145.073 56.1701 149.612 53.9946 154.267 52.063C157.743 50.6207 161.332 49.4191 164.166 46.852C166.999 44.2866 170.209 42.0414 172.584 39.0094C175.691 35.0424 176.956 28.8973 177.743 24.0388C178.964 16.4971 176.135 8.30096 169.342 4.2754C167.046 2.91444 164.828 1.88838 162.127 2.00975C160.614 2.07776 159.632 2.74765 158.572 3.82227C154.927 7.51844 152.598 12.1636 150.886 17.0153C147.397 26.9003 146.665 37.343 144.037 47.4272C141.862 55.7711 139.336 64.1999 135.427 71.9135C132.398 77.8934 128.638 83.4747 125.546 89.4287C122.447 95.3945 119.529 101.959 115.281 107.205C113.98 108.812 112.982 110.773 111.621 112.294C109.713 114.426 115.91 111.331 116.222 111.144C122.617 107.301 128.372 102.451 134.73 98.5261C135.519 98.0394 137.746 96.4345 137.135 97.1319C136.28 98.109 134.579 98.8535 133.475 99.4324C129.338 101.602 124.808 103.047 120.77 105.393C117.645 107.209 114.71 108.893 111.394 110.36C111.072 110.502 109.751 111.327 109.32 111.092C108.776 110.795 109.123 107.718 109.129 107.432C109.2 103.605 110.06 100.155 110.68 96.4347" stroke="white" stroke-width="3" stroke-linecap="round"/>
</svg>
