<svg width="959" height="278" viewBox="0 0 959 278" fill="none" xmlns="http://www.w3.org/2000/svg">
<path opacity="0.5" fill-rule="evenodd" clip-rule="evenodd" d="M274.551 209.754C271.465 210.779 268.302 211.61 265.115 212.262C200.208 225.439 154.229 150.477 104.068 160.043C69.5006 166.635 44.7506 220.881 0 174.633C57.0168 193.432 39.4415 144.21 97.1035 133.161C125.942 127.64 133.195 143.247 156.351 139.753C179.298 136.29 181.568 105.308 222.323 85.7947C225.479 84.1486 228.775 82.7509 232.195 81.6172C243.536 77.5716 255.592 76.9039 266.724 79.5129C275.974 81.3609 284.54 85.1036 291.994 90.3217C304.587 74.0852 322.621 62.2592 343.352 57.5614C349.563 76.438 365.654 89.2346 377.453 93.086C404.279 101.845 426.2 85.2434 432.496 66.9026C441.591 40.4009 419.367 13.8294 396.343 25.3137C387.761 29.5999 379.786 47.8941 398.286 52.3589C386.711 45.7587 390.582 32.6049 399.98 30.656C416.856 27.154 431.959 45.8985 424.808 64.5188C419.312 78.8373 399.265 88.1553 380.788 81.1746C362.684 74.3337 349.641 53.8731 358.316 29.9105C367.309 12.1677 385.74 0 407.015 0C425.982 0 442.679 9.66736 452.458 24.3353C468.914 17.0207 487.142 12.9519 506.318 12.9519C516.595 12.9519 526.599 14.1244 536.207 16.3297C579.286 26.5716 622.583 63.9597 607.907 125.473C596.69 172.459 559.348 198.254 510.392 186.11C484.266 179.626 463.628 148.318 471.121 118.4C479.081 86.6256 504.398 75.7624 534.193 82.549C510.944 61.0323 459.057 72.2915 447.856 117.452C437.043 161.045 460.503 202.16 502.315 214.731C566.141 233.926 626.874 199.73 639.568 133.394C644.379 108.243 641.907 83.24 632.471 60.7683C642.125 57.2431 652.557 55.3174 663.439 55.3174C694.524 55.3174 721.941 71.0258 738.171 94.9263C747.927 86.3538 760.185 80.5611 773.711 78.7674C773.975 78.6354 774.239 78.4957 774.503 78.3714C832.896 73.7979 849.539 116.785 876.644 125.178C891.172 129.682 915.362 123.276 937.361 135.669C954.788 145.484 966.953 167.948 952.791 190.846C954.944 161.215 928.686 145.468 904.876 145.344C875.128 145.189 850.969 188.424 815.064 204.458C810.493 206.966 805.604 208.962 800.474 210.375C804.578 193.65 801.741 175.526 789.358 160.105C771.06 137.323 737.479 132.074 714.572 152.744C699.569 166.286 695.986 189.356 709.154 205.46C722.803 222.147 747.048 216.323 752.513 202.711C741.382 211.455 725.617 212.037 715.979 200.304C706.899 189.262 711.291 169.92 721.941 161.557C740.348 147.099 761.771 151.766 775.226 167.334C794.589 189.736 784.539 217.356 772.568 229.392C763.03 237.56 750.632 242.499 737.091 242.499C722.749 242.499 709.706 236.97 699.973 227.932C688.803 232.878 676.444 235.627 663.439 235.627C645.6 235.627 628.98 230.455 614.973 221.541C590.977 255.684 551.263 278 506.326 278C463.869 278 426.067 258.075 401.784 227.07C390.132 232.552 377.111 235.627 363.368 235.627C340.282 235.627 319.216 226.969 303.258 212.712C287.494 197.765 274.404 168.934 291.279 139.699C304.603 116.621 330.728 105.463 357.671 119.386C373.256 127.438 383.555 150.974 374.702 167.233C365.296 184.502 345.093 187.593 328.801 179.184C339.077 195.172 371.344 196.686 384.644 172.125C397.477 148.427 387.294 119.937 364.9 106.364C330.697 85.6394 289.25 100.486 271.527 133.93C257.691 160.09 260.901 187.709 274.551 209.754Z" fill="white"/>
</svg>
