<svg width="857" height="282" viewBox="0 0 857 282" fill="none" xmlns="http://www.w3.org/2000/svg">
<path opacity="0.5" fill-rule="evenodd" clip-rule="evenodd" d="M210.955 82.2407C227.739 82.2407 243.328 87.3545 256.246 96.1127C277.653 64.7926 313.641 44.2353 354.434 44.2353C368.303 44.2353 381.614 46.6213 393.992 50.989C398.672 22.0778 423.734 0 453.96 0C487.517 0 514.72 27.2086 514.72 60.7723C514.72 67.6684 513.57 74.2912 511.458 80.4697C498.818 108.561 470.289 115.36 448.836 106.072C426.945 96.5967 417.409 71.6546 424.69 54.6051C434.17 32.4248 463.03 28.86 474.712 46.0803C481.214 55.67 473.5 70.3505 457.917 66.3416C477.713 78.0268 486.196 55.4365 482.359 44.5029C472.065 15.1646 430.435 19.5494 416.019 50.2032C406.045 71.4154 411.078 104.262 441.702 119.21C462.187 129.209 508.628 129.602 529.477 87.3032C530.331 85.5721 530.935 83.9206 531.322 82.3603C557.363 83.7441 580.137 97.4509 593.915 117.763C597.826 114.273 602.187 111.283 606.901 108.891C617.827 103.009 630.398 101.187 641.881 101.967C695.245 105.594 723.986 184.481 769.607 187.903C801.045 190.261 829.097 145.963 857 196.468C812.074 166.879 821.12 222.908 768.662 219.013C742.427 217.065 732.981 198.045 712.126 195.665C694.169 193.615 686.842 210.784 658.495 218.893C651.093 222.105 642.929 223.887 634.343 223.887C627.551 223.887 621.015 222.771 614.918 220.71C621.977 198.29 619.939 168.878 607.966 151.35C590.197 125.349 550.833 114.677 524.336 134.084C489.242 159.783 498.329 201.866 534.971 208.523C547.229 210.75 568.636 197.083 554.909 177.391C557.38 193.541 546.899 201.365 535.666 195.978C515.483 186.297 513.826 159.237 536.338 146.344C551.021 137.933 575.167 144.004 589.525 164.732C603.844 185.403 590.009 213.756 572.741 229.787C559.726 238.744 543.961 243.989 526.966 243.989C500.771 243.989 477.491 231.523 462.711 212.213C444.025 253.373 402.572 282 354.434 282C337.889 282 322.141 278.617 307.828 272.507C283.284 258.857 254.601 219.525 275.074 174.977C289.291 144.032 321.202 126.755 357.099 141.305C377.862 149.721 393.736 178.473 384.393 200.215C374.469 223.306 349.145 229.622 327.436 220.829C342.381 239.974 383.59 238.112 397.607 205.277C411.134 173.593 394.829 138.526 364.756 123.879C318.834 101.517 267.883 125.297 249.289 169.96C239.616 193.188 239.633 216.359 246.607 237.064C186.092 260.349 150.264 221.325 116.872 223.078C98.1981 224.058 73.0333 241.74 42.3916 236.78C18.1207 232.856 -5.46694 212.088 1.1203 179.623C11.2488 214.759 48.2273 221.78 75.7434 211.803C121.381 195.255 123.095 94.5809 197.997 83.2829L198.891 83.1405L199.409 83.0665C203.178 82.5255 207.033 82.2407 210.955 82.2407Z" fill="white"/>
</svg>
