<svg width="497" height="262" viewBox="0 0 497 262" fill="none" xmlns="http://www.w3.org/2000/svg">
<g opacity="0.5">
<path d="M54.8728 178.019C53.345 192.929 35.391 244.248 68.1779 255.171C73.5509 256.961 81.2374 255.302 81.9512 249.684C82.6113 244.48 79.7575 243.874 88.683 240.376C91.0705 239.439 93.508 236.782 92.1258 234.622C91.7721 234.069 91.2145 233.669 90.8637 233.114C89.1992 230.478 92.9694 227.911 94.6517 225.288C100.132 216.743 85.5138 209.174 82.1117 205.299C76.1707 198.533 78.5455 192.239 77.7176 187.471C76.3655 179.689 62.8055 164.178 51.2473 158.881C55.2214 164.415 55.5445 171.461 54.8728 178.019Z" fill="#F58F05"/>
<path d="M60.9582 237.941C69.5026 247.149 58.5914 220.761 64.579 220.727C66.5618 220.715 71.8195 229.555 74.7983 227.431C76.2833 226.371 75.2123 224.792 70.3163 211.959C75.5203 212.015 79.6261 222.384 84.0048 220.936C89.7265 219.043 77.5697 209.402 74.209 204.957C65.6504 193.636 79.7144 181.111 61.7904 175.388C53.8562 185.057 54.5889 200.236 54.3934 212.018C54.2411 221.206 54.5231 231.006 60.9582 237.941Z" fill="#F55F06"/>
<path d="M54.8728 178.019C53.345 192.929 35.391 244.248 68.1779 255.171C73.5509 256.961 81.2374 255.302 81.9512 249.684C82.6113 244.48 79.7575 243.874 88.683 240.376C91.0705 239.439 93.508 236.782 92.1258 234.622C91.7721 234.069 91.2145 233.669 90.8637 233.114C89.1992 230.478 92.9694 227.911 94.6517 225.288C100.132 216.743 85.5138 209.174 82.1117 205.299C76.1707 198.533 78.5455 192.239 77.7176 187.471C76.3655 179.689 62.8055 164.178 51.2473 158.881C55.2214 164.415 55.5445 171.461 54.8728 178.019Z" stroke="#39092C" stroke-width="1.5" stroke-miterlimit="10" stroke-linecap="round" stroke-linejoin="round"/>
<path d="M90.8624 233.114C80.2088 224.87 66.3203 204.157 70.1326 174.829" stroke="#39092C" stroke-width="1.5" stroke-miterlimit="10" stroke-linecap="round" stroke-linejoin="round"/>
<path d="M82.1209 244.688C58.624 236.841 57.5424 187.942 61.644 165.79" stroke="#39092C" stroke-width="1.5" stroke-miterlimit="10" stroke-linecap="round" stroke-linejoin="round"/>
<path d="M252.725 114.594C259.832 118.796 245.847 125.864 238.188 127.733C241.156 132.103 235.646 138.512 230.482 137.395C226.913 136.623 222.927 135.419 221.527 139.534C220.444 142.714 224.668 154.794 218.648 154.111C216.678 153.888 207.365 143.772 203.144 140.753C186.64 128.946 162.94 138.607 155.12 136.206C150.527 134.797 139.774 125.231 146.399 121.632C165.029 111.516 200.122 83.5002 252.725 114.594Z" fill="#F58F05"/>
<path d="M210.021 137.7C201.245 131.465 199.46 130.678 199.806 128.872C200.634 124.542 211.419 126.857 215.533 125.273C218.295 124.208 217.709 121.936 214.789 120.817C210.192 119.056 204.462 117.595 203.009 112.893C209.304 112.267 215.6 111.642 221.897 111.017C196.747 96.5323 168.562 113.353 147.291 127.119C146.775 127.453 173.819 131.167 177.108 131.47C188.101 132.482 198.802 139.909 210.021 137.7Z" fill="#F55F06"/>
<path d="M252.725 114.594C259.832 118.796 245.847 125.864 238.188 127.733C241.156 132.103 235.646 138.512 230.482 137.395C226.913 136.623 222.927 135.419 221.527 139.534C220.444 142.714 224.668 154.794 218.648 154.111C216.678 153.888 207.365 143.772 203.144 140.753C186.64 128.946 162.94 138.607 155.12 136.206C150.527 134.797 139.774 125.231 146.399 121.632C165.029 111.516 200.122 83.5002 252.725 114.594Z" stroke="#39092C" stroke-width="1.5" stroke-miterlimit="10" stroke-linecap="round" stroke-linejoin="round"/>
<path d="M221.527 139.534C203.191 124.782 171.748 123.706 150.292 133.373" stroke="#39092C" stroke-width="1.5" stroke-miterlimit="10" stroke-linecap="round" stroke-linejoin="round"/>
<path d="M238.187 127.733C228.385 114.185 184.467 111.05 144.772 126.891" stroke="#39092C" stroke-width="1.5" stroke-miterlimit="10" stroke-linecap="round" stroke-linejoin="round"/>
<path d="M372.232 221.518C388.952 234.04 409.872 240.342 430.672 240.378C452.904 240.417 471.665 231.85 491.288 222.79C494.874 221.134 493.809 218.489 490.801 217.839C486.432 216.895 486.278 217.427 485.153 212.335C481.42 195.457 459.748 209.581 450.037 205.363C446.125 203.664 443.847 199.579 440.426 197.029C432.293 190.968 421.563 194.459 412.425 192.074C396.11 187.815 409.859 179.093 420.064 178.535C439.104 177.495 436.406 171.605 441.162 171.317C444.877 171.091 449.927 178.755 459.706 174.19C463.966 172.201 467.119 168.007 467.847 163.362C471.567 166.716 477.729 164.575 481.19 160.955C484.651 157.336 486.747 152.517 490.51 149.211C469.412 138.161 444.054 137.938 420.819 137.858C351.738 137.622 353.465 157.873 324.819 172.378C311.532 179.105 303.616 176.595 295.978 180.081C274.294 189.98 303.416 194.005 311.182 194.474C350.387 196.84 342.072 198.932 372.232 221.518Z" fill="#F58F05"/>
<path d="M357.638 207.206C370.462 216.062 384.134 223.991 399.07 228.444C414.006 232.897 430.37 233.684 445.044 228.434C433.557 220.287 415.428 225.028 405.788 214.763C410.538 214.749 415.285 214.037 419.83 212.659C420.72 212.389 421.677 212.036 422.156 211.239C423.349 209.249 420.65 207.215 418.431 206.537C405.892 202.703 391.714 202.176 381.539 193.905C385.437 192.599 389.28 191.131 393.054 189.505C387.005 182.388 374.046 185.335 368.012 178.207C367.351 177.426 366.785 176.48 366.813 175.458C366.885 172.875 370.231 171.965 372.809 171.795C381.976 171.192 391.143 170.589 400.31 169.988C401.914 169.882 403.586 169.756 404.966 168.932C406.346 168.108 407.315 166.355 406.712 164.865C406.233 163.684 404.98 163.044 403.824 162.505C401.307 161.331 398.79 160.157 396.272 158.982C395.349 158.551 394.338 158.025 394.014 157.06C393.249 154.769 396.691 153.59 399.106 153.641C419.536 154.076 440.006 152.552 460.146 149.1C457.919 144.545 452.073 143.346 447.024 142.897C396.177 138.382 343.763 155.44 305.313 189.018C309.488 185.37 328.872 192.059 333.785 193.853C342.387 196.994 350.149 202.034 357.638 207.206Z" fill="#F55F06"/>
<path d="M372.232 221.518C388.952 234.04 409.872 240.342 430.672 240.378C452.904 240.417 471.665 231.85 491.288 222.79C494.874 221.134 493.809 218.489 490.801 217.839C486.432 216.895 486.278 217.427 485.153 212.335C481.42 195.457 459.748 209.581 450.037 205.363C446.125 203.664 443.847 199.579 440.426 197.029C432.293 190.968 421.563 194.459 412.425 192.074C396.11 187.815 409.859 179.093 420.064 178.535C439.104 177.495 436.406 171.605 441.162 171.317C444.877 171.091 449.927 178.755 459.706 174.19C463.966 172.201 467.119 168.007 467.847 163.362C471.567 166.716 477.729 164.575 481.19 160.955C484.651 157.336 486.747 152.517 490.51 149.211C469.412 138.161 444.054 137.938 420.819 137.858C351.738 137.622 353.465 157.873 324.819 172.378C311.532 179.105 303.616 176.595 295.978 180.081C274.294 189.98 303.416 194.005 311.182 194.474C350.387 196.84 342.072 198.932 372.232 221.518Z" stroke="#39092C" stroke-width="1.5" stroke-miterlimit="10" stroke-linecap="round" stroke-linejoin="round"/>
<path d="M486.403 216.237C386.57 250.722 378.966 184.772 288.106 186.613" stroke="#39092C" stroke-width="1.5" stroke-miterlimit="10" stroke-linecap="round" stroke-linejoin="round"/>
<path d="M461.83 205.434C399.699 223.196 388.719 184.907 288.107 186.613" stroke="#39092C" stroke-width="1.5" stroke-miterlimit="10" stroke-linecap="round" stroke-linejoin="round"/>
<path d="M467.847 163.361C395.219 126.643 346.176 186.829 290.168 183.457" stroke="#39092C" stroke-width="1.5" stroke-miterlimit="10" stroke-linecap="round" stroke-linejoin="round"/>
<path d="M440.231 171.468C405.535 145.025 326.807 193.273 291.845 183.481" stroke="#39092C" stroke-width="1.5" stroke-miterlimit="10" stroke-linecap="round" stroke-linejoin="round"/>
<path d="M404.963 186.184C378.585 183.383 315.378 187.555 288.106 186.612" stroke="#39092C" stroke-width="1.5" stroke-miterlimit="10" stroke-linecap="round" stroke-linejoin="round"/>
<path d="M335.926 190.868C307.451 195.622 176.722 264.998 83.6519 196.223C51.555 172.504 30.8876 133.976 28.8822 94.1171C28.3169 82.8767 16.8327 75.704 19.1222 64.6846C20.1582 59.6945 24.1925 55.7649 25.4093 50.8151C26.24 47.4346 25.6894 43.8115 26.6575 40.4663C27.7766 36.5993 33.9557 29.2509 23.7765 23.5332C20.1227 21.4795 3.49426 17.89 4.04519 1.00021C6.55116 14.2168 24.2332 16.0415 32.5606 24.6755C37.116 15.3089 50.2922 11.4322 59.1941 16.8375C63.0586 19.1844 66.7504 23.1023 71.1999 22.3048C73.1438 21.9559 96.0162 5.27153 113.941 24.5979C97.1667 14.504 71.005 24.4241 81.8094 31.3218C83.8926 32.6512 105.866 36.566 107.985 58.5801C108.961 68.7391 118.254 75.9932 122.17 85.4179C132.892 111.229 129.99 108.296 163.315 127.127C181.98 137.675 197.441 153.305 216.367 163.378C264.704 189.103 355.431 177.784 354.82 187.136C354.717 188.657 351.556 188.258 335.926 190.868Z" fill="white"/>
<path d="M290.53 188.917C277.822 188.973 264.814 188.981 252.838 184.727C246.077 182.326 239.842 178.626 233.126 176.102C212.565 168.375 187.989 171.758 169.918 159.272C159.657 152.183 152.948 140.811 142.649 133.781C133.571 127.583 121.492 124.462 116.228 114.812C114.193 111.082 113.466 106.772 111.663 102.923C108.16 95.4472 101.048 90.4716 94.8888 84.9767C78.2626 70.1431 67.1752 49.2396 64.2175 27.1558C69.1752 29.483 70.2684 35.8424 71.8196 41.0948C75.0496 52.0312 83.0727 61.4592 93.3528 66.396C96.8622 68.082 100.664 69.2973 103.707 71.7257C108.058 75.1984 110.244 80.6194 112.777 85.5763C126.23 111.91 152.495 128.813 177.583 144.466C188.439 151.24 199.315 158.024 210.753 163.759C237.09 176.966 266.284 184.436 295.725 185.507C309.594 186.012 325.306 183.474 338.816 186.7C336.497 192.414 297.896 188.884 290.53 188.917Z" fill="#D3D8F7"/>
<mask id="mask0_0_311" style="mask-type:luminance" maskUnits="userSpaceOnUse" x="4" y="1" width="351" height="226">
<path d="M335.926 190.868C307.451 195.622 176.722 264.998 83.6519 196.223C51.555 172.504 30.8876 133.976 28.8822 94.1171C28.3169 82.8767 16.8327 75.704 19.1222 64.6846C20.1582 59.6945 24.1925 55.7649 25.4093 50.8151C26.24 47.4346 25.6894 43.8115 26.6575 40.4663C27.7766 36.5993 33.9557 29.2509 23.7765 23.5332C20.1227 21.4795 3.49426 17.89 4.04519 1.00021C6.55116 14.2168 24.2332 16.0415 32.5606 24.6755C37.116 15.3089 50.2922 11.4322 59.1941 16.8375C63.0586 19.1844 66.7504 23.1023 71.1999 22.3048C73.1438 21.9559 96.0162 5.27153 113.941 24.5979C97.1667 14.504 71.005 24.4241 81.8094 31.3218C83.8926 32.6512 105.866 36.566 107.985 58.5801C108.961 68.7391 118.254 75.9932 122.17 85.4179C132.892 111.229 129.99 108.296 163.315 127.127C181.98 137.675 197.441 153.305 216.367 163.378C264.704 189.103 355.431 177.784 354.82 187.136C354.717 188.657 351.556 188.258 335.926 190.868Z" fill="white"/>
</mask>
<g mask="url(#mask0_0_311)">
<path d="M40.9453 77.2537C42.1523 95.6875 23.3293 124.294 58.0215 135.774C77.3209 142.16 80.4454 129.336 83.5749 126.285C88.2949 121.686 96.1364 123.296 102.308 120.985C111.616 117.5 114.723 103.54 107.772 96.4347C102.483 91.0287 93.561 89.989 89.1044 83.879C85.1177 78.4127 85.8117 70.2451 81.0068 65.483C78.8034 63.2999 75.7664 62.1997 73.2486 60.3882C66.2242 55.3355 63.9431 45.3645 56.6832 40.6554C48.7429 35.5058 42.8092 44.1973 39.9789 50.8897C36.2692 59.6643 40.3501 68.1624 40.9453 77.2537Z" fill="#F52F06"/>
<path d="M81.0727 177.47C71.3684 187.097 54.5087 162.532 65.6025 154.542C73.2394 149.041 87.7899 156.771 82.5892 162.852C81.0637 164.635 76.3064 166.483 81.3095 170.662C83.8347 172.774 83.1655 175.393 81.0727 177.47Z" fill="#F52F06"/>
<path d="M288.11 195.502C283.235 195.571 278.249 186.822 273.73 190.244C271.261 192.113 273.393 198.859 269.008 199.028C266.429 199.127 265.115 195.932 262.889 194.618C252.028 188.208 249.24 216.157 258.032 220.715C265.683 224.681 291.983 218.971 313.348 209.658C321.983 205.894 323.937 202.85 316.128 196.808C297.167 182.14 295.453 195.396 288.11 195.502Z" fill="#F52F06"/>
<path d="M239.172 197.365C235.328 201.637 233.446 201.699 236.627 206.015C244.022 216.047 218.903 240.737 180.736 235.43C169.749 233.903 166.717 228.084 168.427 223.698C170.688 217.898 180.649 218.11 182.353 212.122C183.899 206.692 177.032 200.525 180.322 195.937C183.272 191.821 192.151 192.834 188.584 185.559C174.948 157.743 208.621 155.291 210.113 177.226C211.039 190.833 219.85 174.99 227.034 176.386C235.104 177.952 246.626 189.081 239.172 197.365Z" fill="#F52F06"/>
<path d="M125.445 211.152C130.111 204.455 130.541 202.776 145.735 205.313C160.115 207.715 167.431 200.53 167.052 193.413C166.692 186.643 159.29 182.049 158.288 175.344C157.194 168.011 164.062 161.748 164.768 154.368C165.514 146.588 158.696 139.484 151.021 138.003C142.319 136.323 140.238 136.622 139.555 129.353C138.972 123.159 132.116 118.695 125.985 119.753C111.689 122.223 115.002 138.025 111.551 142.613C108.288 146.953 101.579 146.156 96.7119 148.563C92.2282 150.781 89.5212 156.119 90.3817 161.047C91.1668 165.549 94.5626 169.558 94.1424 174.108C93.5581 180.44 86.2436 183.735 83.1677 189.3C72.548 208.506 112.39 229.889 125.445 211.152Z" fill="#F52F06"/>
<path d="M179.201 155.221C167.861 151.777 173.026 131.676 187.313 132.469C193.04 132.787 201.852 138.943 199.297 145.502C197.135 151.052 184.654 156.877 179.201 155.221Z" fill="#F52F06"/>
<path d="M266.685 173.95C269.456 179.537 259.498 187.768 254.094 185.089C250.376 183.246 249.472 177.791 253.137 173.843C256.457 170.266 264.653 169.855 266.685 173.95Z" fill="#F52F06"/>
</g>
<path d="M335.925 190.868C307.451 195.622 176.722 264.998 83.6519 196.223C51.555 172.504 30.8876 133.976 28.8822 94.1171C28.3169 82.8767 16.8327 75.704 19.1222 64.6846C20.1582 59.6945 24.1925 55.7649 25.4093 50.8151C26.24 47.4346 25.6894 43.8115 26.6575 40.4663C27.7766 36.5993 33.9557 29.2509 23.7765 23.5332C20.1227 21.4795 3.49426 17.89 4.04519 1.00021C6.55116 14.2168 24.2332 16.0415 32.5606 24.6755C37.116 15.3089 50.2921 11.4322 59.1941 16.8375C63.0586 19.1844 66.7504 23.1023 71.1999 22.3048C73.1438 21.9559 96.0162 5.27152 113.941 24.5979C97.1667 14.504 71.005 24.4241 81.8094 31.3218C83.8926 32.6512 105.866 36.566 107.985 58.5801C108.961 68.7391 118.254 75.9932 122.17 85.4179C132.892 111.229 129.99 108.296 163.315 127.127C181.98 137.675 197.441 153.305 216.367 163.378C264.704 189.103 355.431 177.784 354.82 187.136C354.717 188.657 351.556 188.258 335.925 190.868Z" stroke="#39092C" stroke-width="1.5" stroke-miterlimit="10" stroke-linecap="round" stroke-linejoin="round"/>
<path d="M108.157 59.8613C108.819 65.4091 93.8671 67.3293 91.2523 60.3799" stroke="#39092C" stroke-width="1.5" stroke-miterlimit="10" stroke-linecap="round" stroke-linejoin="round"/>
<path d="M79.0608 47.6269C76.544 42.0896 76.6084 31.0771 81.8069 31.3234" stroke="#39092C" stroke-width="1.5" stroke-miterlimit="10" stroke-linecap="round" stroke-linejoin="round"/>
<path d="M27.2134 77.7699C24.449 69.7908 23.6837 59.8873 25.1225 51.8068" stroke="#39092C" stroke-width="1.5" stroke-miterlimit="10" stroke-linecap="round" stroke-linejoin="round"/>
<path d="M88.002 36.977C95.7035 35.9199 110.323 51.1567 101.396 57.1418C92.6218 63.0173 76.7524 38.5219 88.002 36.977Z" fill="#F58F05"/>
<path d="M98.3461 49.5853C97.119 54.3377 88.4886 45.2582 90.8834 43.2711C92.9347 41.5695 99.0946 46.6885 98.3461 49.5853Z" fill="#39092C"/>
<path d="M88.002 36.977C95.7035 35.9199 110.323 51.1567 101.396 57.1418C92.6218 63.0173 76.7524 38.5219 88.002 36.977Z" stroke="#39092C" stroke-width="1.5" stroke-miterlimit="10" stroke-linecap="round" stroke-linejoin="round"/>
<path d="M265.011 213.179C262.076 212.324 259.333 210.82 257.033 208.807" stroke="#39092C" stroke-width="1.5" stroke-miterlimit="10" stroke-linecap="round" stroke-linejoin="round"/>
<path d="M139.325 215.046C144.423 216.724 149.947 216.905 154.949 218.851C161.804 221.518 167.661 227.45 175.015 227.464C179.273 227.472 183.316 225.425 187.572 225.288C195.977 225.019 203.149 232.106 211.552 232.417C219.289 232.703 226.099 227.228 233.768 226.163C243.169 224.858 249.692 226.373 258.33 221.787C273.632 213.664 273.78 208.756 298.397 197.057C291.935 200.128 282.648 200.266 275.669 202.622C218.648 221.863 171.416 231.922 118.267 187.765C105.734 177.361 117.406 207.836 139.325 215.046Z" fill="#F58F05"/>
<path d="M139.325 215.046C144.423 216.724 149.947 216.905 154.949 218.851C161.804 221.518 167.661 227.45 175.015 227.464C179.273 227.472 183.316 225.425 187.572 225.288C195.977 225.019 203.149 232.106 211.552 232.417C219.289 232.703 226.099 227.228 233.768 226.163C243.169 224.858 249.692 226.373 258.33 221.787C273.632 213.664 273.78 208.756 298.397 197.057C291.935 200.128 282.648 200.266 275.669 202.622C218.648 221.863 171.416 231.922 118.267 187.765C105.734 177.361 117.406 207.836 139.325 215.046Z" stroke="#39092C" stroke-width="1.5" stroke-miterlimit="10" stroke-linecap="round" stroke-linejoin="round"/>
<path d="M140.08 215.283C131.626 207.952 130.635 203.17 128.236 195.468" stroke="#39092C" stroke-width="1.5" stroke-miterlimit="10" stroke-linecap="round" stroke-linejoin="round"/>
<path d="M153.007 218.184C149.369 214.37 147.731 211.049 145.791 206.246" stroke="#39092C" stroke-width="1.5" stroke-miterlimit="10" stroke-linecap="round" stroke-linejoin="round"/>
<path d="M173.141 227.324C166.766 222.474 164.721 218.347 164.781 214.035" stroke="#39092C" stroke-width="1.5" stroke-miterlimit="10" stroke-linecap="round" stroke-linejoin="round"/>
<path d="M189.125 225.32C185.278 222.731 183.575 220.245 183.605 218.082" stroke="#39092C" stroke-width="1.5" stroke-miterlimit="10" stroke-linecap="round" stroke-linejoin="round"/>
<path d="M211.553 232.417C203.967 228.571 202.884 221.671 202.922 218.924" stroke="#39092C" stroke-width="1.5" stroke-miterlimit="10" stroke-linecap="round" stroke-linejoin="round"/>
<path d="M231.739 226.55C225.489 225.234 221.754 220.278 221.43 217.447" stroke="#39092C" stroke-width="1.5" stroke-miterlimit="10" stroke-linecap="round" stroke-linejoin="round"/>
<path d="M255.62 223.059C248.686 222.963 239.827 215.626 239.207 213.527" stroke="#39092C" stroke-width="1.5" stroke-miterlimit="10" stroke-linecap="round" stroke-linejoin="round"/>
<path d="M278.293 208.254C275.007 207.406 272.582 205.47 272.033 203.839" stroke="#39092C" stroke-width="1.5" stroke-miterlimit="10" stroke-linecap="round" stroke-linejoin="round"/>
<path d="M224.761 200.456C224.522 202.448 224.067 204.417 221.854 205.071C221.065 205.304 221.071 206.381 221.832 206.646C225.725 207.996 230.181 203.392 228.226 199.569C227.312 197.781 224.963 198.783 224.761 200.456Z" fill="#F55F06"/>
<path d="M203.114 196.966C201.088 197.806 203.641 199.991 203.761 200.862C203.53 202.014 203.957 203.813 202.705 204.755C200.394 206.495 205.604 209.232 208.078 204.884C210.679 200.312 206.048 195.75 203.114 196.966Z" fill="#F55F06"/>
<path d="M198.336 178.11C196.111 179.289 199.367 181.451 198.62 184.319C198.582 184.463 196.846 187.158 199.002 187.019C206.609 186.53 202.872 175.707 198.336 178.11Z" fill="#F55F06"/>
<path d="M151.046 186.755C149.475 188.494 148.083 190.911 145.805 191.817C144.592 192.3 144.703 194 146.085 194.126C150.197 194.507 153.969 192.254 154.422 188.21C154.614 186.513 152.156 185.528 151.046 186.755Z" fill="#F55F06"/>
<path d="M147.128 163.073C146.776 163.859 146.933 164.682 145.785 167.513C145.372 168.535 143.521 171.388 145.128 171.655C144.511 170.805 145.595 172.839 148.057 171.549C154.864 167.988 148.716 159.536 147.128 163.073Z" fill="#F55F06"/>
<path d="M129.067 178.25C127.315 178.336 127.132 180.499 128.633 181.151C133.146 183.11 136.174 176.17 132.964 174.455C129.593 172.654 130.885 178.16 129.067 178.25Z" fill="#F55F06"/>
<path d="M135.72 147.267C134.903 147.954 134.955 152.518 132.183 153.095C129.559 153.64 133.321 157.6 137.293 153.587C140.634 150.21 137.977 145.369 135.72 147.267Z" fill="#F55F06"/>
<path d="M104.518 191.44C103.781 192.047 104.247 192.345 103.076 194.011C102.009 195.525 99.828 194.377 99.7981 196.525C99.7625 199.095 104.057 198.482 106.027 196.496C108.828 193.672 106.71 189.638 104.518 191.44Z" fill="#F55F06"/>
<path d="M101.28 168.73C101.089 169.909 99.6906 172.464 98.3269 172.842C96.6353 173.309 97.0771 175.569 98.6798 175.754C100.442 175.955 102.485 175.226 103.627 173.844C107.199 169.522 101.834 165.308 101.28 168.73Z" fill="#F55F06"/>
<path d="M116.084 161.659C115.592 162.046 115.479 162.329 115.384 162.493C114.984 163.186 114.618 162.754 114.902 162.901C111.674 162.857 112.686 166.444 116.15 165.774C122.811 164.483 115.426 156.633 116.084 161.659Z" fill="#F55F06"/>
<path d="M124.785 133.296C124.734 134.303 123.987 134.9 123.318 134.994C120.766 135.352 124.173 139.118 127.107 136.321C131.34 132.287 124.852 129.409 124.785 133.296Z" fill="#F55F06"/>
<path d="M65.4616 119.889C63.7712 120.896 63.2475 124.016 59.8508 123.727C57.3022 123.508 59.2703 128.639 64.986 125.396C69.2622 122.969 67.3408 118.77 65.4616 119.889Z" fill="#F55F06"/>
<path d="M88.7621 111.52C87 114.662 84.5938 113.076 84.8712 115.364C85.1381 117.571 89.2538 116.776 91.1701 115.383C95.6685 112.109 92.7551 104.404 88.7621 111.52Z" fill="#F55F06"/>
<path d="M73.861 98.5025C72.0944 99.2443 70.772 104.487 66.4824 103.065C64.2459 102.323 68.3706 106.522 72.7023 104.803C77.7988 102.779 76.8144 97.2619 73.861 98.5025Z" fill="#F55F06"/>
<path d="M52.7572 108.734C52.245 109.243 50.0375 110.285 49.2889 110.157C47.7713 109.9 47.0333 111.621 48.2336 112.568C49.9622 113.932 53.7008 114.262 54.4795 112.115C57.2463 108.642 53.8522 107.646 52.7572 108.734Z" fill="#F55F06"/>
<path d="M71.413 162.447C70.5895 163.424 69.7783 164.254 68.4143 164.336C67.2348 164.405 66.7647 166.272 68.0847 166.536C76.1569 168.152 76.7197 156.152 71.413 162.447Z" fill="#F55F06"/>
<path d="M87.6745 94.2558C87.6745 94.2587 87.6699 94.2731 87.6699 94.2731C87.6729 94.2674 87.6818 94.2515 87.6833 94.2486C87.6803 94.2544 87.6759 94.2587 87.6745 94.2558Z" fill="#F55F06"/>
<path d="M89.2139 90.3088C87.3872 90.7842 86.774 96.2722 88.6603 96.2026C93.5992 96.0172 92.1914 89.533 89.2139 90.3088Z" fill="#F55F06"/>
<path d="M87.7046 94.1625C87.7072 94.181 87.7071 94.1824 87.7098 94.1967C87.7114 94.1825 87.7072 94.1753 87.7046 94.1625Z" fill="#F55F06"/>
<path d="M87.6862 94.1108C87.702 94.1211 87.7017 94.1415 87.7043 94.1604C87.6889 94.0194 87.6833 94.0019 87.6862 94.1108Z" fill="#F55F06"/>
<path d="M87.6841 94.2487C87.6911 94.2378 87.6953 94.2323 87.6841 94.2487V94.2487Z" fill="#F55F06"/>
<path d="M87.6746 94.2558C87.6763 94.237 87.6781 94.2138 87.6963 94.1545C87.6735 94.2297 87.6703 94.25 87.6746 94.2558Z" fill="#F55F06"/>
<path d="M72.8462 75.0335C71.2312 75.9428 72.2238 79.1991 69.5812 79.0594C68.0148 78.9767 67.6991 81.3294 69.178 81.7607C72.9119 82.8474 76.643 79.0152 75.5158 76.1548C75.1008 75.1025 73.9053 74.4371 72.8462 75.0335Z" fill="#F55F06"/>
<path d="M50.1599 92.948C46.6199 93.2559 50.1802 97.3403 54.8864 97.0762C59.5695 96.8132 61.4166 90.7922 58.3172 90.9378C55.4415 91.0735 52.9921 92.7014 50.1599 92.948Z" fill="#F55F06"/>
<path d="M56.476 66.1803C55.5488 65.3227 54.0859 66.3619 54.694 67.5155C57.6496 73.1242 65.1868 68.5263 62.8625 64.3865C59.7563 58.8512 59.1042 68.6087 56.476 66.1803Z" fill="#F55F06"/>
<path d="M48.2791 80.7503C47.5467 81.1262 46.7542 80.9178 45.9653 81.0795C42.5098 81.7863 50.0181 85.9574 52.4781 83.5648C55.2633 80.8559 53.2566 78.1996 48.2791 80.7503Z" fill="#F55F06"/>
<path d="M50.9617 51.4674C50.8148 51.5888 48.2966 53.2607 47.2321 53.4085C44.8666 53.8067 46.5656 57.7172 50.9161 56.5265C57.0265 54.8565 53.998 48.9595 50.9617 51.4674Z" fill="#F55F06"/>
</g>
</svg>
