<svg width="318" height="178" viewBox="0 0 318 178" fill="none" xmlns="http://www.w3.org/2000/svg">
<path opacity="0.5" d="M1.88281 1.51001C9.60007 16.4787 3.38485 31.7892 3.53509 47.3245C3.66038 60.2801 0.80935 76.592 6.07719 88.843C10.6356 99.4442 21.0611 106.547 30.7299 112.029C35.3742 114.662 46.764 117.325 49.2476 122.694C56.2819 137.901 71.8756 143.075 87.3417 136.721C103.688 130.005 121.707 116.081 140.554 121.1C149.086 123.372 156.091 126.489 165.075 127.687C178.286 129.449 190.181 135.254 203.818 134.396C224.158 133.117 244.464 126.599 263.997 121.257C280.829 116.654 297.534 111.599 314.272 106.67M99.0905 166.371C111.452 163.755 123.967 161.951 136.624 161.64C145.18 161.429 148.376 163.646 155.332 167.546C172.968 177.433 193.436 177.681 212.709 173.203C222.509 170.925 229.77 169.926 239.689 169.514C266.356 168.404 291.067 159.615 316.124 151.213" stroke="#86E5FF" stroke-width="3" stroke-linecap="round"/>
</svg>
