<svg width="367" height="506" viewBox="0 0 367 506" fill="none" xmlns="http://www.w3.org/2000/svg">
<g opacity="0.5">
<path d="M153.01 343.041C127.911 295.126 141.701 247.913 150.626 268.536C156.304 281.659 160.174 271.946 163.896 275.941C165.103 277.236 164.602 279.339 165.208 281.002C167.614 287.599 177.581 281.189 182.483 283.792C186.012 285.667 186.476 290.634 185.356 294.47C183.156 302.006 176.515 307.334 175.306 315.11C170.941 343.188 188.001 340.421 167.556 356.058C162.421 359.988 159.326 355.099 153.01 343.041Z" fill="#F52F06"/>
<path d="M144.01 297.998C143.909 296.46 144.729 294.245 146.149 294.83C147.073 299.681 149.858 304.154 153.803 307.123C152.402 302.007 153.39 296.289 156.427 291.939C158.207 295.387 161.572 299.449 165.099 297.83C168.331 296.346 168.982 290.797 172.535 290.708C174.616 290.656 176.17 292.855 176.255 294.934C176.338 297.014 175.395 298.977 174.575 300.891C169.9 311.804 168.764 324.201 171.379 335.783C171.383 335.799 171.386 335.814 171.39 335.83C173.966 347.203 171.511 370.139 160.895 350.622C152.398 335.005 145.187 315.817 144.01 297.998Z" fill="#D32506"/>
<path d="M153.01 343.041C127.911 295.126 141.701 247.913 150.626 268.536C156.304 281.659 160.174 271.946 163.896 275.941C165.103 277.236 164.602 279.339 165.208 281.002C167.614 287.599 177.581 281.189 182.483 283.792C186.012 285.667 186.476 290.634 185.356 294.47C183.156 302.006 176.515 307.334 175.306 315.11C170.941 343.188 188.001 340.421 167.556 356.058C162.421 359.988 159.326 355.099 153.01 343.041Z" stroke="#39092C" stroke-width="1.5" stroke-miterlimit="10" stroke-linecap="round" stroke-linejoin="round"/>
<path d="M165.207 281.002C161.683 302.383 162.97 333.052 171.265 353.072" stroke="#39092C" stroke-width="1.5" stroke-miterlimit="10" stroke-linecap="round" stroke-linejoin="round"/>
<path d="M153.695 273.809C153.278 293.81 157.333 338.911 168.358 355.44" stroke="#39092C" stroke-width="1.5" stroke-miterlimit="10" stroke-linecap="round" stroke-linejoin="round"/>
<path d="M177.044 283.289C168.653 300.241 167.896 331.627 174.874 349.209" stroke="#39092C" stroke-width="1.5" stroke-miterlimit="10" stroke-linecap="round" stroke-linejoin="round"/>
<path d="M353.703 363.613C342.837 355.822 334.672 363.186 330.952 359.98C329.421 358.66 329.262 356.149 327.593 355.009C325.229 353.397 321.834 355.698 319.205 354.568C316.15 353.255 314.971 347.799 311.784 348.746C310.334 349.177 309.442 350.955 307.929 351.001C304.983 351.092 304.251 344.229 297.551 347.756C292.781 350.266 287.24 361.205 276.57 368.467C263.162 377.593 254.194 372.21 251.72 373.253C249.93 374.006 232.427 395.748 248.55 391.903C281.661 384.011 343.901 406.772 353.703 363.613Z" fill="#F52F06"/>
<path d="M315.468 382.034C317.563 381.688 320.218 380.694 320.108 378.575C319.926 375.083 312.919 375.751 312.54 372.275C312.116 368.398 320.691 367.816 319.523 364.094C318.753 361.637 315.042 362.604 312.952 364.109C310.862 365.612 307.348 366.89 306.251 364.559C305.061 362.028 308.54 357.774 305.888 356.882C304.917 356.556 303.925 357.244 303.119 357.877C292.989 365.858 281.205 371.725 268.732 374.996C264.374 376.139 251.175 372.471 249.263 377.637C247.192 383.229 256.862 385.699 260.598 386.537C277.58 390.348 298.641 384.814 315.468 382.034Z" fill="#D32506"/>
<path d="M353.703 363.613C342.837 355.822 334.672 363.186 330.952 359.98C329.421 358.66 329.262 356.149 327.593 355.009C325.229 353.397 321.834 355.698 319.205 354.568C316.15 353.255 314.971 347.799 311.784 348.746C310.334 349.177 309.442 350.955 307.929 351.001C304.983 351.092 304.251 344.229 297.551 347.756C292.781 350.266 287.24 361.205 276.57 368.467C263.162 377.593 254.194 372.21 251.72 373.253C249.93 374.006 232.427 395.748 248.55 391.903C281.661 384.011 343.901 406.772 353.703 363.613Z" stroke="#39092C" stroke-width="1.5" stroke-miterlimit="10" stroke-linecap="round" stroke-linejoin="round"/>
<path d="M307.929 351.001C295.534 371.929 265.048 382.533 247.242 378.289" stroke="#39092C" stroke-width="1.5" stroke-miterlimit="10" stroke-linecap="round" stroke-linejoin="round"/>
<path d="M320.581 354.876C309.384 373.19 266.082 384.694 245.184 381.261" stroke="#39092C" stroke-width="1.5" stroke-miterlimit="10" stroke-linecap="round" stroke-linejoin="round"/>
<path d="M332.37 360.69C308.726 384.094 275.778 387.623 243.721 383.737" stroke="#39092C" stroke-width="1.5" stroke-miterlimit="10" stroke-linecap="round" stroke-linejoin="round"/>
<path d="M353.769 363.718C323.157 385.225 282.611 386.524 242.604 385.779" stroke="#39092C" stroke-width="1.5" stroke-miterlimit="10" stroke-linecap="round" stroke-linejoin="round"/>
<path d="M295.515 293.909C321.128 250.902 307.039 255.901 302.486 247.134C300.591 243.484 301.489 238.547 298.66 235.561C297.549 234.389 295.973 233.678 295.057 232.348C293.469 230.043 294.415 226.823 293.44 224.2C291.458 218.863 280.513 217.69 279.117 219.567C276.655 222.875 282.421 248.991 283.302 256.002C286.627 282.451 280.549 299.218 284.476 305.291C289.549 303.611 292.906 298.291 295.515 293.909Z" fill="#F52F06"/>
<path d="M288.713 241.561C290.706 245.726 296.994 247.661 296.86 252.276C296.791 254.647 294.865 256.952 295.699 259.173C296.655 261.716 300.512 262.07 301.597 264.56C302.157 265.844 301.799 267.323 301.413 268.669C298.601 278.454 294.128 288.479 285.57 293.998C284.904 294.427 278.38 253.353 278.398 249.24C278.417 244.774 277.087 232.97 281.795 230.204C289.206 225.851 286.874 237.719 288.713 241.561Z" fill="#D32506"/>
<path d="M295.515 293.909C321.128 250.902 307.039 255.901 302.486 247.134C300.591 243.484 301.489 238.547 298.66 235.561C297.549 234.389 295.973 233.678 295.057 232.348C293.469 230.043 294.415 226.823 293.44 224.2C291.458 218.863 280.513 217.69 279.117 219.567C276.655 222.875 282.421 248.991 283.302 256.002C286.627 282.451 280.549 299.218 284.476 305.291C289.549 303.611 292.906 298.291 295.515 293.909Z" stroke="#39092C" stroke-width="1.5" stroke-miterlimit="10" stroke-linecap="round" stroke-linejoin="round"/>
<path d="M295.058 232.348C297.14 241.213 294.025 249.194 284.235 267.381" stroke="#39092C" stroke-width="1.5" stroke-miterlimit="10" stroke-linecap="round" stroke-linejoin="round"/>
<path d="M304.368 249.707C306.72 258.974 289.187 291.788 283.407 291.771" stroke="#39092C" stroke-width="1.5" stroke-miterlimit="10" stroke-linecap="round" stroke-linejoin="round"/>
<path d="M219.349 128.156C205.493 120.395 192.679 96.7445 189.916 85.3961C187.843 76.8849 188.031 70.1533 190.948 24.7644C195.796 22.5052 202.334 26.4371 202.609 31.7795C202.791 35.2982 200.846 39.3225 203.063 42.061C205.301 44.8256 210.449 44.1717 212.044 47.3519C213.006 49.2706 212.125 51.7631 213.202 53.6196C215.065 56.8324 221.492 55.7715 220.974 64.762C220.671 70.0378 211.815 87.5919 222.849 108.481C230.378 99.7494 232.373 71.0979 227.652 57.0371C223.046 43.3191 229.628 42.0047 230.806 38.1848C231.941 34.5008 228.072 30.4888 229.563 26.9342C231.271 22.859 233.612 25.8448 233.544 16.0296C233.475 6.12853 239.445 -0.249036 246.908 9.11457C263.555 30.0049 269.819 42.1524 264.666 66.141C258.149 96.4823 244.987 105.743 242.905 119.814C242.32 123.764 242.657 127.932 241.092 131.605C236.528 142.303 225.478 131.588 219.349 128.156Z" fill="#F52F06"/>
<path d="M192.019 63.2597C194.787 67.5205 197.556 71.7813 200.326 76.0404C202.367 74.7079 202.637 71.9067 203.109 69.5162C203.582 67.1258 205.126 64.3495 207.554 64.5661C210.04 64.7872 211.023 67.8724 211.245 70.3584C211.954 78.2793 211.052 86.2839 211.856 94.1951C212.659 102.106 215.547 110.349 222.005 114.989C233.091 104.741 237.982 88.2576 234.283 73.6214C232.951 68.3531 230.586 62.9408 232 57.694C232.29 56.6116 232.967 55.4029 234.086 55.3549C235.166 55.3072 235.929 56.3592 236.48 57.2891C238.611 60.885 240.744 64.4806 242.875 68.0778C244.942 61.5456 247.006 55.0125 249.071 48.4806C251.162 52.0816 253.253 55.6839 255.344 59.2848C258.18 52.8755 259.958 45.9998 260.583 39.0194C265.602 48.3296 262.871 59.8509 258.911 69.6582C254.005 81.8051 247.39 93.1866 242.61 105.387C239.341 113.728 238.675 135.334 225.688 129.205C202.873 118.439 189.95 87.0201 192.019 63.2597Z" fill="#D32506"/>
<path d="M219.349 128.156C205.493 120.395 192.679 96.7445 189.916 85.3961C187.843 76.8849 188.031 70.1533 190.948 24.7644C195.796 22.5052 202.334 26.4371 202.609 31.7795C202.791 35.2982 200.846 39.3225 203.063 42.061C205.301 44.8256 210.449 44.1717 212.044 47.3519C213.006 49.2706 212.125 51.7631 213.202 53.6196C215.065 56.8324 221.492 55.7715 220.974 64.762C220.671 70.0378 211.815 87.5919 222.849 108.481C230.378 99.7494 232.373 71.0979 227.652 57.0371C223.046 43.3191 229.628 42.0047 230.806 38.1848C231.941 34.5008 228.072 30.4888 229.563 26.9342C231.271 22.859 233.612 25.8448 233.544 16.0296C233.475 6.12853 239.445 -0.249036 246.908 9.11457C263.555 30.0049 269.819 42.1524 264.666 66.141C258.149 96.4823 244.987 105.743 242.905 119.814C242.32 123.764 242.657 127.932 241.092 131.605C236.528 142.303 225.478 131.588 219.349 128.156Z" stroke="#39092C" stroke-width="1.5" stroke-miterlimit="10" stroke-linecap="round" stroke-linejoin="round"/>
<path d="M202.356 40.8311C197.757 73.343 200.772 114.16 229.877 130.442" stroke="#39092C" stroke-width="1.5" stroke-miterlimit="10" stroke-linecap="round" stroke-linejoin="round"/>
<path d="M214.731 55.1233C204.017 75.3202 210.685 106.702 225.621 120.404" stroke="#39092C" stroke-width="1.5" stroke-miterlimit="10" stroke-linecap="round" stroke-linejoin="round"/>
<path d="M231.015 36.7337C249.057 55.0796 236.62 95.5787 229.072 124.595" stroke="#39092C" stroke-width="1.5" stroke-miterlimit="10" stroke-linecap="round" stroke-linejoin="round"/>
<path d="M233.508 18.9052C263.948 51.1435 247.526 92.4599 234.823 129.7" stroke="#39092C" stroke-width="1.5" stroke-miterlimit="10" stroke-linecap="round" stroke-linejoin="round"/>
<path d="M223.264 108.902C220.856 119.574 254.61 173.989 245.75 218.894C238.865 253.787 189.631 322.874 166.313 351.175C152.62 367.794 143.926 378.194 141.79 401.915C140.518 416.046 137.022 413.235 133.351 418.542C128.116 426.109 138.441 437.911 136.173 453.219C135.631 456.882 132.553 459.723 128.651 456.713C124.901 453.821 122.365 449.657 119.03 446.292C113.79 441.006 102.166 436.971 101.762 448.459C116.65 441.95 130.216 478.773 138.959 461.929C152.076 476.509 170.522 467.013 172.299 467.245C177.31 467.903 176.224 475.781 189.098 473.492C192.402 472.904 205.858 468.521 209.277 480.647C209.585 473.686 203.323 466.671 192.125 466.413C190.842 466.383 178.35 467.518 179.113 459.994C192.834 463.143 206.604 454.591 209.862 440.894C232.864 426.076 247.051 397.681 269.906 359.015C280.516 341.067 287.441 328.661 289.021 295.808C294.885 173.868 220.906 119.353 223.264 108.902Z" fill="white"/>
<mask id="mask0_0_226" style="mask-type:luminance" maskUnits="userSpaceOnUse" x="101" y="108" width="189" height="373">
<path d="M223.264 108.902C220.857 119.574 254.611 173.989 245.751 218.894C238.866 253.787 189.632 322.874 166.313 351.175C152.62 367.794 143.926 378.194 141.791 401.915C140.519 416.046 137.022 413.235 133.351 418.542C128.117 426.109 138.441 437.912 136.174 453.219C135.631 456.882 132.553 459.723 128.652 456.713C124.902 453.821 122.365 449.657 119.031 446.292C113.791 441.006 102.166 436.971 101.763 448.459C116.651 441.95 130.217 478.773 138.96 461.929C152.076 476.509 170.522 467.013 172.299 467.245C177.31 467.903 176.225 475.781 189.098 473.492C192.402 472.904 205.858 468.522 209.277 480.647C209.586 473.686 203.323 466.671 192.125 466.413C190.842 466.383 178.351 467.518 179.114 459.994C192.835 463.143 206.604 454.591 209.863 440.894C232.865 426.076 247.051 397.681 269.907 359.015C280.516 341.067 287.442 328.661 289.022 295.808C294.886 173.868 220.906 119.353 223.264 108.902Z" fill="white"/>
</mask>
<g mask="url(#mask0_0_226)">
<path d="M244.737 156.135C242.342 175.798 265.196 181.08 267.625 164.939C270.612 145.091 251.638 127.653 244.111 139.529C241.001 144.439 246.258 143.653 244.737 156.135Z" fill="#F58F05"/>
<path d="M253.428 187.609C263.081 192.452 259.422 206.337 248.622 203.697C245.174 202.854 242.35 200.226 240.639 197.115C235.249 187.301 245.638 183.699 253.428 187.609Z" fill="#F58F05"/>
<path d="M267.709 192.026C266.919 198.557 272.077 200.804 272.015 202.441C271.929 204.669 265.098 206.775 264.588 211.147C263.304 222.155 292.444 226.459 284.758 201.138C282.88 194.953 269.778 174.921 267.709 192.026Z" fill="#F58F05"/>
<path d="M258.678 233.183C261.051 231.797 266.483 225.573 269.464 228.359C272.831 231.502 262.864 238.052 267.779 240.23C273.456 242.747 281.726 222.285 289.768 236.214C295.89 246.815 293.65 259.353 291.354 261.792C286.648 266.792 280.332 256.986 276.155 255.749C273.081 254.84 271.061 257.149 273.482 260.527C275.971 264 280.032 267.306 279.215 271.5C278.167 276.875 262.696 283.227 263.727 272.34C264.026 269.175 264.888 257.234 262.447 255.124C260.67 253.587 257.752 254.656 256.303 256.507C254.854 258.356 254.315 260.746 253.238 262.834C249.706 269.681 242.723 266.509 244.147 258.528C244.877 254.43 247.198 249.766 246.08 245.547C244.822 240.796 240.551 240.601 237.948 237.255C230.276 227.393 257.218 208.716 258.878 220.647C259.57 225.621 253.861 225.308 252.171 228.667C249.958 233.066 254.905 235.385 258.678 233.183Z" fill="#F58F05"/>
<path d="M282.346 282.186C276.935 285.516 277.806 294.122 272.85 297.943C270.309 299.901 263.759 300.545 264.773 292.571C267.052 274.652 258.565 278.689 255.716 283.24C253.943 286.072 252.204 289.747 248.87 289.984C240.998 290.542 242.987 277.345 242.439 274.178C241.355 267.916 234.136 264.109 230.474 274.858C224.41 292.657 222.985 299.064 226.749 301.75C230.118 304.153 234.505 300.979 238.527 300.012C243.033 298.928 248.49 301.605 249.301 306.169C250.949 315.456 237.454 318.72 233.835 325.933C231.876 329.838 233.706 335.93 238.071 336.109C242.696 336.297 251.587 325.315 253.033 335.912C256.041 357.957 294.946 350.613 302.177 319.448C304.154 310.928 299.563 271.589 282.346 282.186Z" fill="#F58F05"/>
<path d="M217.621 283.323C216.495 289.14 209.559 295.799 213.214 301.775C217.113 308.151 229.842 305.097 224.966 319.562C218.526 338.664 208.497 325.95 204.467 331.732C203.465 333.168 203.727 335.102 203.333 336.808C202.301 341.264 196.608 343.379 192.276 341.91C183.299 338.863 179.097 324.602 179.523 314.963C180.333 296.603 201.136 269.51 208.745 270.154C214.496 270.641 218.635 278.088 217.621 283.323Z" fill="#F58F05"/>
<path d="M264.337 363.322C251.66 339.725 242.567 356.868 233.941 355.357C229.892 354.649 219.948 344.241 206.761 350.893C193.285 357.689 194.34 375.816 202.877 376.921C207.022 377.458 210.716 373.371 214.864 373.885C219.251 374.428 221.247 379.44 223.765 383.072C231.883 394.789 252.776 396.155 266.165 379.15C274.908 368.042 267.069 368.407 264.337 363.322Z" fill="#F58F05"/>
<path d="M183.072 366.792C183.818 376.642 191.05 386.243 200.813 387.737C208.388 388.897 211.851 385.542 231.165 395.472C249.255 404.773 243.142 415.356 238.294 416.66C226.4 407.235 224.805 414.18 219.396 413.61C213.379 412.978 211.946 401.655 205.462 403.273C199.937 404.654 201.543 414.036 197.823 420.991C193.133 429.76 186.005 426.344 183.578 426.398C176.518 426.553 173.907 435.693 170.084 439.896C160.351 450.591 142.393 442.592 143.835 428.203C144.437 422.194 148.573 416.883 148.72 410.845C148.824 406.567 146.904 402.519 146.186 398.302C143.731 383.894 156.523 387.47 159.769 385.139C162.191 383.4 162.468 379.752 161.306 377.007C157.558 368.145 142.812 365.426 155.73 344.672C164.915 329.914 163.514 330.318 168.971 332.732C188.827 341.516 182.249 355.918 183.072 366.792Z" fill="#F58F05"/>
</g>
<path d="M223.264 108.902C220.856 119.574 254.61 173.989 245.75 218.894C238.865 253.787 189.631 322.874 166.313 351.175C152.62 367.794 143.926 378.194 141.79 401.915C140.518 416.046 137.022 413.235 133.351 418.542C128.116 426.109 138.441 437.911 136.173 453.219C135.631 456.882 132.553 459.723 128.651 456.713C124.901 453.821 122.365 449.657 119.03 446.292C113.79 441.006 102.166 436.971 101.762 448.459C116.65 441.95 130.216 478.773 138.959 461.929C152.076 476.509 170.522 467.013 172.299 467.245C177.31 467.903 176.224 475.781 189.098 473.492C192.402 472.904 205.858 468.521 209.277 480.647C209.585 473.686 203.323 466.671 192.125 466.413C190.842 466.383 178.35 467.518 179.113 459.994C192.834 463.143 206.604 454.591 209.862 440.894C232.864 426.076 247.051 397.681 269.906 359.015C280.516 341.067 287.441 328.661 289.021 295.808C294.885 173.868 220.906 119.353 223.264 108.902Z" stroke="#39092C" stroke-width="1.5" stroke-miterlimit="10" stroke-linecap="round" stroke-linejoin="round"/>
<path d="M179.113 459.997C175.213 457.015 174.4 449.493 178.985 444.946" stroke="#39092C" stroke-width="1.5" stroke-miterlimit="10" stroke-linecap="round" stroke-linejoin="round"/>
<path d="M197.222 429.857C203.512 429.561 210.035 434.603 209.861 440.897" stroke="#39092C" stroke-width="1.5" stroke-miterlimit="10" stroke-linecap="round" stroke-linejoin="round"/>
<path d="M182.733 450.596C183.058 434.611 211.144 429.829 204.32 444.883C200.177 454.024 182.492 462.439 182.733 450.596Z" fill="#F52F06"/>
<path d="M197.008 441.681C203.674 440.846 199.278 452.37 191.087 451.68C185.986 451.249 189.786 442.584 197.008 441.681Z" fill="#39092C"/>
<path d="M182.733 450.596C183.058 434.611 211.144 429.829 204.32 444.883C200.177 454.024 182.492 462.439 182.733 450.596Z" stroke="#39092C" stroke-width="1.5" stroke-miterlimit="10" stroke-linecap="round" stroke-linejoin="round"/>
<path d="M135.917 442.218C134.976 435.267 136.856 427.731 139.682 421.312" stroke="#39092C" stroke-width="1.5" stroke-miterlimit="10" stroke-linecap="round" stroke-linejoin="round"/>
<path d="M253.034 214.575C253.554 191.547 248.731 182.826 239.53 160.934C240.904 178.815 241.21 179.862 240.336 182.2C239.12 185.446 235.469 187.563 235.015 190.999C234.5 194.893 238.358 198.084 238.794 201.988C239.431 207.709 232.671 212.276 233.275 218C233.671 221.759 237.175 224.593 237.724 228.334C238.876 236.18 226.918 241.631 228.524 249.397C228.871 251.075 229.847 252.557 230.328 254.201C232.669 262.219 222.937 269.079 222.633 277.426C222.526 280.374 223.624 283.213 224.218 286.102C226.392 296.677 220.602 307.469 217.77 317.424C230.789 303.697 252.011 259.957 253.034 214.575Z" fill="#F52F06"/>
<path d="M253.034 214.575C253.554 191.547 248.731 182.826 239.53 160.934C240.904 178.815 241.21 179.862 240.336 182.2C239.12 185.446 235.469 187.563 235.015 190.999C234.5 194.893 238.358 198.084 238.794 201.988C239.431 207.709 232.671 212.276 233.275 218C233.671 221.759 237.175 224.593 237.724 228.334C238.876 236.18 226.918 241.631 228.524 249.397C228.871 251.075 229.847 252.557 230.328 254.201C232.669 262.219 222.937 269.079 222.633 277.426C222.526 280.374 223.624 283.213 224.218 286.102C226.392 296.677 220.602 307.469 217.77 317.424C230.789 303.697 252.011 259.957 253.034 214.575Z" stroke="#39092C" stroke-width="1.5" stroke-miterlimit="10" stroke-linecap="round" stroke-linejoin="round"/>
<path d="M240.335 182.2C248.522 190.599 251.049 197.318 253.049 208.928" stroke="#39092C" stroke-width="1.5" stroke-miterlimit="10" stroke-linecap="round" stroke-linejoin="round"/>
<path d="M238.794 201.988C246.466 210.531 249.348 217.784 252.206 227.569" stroke="#39092C" stroke-width="1.5" stroke-miterlimit="10" stroke-linecap="round" stroke-linejoin="round"/>
<path d="M235.146 222.676C242.746 230.983 246.336 236.278 249.351 245.85" stroke="#39092C" stroke-width="1.5" stroke-miterlimit="10" stroke-linecap="round" stroke-linejoin="round"/>
<path d="M234.221 237.287C240.306 245.359 244.831 254.952 244.364 265.049" stroke="#39092C" stroke-width="1.5" stroke-miterlimit="10" stroke-linecap="round" stroke-linejoin="round"/>
<path d="M230.669 256.183C234.807 263.785 238.112 271.949 239.489 278.929" stroke="#39092C" stroke-width="1.5" stroke-miterlimit="10" stroke-linecap="round" stroke-linejoin="round"/>
<path d="M223.368 273.66C229.173 282.32 231.289 292.889 231.656 296.347" stroke="#39092C" stroke-width="1.5" stroke-miterlimit="10" stroke-linecap="round" stroke-linejoin="round"/>
<path d="M262.121 315.969C257.757 313.343 253.992 318.366 257.171 318.531C260.282 318.692 261.28 321.801 262.577 322.269C264.702 323.033 266.221 318.435 262.121 315.969Z" fill="#F55F06"/>
<path d="M279.333 309.342C277.401 306.48 271.751 306.526 273.94 308.117C276.698 310.121 276.581 313.977 277.71 315.143C279.451 316.938 282.73 314.373 279.333 309.342Z" fill="#F55F06"/>
<path d="M240.325 363.06C238.506 364.652 242.357 363.468 246.323 368.174C247.435 369.494 249.324 368.46 249.237 366.886C249.025 363.013 243.306 360.449 240.325 363.06Z" fill="#F55F06"/>
<path d="M211.763 363.449C210.467 364.46 211.774 366.594 213.274 365.912C216.143 364.607 217.745 366.86 219.355 366.429C223.418 365.339 217.544 358.938 211.763 363.449Z" fill="#F55F06"/>
<path d="M238.609 377.271C235.885 375.01 232.035 377.909 233.927 378.965C234.975 379.55 234.05 378.799 236.426 380.281C237.062 380.678 238.682 384.337 240.144 382.231C241.313 380.546 239.958 378.392 238.609 377.271Z" fill="#F55F06"/>
<path d="M195.731 324.474C194.745 325.177 195.762 326.565 196.788 326.198C198.49 325.589 201.481 326.954 201.637 327.038C202.18 327.335 202.552 327.821 203.05 328.169C206.591 330.643 203.307 319.077 195.731 324.474Z" fill="#F55F06"/>
<path d="M208.574 310.853C205.16 308.615 202.759 312.046 204.824 313.021C206.569 313.846 206.523 312.42 208.683 314.902C210.098 316.529 212.058 313.136 208.574 310.853Z" fill="#F55F06"/>
<path d="M174.077 386.41C170.729 385.903 169.702 389.262 170.578 388.78C170.535 388.641 171.85 388.784 173.23 389.353C175.392 390.243 174.534 390.752 175.831 391.375C178.162 392.489 178.761 387.12 174.077 386.41Z" fill="#F55F06"/>
<path d="M163.665 365.552C163.517 367.878 166.169 363.863 169.582 366.528C170.816 367.492 172.19 366.028 171.771 364.758C170.56 361.098 163.921 361.549 163.665 365.552Z" fill="#F55F06"/>
<path d="M190.883 402.544C186.061 399.652 183.436 405.294 185.794 404.253C186.89 403.769 189.134 405.997 189.804 406.876C190.179 407.366 190.672 409.58 192.074 408.497C194.031 406.985 192.596 403.571 190.883 402.544Z" fill="#F55F06"/>
<path d="M216.688 394.989C212.467 393.215 209.406 397.475 212.106 397.251C213.299 397.152 216.866 400.648 218.052 400.811C220.422 401.136 221.284 396.923 216.688 394.989Z" fill="#F55F06"/>
<path d="M160.849 405.23C155.917 404.514 154.77 408.853 156.863 407.992C158.594 407.281 162.579 409.586 162.949 409.697C165.798 410.546 164.806 405.805 160.849 405.23Z" fill="#F55F06"/>
<path d="M183.632 415.151C182.063 413.438 179.044 412.976 177.336 415.587C176.671 416.604 177.686 418.02 178.87 417.483C182.182 415.981 179.243 422.008 182.244 421.351C184.896 420.769 185.246 416.912 183.632 415.151Z" fill="#F55F06"/>
<path d="M161.279 423.783C157.825 421.302 153.646 425.693 156.847 426.083C160.033 426.47 160.536 431.04 162.33 428.985C163.669 427.453 162.733 424.828 161.279 423.783Z" fill="#F55F06"/>
<path d="M260.889 243.399C257.985 242.492 256.084 244.949 257.896 244.899C259.163 244.863 260.383 246.121 260.912 247.18C261.551 248.461 263.276 247.855 263.225 246.512C263.174 245.166 262.202 243.809 260.889 243.399Z" fill="#F55F06"/>
<path d="M275.775 247.588C273.098 245.912 269.071 248.265 271.034 248.074C273.911 247.794 274.29 254.867 276.434 252.93C277.904 251.601 277.34 248.566 275.775 247.588Z" fill="#F55F06"/>
<path d="M272.316 213.221C270.255 212.711 269.28 214.655 270.724 215.081C270.994 216.43 271.689 217.376 272.759 217.168C274.86 216.759 274.792 213.831 272.316 213.221Z" fill="#F55F06"/>
<path d="M253.615 164.037C249.468 159.177 247.818 160.961 249.679 164.503C252.102 169.12 255.127 165.81 253.615 164.037Z" fill="#F55F06"/>
<path d="M250.537 294.823C249.219 295.543 250.056 297.455 251.48 296.958C253.899 296.111 257.531 297.929 257.774 297.984C260.611 298.629 257.004 291.292 250.537 294.823Z" fill="#F55F06"/>
<path d="M268.857 329.337C267.826 328.94 266.7 330.291 267.531 331.161C268.959 332.655 269.384 335.025 269.475 335.33C271.491 342.003 276.266 332.187 268.857 329.337Z" fill="#F55F06"/>
<path d="M211.634 435.107C207.835 427.381 201.323 426.198 200.748 425.027C199.121 421.715 218.832 417.368 225.385 417.746C223.891 425.238 218.348 431.793 211.21 434.514C212.569 435.072 210.218 435.494 211.634 435.107Z" fill="#D3D8F7"/>
<path d="M148.572 461.274C151.77 462.15 155.165 461.82 158.447 461.35C162.574 460.76 166.671 459.959 170.716 458.951C166.746 455.797 161.063 456.584 156.051 457.357C151.219 458.102 146.7 458.001 142.294 455.843C143.131 458.66 145.643 460.472 148.572 461.274Z" fill="#D3D8F7"/>
</g>
</svg>
