<svg width="308" height="149" viewBox="0 0 308 149" fill="none" xmlns="http://www.w3.org/2000/svg">
<path d="M2.36572 12.7829C10.7741 12.7829 25.0408 9.62506 31.1971 16.9652C36.4714 23.2538 31.9019 32.1675 33.1547 39.3896C34.0016 44.2716 35.8583 49.3935 39.2058 53.0933C43.6123 57.9637 52.1087 62.9131 53.4435 69.8226C55.2767 79.3126 53.7727 89.7557 52.8206 99.2769M50.418 2.37134C65.3842 2.37134 69.6389 16.6767 69.6389 28.8891C69.6389 42.4922 75.6217 55.3688 76.8467 68.8436M116.89 127.307C127.944 125.926 138.034 122.447 149.414 122.636C158.158 122.78 167.071 123.961 174.82 128.286C180.328 131.36 184.344 136.277 189.369 139.988C196.28 145.091 203.862 148.333 212.55 145.638C220.322 143.228 229.74 134.685 233.194 127.129C234.517 124.236 236.608 121.612 238.178 118.854C241.33 113.315 243.776 105.068 248.455 100.612C249.439 99.6747 251.877 101.379 253.038 101.501C257.141 101.933 260.816 98.7795 262.96 95.6284C272.614 81.4434 271.03 62.5906 280.713 48.1991C287.361 38.3186 295.879 29.5685 305.896 23.1941M188.168 102.48C197.797 103.709 209.402 100.675 216.109 93.3147C222.962 85.7953 220.833 74.9151 217.533 66.352C214.676 58.9388 218.524 56.027 225.097 51.8474C235.938 44.9538 246.596 38.976 256.242 30.4019" stroke="#86E5FF" stroke-width="3" stroke-linecap="round"/>
</svg>
