<svg width="54" height="65" viewBox="0 0 54 65" fill="none" xmlns="http://www.w3.org/2000/svg">
<path d="M12.14 7.44082C17.7415 1.83934 24.81 0.438965 27.6441 0.438965V18.8672C25.4387 18.8672 24.3912 19.9186 24.1432 20.4443C13.7404 16.0431 8.47236 7.60753 7.13867 3.93989C8.33899 5.54032 10.973 6.94069 12.14 7.44082Z" fill="white"/>
<path d="M42.775 7.44082C37.1736 1.83934 30.105 0.438965 27.2709 0.438965V18.8672C29.4764 18.8672 30.5238 19.9186 30.7719 20.4443C41.1746 16.0431 46.4427 7.60753 47.7764 3.93989C46.576 5.54032 43.942 6.94069 42.775 7.44082Z" fill="white"/>
<path d="M15.3894 19.0223C16.967 20.2117 20.5178 22.7303 22.1002 23.2889C19.0874 24.2327 13.5274 24.7007 15.3894 19.0223Z" fill="white"/>
<path d="M12.5583 16.5399C11.5653 15.7951 9.84313 13.411 9.10617 12.312C6.24148 15.1767 5.93019 20.8235 6.13263 23.2889C6.13263 41.8995 2.65424 50.5936 0.915039 52.6143L8.28329 46.9847L13.2721 55.2232L19.0742 50.1785L27.4809 64.1939V59.5756L24.7132 50.1785C22.4476 40.1891 15.4588 35.7439 12.2475 34.77L19.0742 30.8913L19.3069 27.6719C10.091 27.6719 10.9678 20.2505 12.5583 16.5399Z" fill="white"/>
<path d="M39.5256 19.0223C37.948 20.2117 34.3972 22.7303 32.8149 23.2889C35.8276 24.2327 41.3877 24.7007 39.5256 19.0223Z" fill="white"/>
<path d="M42.3568 16.5399C43.3497 15.7951 45.0719 13.411 45.8089 12.312C48.6736 15.1767 48.9848 20.8236 48.7824 23.2889C48.7824 41.8995 52.2608 50.5936 54 52.6143L46.6318 46.9847L41.6429 55.2232L35.8409 50.1785L27.4341 64.1939V59.5756L30.2018 50.1785C32.4674 40.1891 39.4563 35.7439 42.6675 34.77L35.8409 30.8913L35.6082 27.6719C44.8241 27.6719 43.9472 20.2505 42.3568 16.5399Z" fill="white"/>
<path d="M22.9619 28.6368C22.9619 24.9578 26.0988 23.1468 27.6672 22.7012V48.3686C27.6672 41.6523 22.1775 36.5509 19.4326 34.8397L22.9619 32.6473V28.6368Z" fill="white"/>
<path d="M32.3716 28.6368C32.3716 24.9578 29.2347 23.1468 27.6663 22.7012V48.3686C27.6663 41.6523 33.156 36.5509 35.9009 34.8397L32.3716 32.6473V28.6368Z" fill="white"/>
</svg>
