<svg width="1920" height="1591" viewBox="0 0 1920 1591" fill="none" xmlns="http://www.w3.org/2000/svg">
<g opacity="0.2">
<mask id="mask0_0_5" style="mask-type:alpha" maskUnits="userSpaceOnUse" x="-47" y="0" width="2015" height="1591">
<rect x="-47" width="2015" height="1591" fill="url(#paint0_linear_0_5)"/>
</mask>
<g mask="url(#mask0_0_5)">
<mask id="mask1_0_5" style="mask-type:luminance" maskUnits="userSpaceOnUse" x="-399" y="-220" width="2718" height="1812">
<path d="M2319 -220H-399V1592H2319V-220Z" fill="white"/>
</mask>
<g mask="url(#mask1_0_5)">
<path d="M756.195 258.386L606.129 9.27225L538.247 -103.434L444.861 -258.469L385.242 -357.404H415.503L756.195 258.386Z" fill="white"/>
<path d="M578.001 415.338L322.509 274.114L208.136 210.875L49.8758 123.392L-57.3548 64.1034L-484.447 -172V-224.186L578.001 415.338Z" fill="white"/>
<path d="M502.151 640.388L210.818 645.788L80.0275 648.216L-100.158 651.586L-225.041 653.909L-484.447 658.729V622.381L502.151 640.388Z" fill="white"/>
<path d="M548.973 873.194L299.135 1023.7L187.334 1091.04L32.5894 1184.28L-74.4238 1248.75L-484.447 1495.73V1444.96L548.973 873.194Z" fill="white"/>
<path d="M705.964 1051.43L565.027 1306.34L502.549 1419.37L415.464 1576.87L353.566 1688.82L349.507 1696.21H317.834L705.964 1051.43Z" fill="white"/>
<path d="M941.561 1696.21H920.614L930.979 1127.24L936.379 1418.43L938.807 1548.93L941.561 1696.21Z" fill="white"/>
<path d="M1534.78 1696.21H1504.51L1163.82 1080.42L1314.04 1329.75L1380.97 1440.9L1473.75 1594.92L1534.78 1696.21Z" fill="white"/>
<path d="M2404.46 1510.8V1562.99L1342.01 923.459L1596.39 1064.07L1711.34 1127.64L1869.02 1214.8L1973.29 1272.45L2404.46 1510.8Z" fill="white"/>
<path d="M2404.46 680.071V716.424L1417.87 698.412L1707.86 693.013L1838.29 690.585L2018.26 687.25L2133.32 685.112L2404.46 680.071Z" fill="white"/>
<path d="M2404.46 -156.961V-106.152L1371.04 465.606L1620.7 315.21L1732.5 247.84L1887.07 154.74L1989.41 93.0953L2404.46 -156.961Z" fill="white"/>
<path d="M1602.18 -357.404L1214.05 287.378L1354.41 33.5168L1417.32 -80.2768L1504.22 -237.522L1559.82 -338.088L1570.5 -357.404H1602.18Z" fill="white"/>
<path d="M806.025 7.17038L702.813 -357.404H713.722L806.025 7.17038Z" fill="white"/>
<path d="M748.873 23.1159L703.392 -96.621L633.376 -280.829L604.275 -357.404H616.307L748.873 23.1159Z" fill="white"/>
<path d="M693.355 43.9902L499.253 -357.404H512.916L693.355 43.9902Z" fill="white"/>
<path d="M639.865 69.6119L574.053 -40.7389L473.052 -210.125L385.243 -357.404H401.152L606.129 9.27228L639.865 69.6119Z" fill="white"/>
<path d="M588.801 99.7998L258.944 -357.404H278.01L588.801 99.7998Z" fill="white"/>
<path d="M540.567 134.3L456.925 37.3909L328.128 -111.733L116.016 -357.404H139.463L540.567 134.3Z" fill="white"/>
<path d="M495.518 172.896L-49.9629 -357.404H-20.2859L495.518 172.896Z" fill="white"/>
<path d="M454.026 215.297L355.562 135.025L203.136 10.7219L-248.342 -357.404H-209.601L454.026 215.297Z" fill="white"/>
<path d="M416.371 261.104L-484.447 -350.881V-357.404H-441.394L416.371 261.104Z" fill="white"/>
<path d="M382.849 310.064L271.991 248.13L100.467 152.308L-57.3545 64.1034L-484.447 -174.537V-206.863L322.51 274.114L382.849 310.064Z" fill="white"/>
<path d="M353.712 361.706L-484.447 -14.8273V-43.3481L353.712 361.706Z" fill="white"/>
<path d="M329.214 415.74L210.129 374.278L26.3563 310.318L-484.447 132.521V106.758L329.214 415.74Z" fill="white"/>
<path d="M309.499 471.658L-484.447 270.889V247.079L309.499 471.658Z" fill="white"/>
<path d="M294.75 529.135L170.341 508.982L-22.459 477.783L-484.447 403.016V380.587L294.75 529.135Z" fill="white"/>
<path d="M285.037 587.626L-484.447 531.237V509.562L285.037 587.626Z" fill="white"/>
<path d="M280.471 646.77L153.378 648.542L-41.7749 651.3L-225.041 653.909L-484.447 657.566V636.148L210.818 645.788L280.471 646.77Z" fill="white"/>
<path d="M281.087 706.095L-484.447 783.935V762.412L281.087 706.095Z" fill="white"/>
<path d="M286.886 765.13L164.032 788.577L-26.3729 824.926L-484.447 912.373V890.158L286.886 765.13Z" fill="white"/>
<path d="M297.758 823.44L-484.447 1044.86V1021.46L297.758 823.44Z" fill="white"/>
<path d="M313.703 880.554L195.09 925.637L12.1864 995.145L-484.447 1183.85V1158.58L313.703 880.554Z" fill="white"/>
<path d="M334.577 936.074L-484.447 1332.14V1304.27L334.577 936.074Z" fill="white"/>
<path d="M360.199 989.564L251.298 1054.51L83.2893 1154.67L-74.4236 1248.75L-484.447 1493.22V1461.74L299.135 1023.7L360.199 989.564Z" fill="white"/>
<path d="M390.387 1040.62L-484.447 1671.75V1635.28L390.387 1040.62Z" fill="white"/>
<path d="M424.928 1088.86L329.106 1171.59L181.609 1298.95L-278.494 1696.21H-319.59L424.928 1088.86Z" fill="white"/>
<path d="M463.482 1133.91L-83.1618 1696.21H-114.618L463.482 1133.91Z" fill="white"/>
<path d="M505.884 1175.4L426.482 1272.78L303.23 1423.94L81.2597 1696.21H56.4353L505.884 1175.4Z" fill="white"/>
<path d="M551.692 1213.06L223.467 1696.21H203.317L551.692 1213.06Z" fill="white"/>
<path d="M600.653 1246.58L539.734 1355.62L445.111 1524.97L353.569 1688.82L349.437 1696.21H332.695L565.029 1306.34L600.653 1246.58Z" fill="white"/>
<path d="M652.292 1275.72L463.409 1696.21H449.094L652.292 1275.72Z" fill="white"/>
<path d="M706.327 1300.21L665.085 1418.65L600.868 1603.14L568.47 1696.21H555.967L706.327 1300.21Z" fill="white"/>
<path d="M762.284 1319.93L667.117 1696.21H655.847L762.284 1319.93Z" fill="white"/>
<path d="M819.721 1334.71L799.72 1458.29L768.55 1650.87L761.229 1696.21H750.796L819.721 1334.71Z" fill="white"/>
<path d="M878.214 1344.39L852.415 1696.21H842.518L878.214 1344.39Z" fill="white"/>
<path d="M942.032 1696.21L942.177 1729.4L941.561 1696.21H932.537L936.379 1418.43L937.357 1348.96L939.133 1476.05L941.923 1672.25L942.253 1696.21H942.032Z" fill="white"/>
<path d="M1032.05 1696.21H1022.27L996.683 1348.34L1032.05 1696.21Z" fill="white"/>
<path d="M1123.23 1696.21H1113.05L1055.72 1342.58L1079.64 1467.93L1116.46 1660.69L1123.23 1696.21Z" fill="white"/>
<path d="M1217.24 1696.21H1206.29L1114.03 1331.67L1217.24 1696.21Z" fill="white"/>
<path d="M1315.74 1696.21H1303.67L1171.14 1315.72L1216.51 1435.14L1286.53 1619.38L1315.74 1696.21Z" fill="white"/>
<path d="M1420.77 1696.21H1407.1L1226.66 1294.85L1420.77 1696.21Z" fill="white"/>
<path d="M1534.78 1696.21H1518.86L1314.03 1329.75L1280.19 1269.23L1344.84 1377.62L1445.01 1545.67L1534.78 1696.21Z" fill="white"/>
<path d="M1661.03 1696.21H1641.97L1331.22 1239.04L1661.03 1696.21Z" fill="white"/>
<path d="M1804.01 1696.21H1780.55L1379.45 1204.54L1463.02 1301.34L1591.16 1449.74L1804.01 1696.21Z" fill="white"/>
<path d="M1969.95 1696.21H1940.26L1424.5 1165.94L1969.95 1696.21Z" fill="white"/>
<path d="M2168.36 1696.21H2129.58L1466.03 1123.58L1564.85 1204.17L1717.1 1328.3L2168.36 1696.21Z" fill="white"/>
<path d="M2404.46 1689.72V1696.21H2361.41L1503.68 1077.74L2404.46 1689.72Z" fill="white"/>
<path d="M2404.46 1513.34V1545.67L1596.38 1064.07L1537.2 1028.81L1649.15 1091.33L1820.6 1187.14L1973.28 1272.45L2404.46 1513.34Z" fill="white"/>
<path d="M2404.46 1353.66V1382.18L1566.31 977.134L2404.46 1353.66Z" fill="white"/>
<path d="M2404.46 1206.35V1232.08L1590.84 923.136L1712.64 965.537L1899.64 1030.62L2404.46 1206.35Z" fill="white"/>
<path d="M2404.46 1067.95V1091.76L1610.52 867.178L2404.46 1067.95Z" fill="white"/>
<path d="M2404.46 935.784V958.253L1625.3 809.705L1750.77 829.996L1945.2 861.456L2404.46 935.784Z" fill="white"/>
<path d="M2404.46 807.603V829.271L1634.98 751.21L2404.46 807.603Z" fill="white"/>
<path d="M2404.46 681.267V702.688L1707.86 693.012L1639.55 692.07L1766.93 690.258L1963.85 687.504L2133.32 685.112L2404.46 681.267Z" fill="white"/>
<path d="M2404.46 554.898V576.428L1638.93 632.745L2404.46 554.898Z" fill="white"/>
<path d="M2404.46 426.467V448.715L1633.17 573.71L1758.48 549.788L1951.79 512.863L2404.46 426.467Z" fill="white"/>
<path d="M2404.46 293.974V317.385L1622.26 515.4L2404.46 293.974Z" fill="white"/>
<path d="M2404.46 154.993V180.252L1606.31 458.282L1726.89 412.475L1912.43 341.952L2404.46 154.993Z" fill="white"/>
<path d="M2404.46 6.69922V34.5678L1585.44 402.766L2404.46 6.69922Z" fill="white"/>
<path d="M2404.46 -154.391V-122.931L1620.7 315.21L1559.82 349.236L1668.97 284.153L1837.88 183.442L1989.41 93.0955L2404.46 -154.391Z" fill="white"/>
<path d="M2404.46 -332.906V-296.448L1529.63 298.214L2404.46 -332.906Z" fill="white"/>
<path d="M2239.68 -357.404L1495.13 249.978L1593.01 165.467L1743.08 35.9087L2198.59 -357.404H2239.68Z" fill="white"/>
<path d="M2034.67 -357.404L1456.53 204.932L2003.22 -357.404H2034.67Z" fill="white"/>
<path d="M1863.62 -357.404L1414.17 163.401L1494.69 64.6107L1619.47 -88.3982L1838.83 -357.404H1863.62Z" fill="white"/>
<path d="M1716.74 -357.404L1368.32 125.748L1696.59 -357.404H1716.74Z" fill="white"/>
<path d="M1587.36 -357.404L1354.41 33.5168L1319.4 92.2256L1381.3 -18.5963L1477.23 -190.265L1559.82 -338.088L1570.62 -357.404H1587.36Z" fill="white"/>
<path d="M1470.96 -357.404L1267.72 63.1249L1456.64 -357.404H1470.96Z" fill="white"/>
<path d="M1364.05 -357.404L1213.69 38.5868L1255.07 -80.2441L1319.44 -265.213L1351.54 -357.404H1364.05Z" fill="white"/>
<path d="M1264.21 -357.404L1157.77 18.8759L1252.94 -357.404H1264.21Z" fill="white"/>
<path d="M1169.22 -357.404L1100.29 4.12619L1120.37 -120.032L1151.57 -312.684L1158.79 -357.404H1169.22Z" fill="white"/>
<path d="M978.418 -357.404H981.829L981.176 -210.27L980.846 -138.877L979.904 69.1408L978.056 -336.131L977.947 -357.404" fill="white"/>
<path d="M958.955 68.8146L942.107 -357.404H945.981L958.955 68.8146Z" fill="white"/>
<path d="M938.01 69.2132L906.228 -357.404H910.106L938.01 69.2132Z" fill="white"/>
<path d="M896.188 72.2212L833.783 -357.404H837.773L896.188 72.2212Z" fill="white"/>
<path d="M875.385 74.8268L803.087 -324.426L797.147 -357.404H801.166L840.196 -130.107L875.385 74.8268Z" fill="white"/>
<path d="M854.695 78.1283L760.036 -357.404H764.167L854.695 78.1283Z" fill="white"/>
<path d="M834.109 82.1509L722.381 -357.404H726.625L834.109 82.1509Z" fill="white"/>
<path d="M813.707 86.8983L684.113 -357.404H688.462L813.707 86.8983Z" fill="white"/>
<path d="M773.409 98.5314L633.378 -280.829L605.11 -357.404H609.785L703.393 -96.621L773.409 98.5314Z" fill="white"/>
<path d="M753.619 105.381L564.16 -357.404H569.049L753.619 105.381Z" fill="white"/>
<path d="M714.771 121.181L478.631 -357.404H483.995L714.771 121.181Z" fill="white"/>
<path d="M695.783 130.06L433.731 -357.404H439.385L695.783 130.06Z" fill="white"/>
<path d="M677.118 139.624L473.051 -210.125L444.859 -258.469L387.125 -357.404H393.141L538.246 -103.434L574.051 -40.7389L677.118 139.624Z" fill="white"/>
<path d="M640.84 160.647L287.975 -357.404H294.785L640.84 160.647Z" fill="white"/>
<path d="M623.302 172.099L234.882 -357.404H242.239L623.302 172.099Z" fill="white"/>
<path d="M589.415 196.778L328.125 -111.733L120.071 -357.404H128.624L456.922 37.3909L589.415 196.778Z" fill="white"/>
<path d="M573.144 210.006L57.5571 -357.404H66.8345L573.144 210.006Z" fill="white"/>
<path d="M557.346 223.777L-9.01245 -357.404H1.13476L557.346 223.777Z" fill="white"/>
<path d="M527.264 252.95L-156.871 -357.404H-144.517L527.264 252.95Z" fill="white"/>
<path d="M512.987 268.316L203.135 10.7219L-239.682 -357.404H-225.947L355.56 135.025L512.987 268.316Z" fill="white"/>
<path d="M486.097 300.461L-428.13 -357.404H-410.879L486.097 300.461Z" fill="white"/>
<path d="M461.526 334.414L-484.447 -250.677V-262.6L461.526 334.414Z" fill="white"/>
<path d="M450.111 352.03L100.467 152.308L49.876 123.392L-484.447 -181.861V-193.128L208.136 210.875L271.991 248.13L450.111 352.03Z" fill="white"/>
<path d="M439.347 370.005L-484.447 -115.792V-126.519L439.347 370.005Z" fill="white"/>
<path d="M419.741 407.079L-484.447 9.41733V-0.371094L419.741 407.079Z" fill="white"/>
<path d="M402.781 445.384L26.3563 310.318L-484.447 127.016V117.956L210.129 374.278L402.781 445.384Z" fill="white"/>
<path d="M395.279 464.99L-484.447 183.587V174.78L395.279 464.99Z" fill="white"/>
<path d="M388.503 484.81L-484.447 238.813V230.224L388.503 484.81Z" fill="white"/>
<path d="M382.414 504.854L-484.447 292.923V284.584L382.414 504.854Z" fill="white"/>
<path d="M372.34 545.548L-22.459 477.783L-484.447 398.486V390.517L170.341 508.982L372.34 545.548Z" fill="white"/>
<path d="M368.353 566.136L-484.447 450.241V442.373L368.353 566.136Z" fill="white"/>
<path d="M362.627 607.667L-484.447 552.329V544.606L362.627 607.667Z" fill="white"/>
<path d="M359.764 649.488L-41.7749 651.3L-100.158 651.587L-484.447 653.326V645.719L80.0277 648.216L153.378 648.542L359.764 649.488Z" fill="white"/>
<path d="M359.438 670.435L-484.447 703.772V696.129L359.438 670.435Z" fill="white"/>
<path d="M359.837 691.414L-484.447 754.327V746.644L359.837 691.414Z" fill="white"/>
<path d="M360.96 712.328L-484.447 805.099V797.347L360.96 712.328Z" fill="white"/>
<path d="M362.845 733.199L-484.447 856.237V848.409L362.845 733.199Z" fill="white"/>
<path d="M365.418 754.004L-26.373 824.926L-484.447 907.843V899.939L164.032 788.577L365.418 754.004Z" fill="white"/>
<path d="M372.774 795.278L-484.447 1013.19V1004.93L372.774 795.278Z" fill="white"/>
<path d="M382.994 835.943L-484.447 1122.16V1113.51L382.994 835.943Z" fill="white"/>
<path d="M389.155 855.98L12.1864 995.145L-484.447 1178.45V1169.5L195.09 925.637L389.155 855.98Z" fill="white"/>
<path d="M396.004 875.767L-484.447 1236.21V1226.9L396.004 875.767Z" fill="white"/>
<path d="M411.769 914.62L-484.447 1356.82V1346.78L411.769 914.62Z" fill="white"/>
<path d="M420.684 933.606L-484.447 1420.2V1409.66L420.684 933.606Z" fill="white"/>
<path d="M430.218 952.273L83.2893 1154.67L32.5895 1184.28L-484.447 1485.94V1474.89L187.334 1091.04L251.298 1054.51L430.218 952.273Z" fill="white"/>
<path d="M440.435 970.571L-484.447 1554.4V1542.77L440.435 970.571Z" fill="white"/>
<path d="M451.234 988.513L-484.447 1625.9V1613.54L451.234 988.513Z" fill="white"/>
<path d="M474.758 1023.23L-378.552 1696.21H-394.643L474.758 1023.23Z" fill="white"/>
<path d="M487.4 1039.97L181.607 1298.95L-287.48 1696.21H-301.831L329.104 1171.59L487.4 1039.97Z" fill="white"/>
<path d="M500.63 1056.21L-203.659 1696.21H-216.596L500.63 1056.21Z" fill="white"/>
<path d="M528.716 1087.34L-53.9143 1696.21H-64.5688L528.716 1087.34Z" fill="white"/>
<path d="M558.903 1116.4L303.229 1423.94L76.9107 1696.21H67.9231L426.482 1272.78L558.903 1116.4Z" fill="white"/>
<path d="M574.777 1130.1L136.636 1696.21H128.409L574.777 1130.1Z" fill="white"/>
<path d="M591.084 1143.29L193.205 1696.21H185.558L591.084 1143.29Z" fill="white"/>
<path d="M625.04 1167.86L298.227 1696.21H291.599L625.04 1167.86Z" fill="white"/>
<path d="M642.618 1179.24L445.109 1524.97L415.465 1576.87L347.298 1696.21H341.064L502.55 1419.37L539.732 1355.62L642.618 1179.24Z" fill="white"/>
<path d="M678.965 1200.15L439.818 1696.21H434.273L678.965 1200.15Z" fill="white"/>
<path d="M716.692 1218.46L526.179 1696.21H521.178L716.692 1218.46Z" fill="white"/>
<path d="M735.973 1226.61L600.87 1603.14L567.493 1696.21H562.673L665.088 1418.65L735.973 1226.61Z" fill="white"/>
<path d="M755.576 1234.07L607.753 1696.21H603.118L755.576 1234.07Z" fill="white"/>
<path d="M775.404 1240.89L647.111 1696.21H642.617L775.404 1240.89Z" fill="white"/>
<path d="M795.48 1246.98L685.633 1696.21H681.324L795.48 1246.98Z" fill="white"/>
<path d="M815.736 1252.37L723.506 1696.21H719.302L815.736 1252.37Z" fill="white"/>
<path d="M836.138 1257.05L768.55 1650.87L760.795 1696.21H756.664L799.72 1458.29L836.138 1257.05Z" fill="white"/>
<path d="M898.253 1266.76L870.203 1696.21H866.29L898.253 1266.76Z" fill="white"/>
<path d="M942.176 1729.4L941.56 1696.21H938.154L938.806 1548.93L939.132 1476.05L940.075 1269.63L941.923 1672.25L942.032 1696.21L942.176 1729.4Z" fill="white"/>
<path d="M1013.79 1696.21H1009.91L982.006 1269.55L1013.79 1696.21Z" fill="white"/>
<path d="M1049.88 1696.21H1045.97L1002.95 1268.43L1049.88 1696.21Z" fill="white"/>
<path d="M1122.87 1696.21H1118.85L1079.64 1467.93L1044.63 1263.97L1116.45 1660.69L1122.87 1696.21Z" fill="white"/>
<path d="M1197.6 1696.21H1193.39L1085.87 1256.62L1197.6 1696.21Z" fill="white"/>
<path d="M1235.94 1696.21H1231.56L1106.31 1251.87L1235.94 1696.21Z" fill="white"/>
<path d="M1314.91 1696.21H1310.23L1216.51 1435.14L1146.57 1240.24L1286.53 1619.38L1314.91 1696.21Z" fill="white"/>
<path d="M1355.82 1696.21H1350.93L1166.36 1233.39L1355.82 1696.21Z" fill="white"/>
<path d="M1441.35 1696.21H1435.99L1205.21 1217.62L1441.35 1696.21Z" fill="white"/>
<path d="M1532.85 1696.21H1526.84L1380.97 1440.9L1344.84 1377.62L1242.86 1199.17L1445.01 1545.67L1473.75 1594.92L1532.85 1696.21Z" fill="white"/>
<path d="M1581.34 1696.21H1574.96L1261.16 1188.99L1581.34 1696.21Z" fill="white"/>
<path d="M1685.1 1696.21H1677.78L1296.68 1166.71L1685.1 1696.21Z" fill="white"/>
<path d="M1799.91 1696.21H1791.35L1463.02 1301.34L1330.56 1142.03L1591.16 1449.74L1799.91 1696.21Z" fill="white"/>
<path d="M1862.46 1696.21H1853.18L1346.83 1128.8L1862.46 1696.21Z" fill="white"/>
<path d="M2000.28 1696.21H1989.12L1377.93 1100.68L2000.28 1696.21Z" fill="white"/>
<path d="M2159.66 1696.21H2145.96L1564.85 1204.17L1406.99 1070.49L1717.1 1328.3L2159.66 1696.21Z" fill="white"/>
<path d="M2249.68 1696.21H2234.35L1420.73 1054.65L2249.68 1696.21Z" fill="white"/>
<path d="M2348.15 1696.21H2330.93L1433.88 1038.34L2348.15 1696.21Z" fill="white"/>
<path d="M2404.46 1661.38V1673.99L1446.49 1021.56L2404.46 1661.38Z" fill="white"/>
<path d="M2404.46 1520.69V1531.97L1711.33 1127.64L1649.15 1091.33L1469.87 986.77L1820.6 1187.14L1869.01 1214.8L2404.46 1520.69Z" fill="white"/>
<path d="M2404.46 1454.6V1465.32L1480.63 968.795L2404.46 1454.6Z" fill="white"/>
<path d="M2404.46 1390.92V1401.14L1490.74 950.425L2404.46 1390.92Z" fill="white"/>
<path d="M2404.46 1329.35V1339.17L1500.24 931.725L2404.46 1329.35Z" fill="white"/>
<path d="M2404.46 1211.75V1220.85L1712.64 965.537L1517.24 893.416L1899.64 1030.62L2404.46 1211.75Z" fill="white"/>
<path d="M2404.46 1099.98V1108.54L1531.47 853.987L2404.46 1099.98Z" fill="white"/>
<path d="M2404.46 1045.88V1054.21L1537.6 833.946L2404.46 1045.88Z" fill="white"/>
<path d="M2404.46 940.278V948.287L1750.77 829.996L1547.64 793.252L1945.2 861.456L2404.46 940.278Z" fill="white"/>
<path d="M2404.46 837.32V845.108L1554.85 751.975L2404.46 837.32Z" fill="white"/>
<path d="M2404.46 786.475V794.191L1557.39 731.137L2404.46 786.475Z" fill="white"/>
<path d="M2404.46 735.884V743.567L1559.16 710.259L2404.46 735.884Z" fill="white"/>
<path d="M2404.46 685.474V693.121L1838.29 690.584L1766.93 690.258L1560.25 689.352L1963.85 687.504L2018.26 687.25L2404.46 685.474Z" fill="white"/>
<path d="M2404.46 584.47V592.193L1560.18 647.422L2404.46 584.47Z" fill="white"/>
<path d="M2404.46 482.567V490.391L1557.17 605.598L2404.46 482.567Z" fill="white"/>
<path d="M2404.46 430.925V438.861L1758.48 549.788L1554.6 584.796L1951.79 512.863L2404.46 430.925Z" fill="white"/>
<path d="M2404.46 378.667V386.708L1551.26 564.107L2404.46 378.667Z" fill="white"/>
<path d="M2404.46 271.65V280.094L1542.49 523.119L2404.46 271.65Z" fill="white"/>
<path d="M2404.46 160.321V169.272L1726.88 412.475L1530.86 482.82L1912.43 341.952L2404.46 160.321Z" fill="white"/>
<path d="M2404.46 102.59V111.868L1524.01 463.033L2404.46 102.59Z" fill="white"/>
<path d="M2404.46 -18.02V-7.97792L1508.21 424.18L2404.46 -18.02Z" fill="white"/>
<path d="M2404.46 -147.143V-136.086L1732.5 247.84L1668.97 284.153L1489.8 386.531L1837.88 183.442L1887.06 154.74L2404.46 -147.143Z" fill="white"/>
<path d="M2404.46 -215.597V-203.964L1479.58 368.226L2404.46 -215.597Z" fill="white"/>
<path d="M2404.46 -287.102V-274.777L1468.78 350.291L2404.46 -287.102Z" fill="white"/>
<path d="M2221.85 -357.404L1593.01 165.467L1432.61 298.83L1743.08 35.9087L2207.47 -357.404H2221.85Z" fill="white"/>
<path d="M2136.61 -357.404L1419.39 282.594L2123.68 -357.404H2136.61Z" fill="white"/>
<path d="M2057.83 -357.404L1405.61 266.794L2046.09 -357.404H2057.83Z" fill="white"/>
<path d="M1916.21 -357.404L1376.44 236.678L1906.45 -357.404H1916.21Z" fill="white"/>
<path d="M1852.05 -357.404L1494.69 64.6107L1361.11 222.4L1619.47 -88.3982L1843.11 -357.404H1852.05Z" fill="white"/>
<path d="M1791.61 -357.404L1345.28 208.665L1783.38 -357.404H1791.61Z" fill="white"/>
<path d="M1680.17 -357.404L1312.19 182.934L1673.03 -357.404H1680.17Z" fill="white"/>
<path d="M1628.42 -357.404L1294.98 170.939L1621.75 -357.404H1628.42Z" fill="white"/>
<path d="M1578.95 -357.404L1417.32 -80.2768L1381.3 -18.5963L1277.4 159.556L1477.23 -190.265L1504.22 -237.522L1572.72 -357.404H1578.95Z" fill="white"/>
<path d="M1531.45 -357.404L1259.39 148.796L1525.57 -357.404H1531.45Z" fill="white"/>
<path d="M1441.6 -357.404L1222.35 129.154L1436.31 -357.404H1441.6Z" fill="white"/>
<path d="M1398.88 -357.404L1203.36 120.348L1393.84 -357.404H1398.88Z" fill="white"/>
<path d="M1357.35 -357.404L1255.07 -80.2441L1184.04 112.194L1319.44 -265.213L1352.53 -357.404H1357.35Z" fill="white"/>
<path d="M1316.87 -357.404L1164.44 104.692L1312.26 -357.404H1316.87Z" fill="white"/>
<path d="M1200.71 -357.404L1104.32 86.4272L1196.51 -357.404H1200.71Z" fill="white"/>
<path d="M1163.32 -357.404L1120.37 -120.032L1083.88 81.7523L1151.57 -312.684L1159.22 -357.404H1163.32Z" fill="white"/>
<path d="M1089.93 -357.404L1042.56 74.5369L1085.98 -357.404H1089.93Z" fill="white"/>
<path d="M1053.72 -357.404L1021.76 72.0037L1049.81 -357.404H1053.72Z" fill="white"/>
<path d="M1017.74 -357.404L1000.89 70.2279L1013.86 -357.404H1017.74Z" fill="white"/>
</g>
</g>
</g>
<defs>
<linearGradient id="paint0_linear_0_5" x1="960.5" y1="0" x2="960.5" y2="1591" gradientUnits="userSpaceOnUse">
<stop offset="0.420197" stop-color="#D9D9D9"/>
<stop offset="1" stop-color="#737373" stop-opacity="0"/>
</linearGradient>
</defs>
</svg>
