<svg width="338" height="242" viewBox="0 0 338 242" fill="none" xmlns="http://www.w3.org/2000/svg">
<rect x="76.1338" y="119.709" width="175.461" height="95.6541" rx="47.8271" transform="rotate(-15 76.1338 119.709)" fill="#4DC5E6"/>
<path d="M147.321 167.374C146.811 167.313 146.235 167.097 145.593 166.727C144.997 166.344 144.604 165.98 144.413 165.637C143.936 164.778 143.381 163.717 142.747 162.456C142.113 161.195 141.454 159.842 140.771 158.397C140.088 156.952 139.398 155.484 138.703 153.992C138.041 152.443 137.403 150.985 136.791 149.62C136.166 148.208 135.63 146.946 135.184 145.832C134.737 144.718 134.398 143.822 134.167 143.143C133.97 142.407 134.112 141.925 134.594 141.697C135.754 141.238 136.723 141.447 137.5 142.324C137.953 143.091 138.459 143.967 139.019 144.952C139.579 145.937 140.163 147.014 140.772 148.183C141.766 147.472 142.614 146.678 143.316 145.799C144.018 144.92 144.547 144.038 144.902 143.154C145.291 142.211 145.495 141.317 145.516 140.473C145.57 139.57 145.4 138.752 145.006 138.019C144.542 137.206 143.725 136.734 142.555 136.603C141.385 136.473 140.132 136.586 138.797 136.944C136.956 137.437 135.391 138.227 134.103 139.312C132.848 140.339 131.752 141.496 130.814 142.784C130.373 143.346 129.811 143.644 129.13 143.679C128.39 143.68 127.812 143.366 127.397 142.737C127.224 142.093 127.192 141.509 127.298 140.987C127.405 140.465 127.593 139.971 127.863 139.504C128.895 137.648 130.298 136.162 132.071 135.045C133.891 133.917 135.882 133.062 138.046 132.482C139.795 132.014 141.55 131.84 143.309 131.96C145.114 132.069 146.784 132.682 148.317 133.801C149.116 134.574 149.651 135.467 149.923 136.479C150.24 137.48 150.367 138.507 150.304 139.56C150.241 140.613 150.027 141.657 149.663 142.692C149.345 143.715 148.973 144.629 148.547 145.433C149.674 145.033 150.878 144.833 152.162 144.835C153.433 144.791 154.627 145.013 155.745 145.503C156.897 145.935 157.926 146.646 158.833 147.636C159.74 148.627 160.409 149.928 160.841 151.539C161.335 153.38 161.371 155.172 160.949 156.913C160.573 158.642 159.86 160.215 158.809 161.631C157.803 163.036 156.529 164.265 154.986 165.32C153.489 166.363 151.843 167.124 150.048 167.605C149.265 167.815 148.582 167.752 147.998 167.415C147.768 167.476 147.542 167.463 147.321 167.374ZM143.159 152.946C144.008 154.643 144.853 156.415 145.694 158.262C146.534 160.109 147.397 161.95 148.284 163.785L148.56 163.711C149.573 163.44 150.628 162.96 151.727 162.271C152.871 161.569 153.88 160.732 154.754 159.757C155.615 158.737 156.256 157.628 156.675 156.43C157.082 155.186 157.089 153.926 156.698 152.649C156.159 151.56 155.396 150.827 154.406 150.451C153.417 150.074 152.3 149.954 151.053 150.091C149.853 150.215 148.564 150.56 147.186 151.127C145.842 151.635 144.5 152.242 143.159 152.946ZM184.741 128.852C185.147 129.632 185.596 130.572 186.089 131.674C186.569 132.729 186.998 133.872 187.378 135.103C187.79 136.275 188.146 137.512 188.446 138.813C188.745 140.115 188.94 141.395 189.031 142.653C189.125 144.109 188.911 145.523 188.391 146.896C187.871 148.268 187.135 149.576 186.185 150.817C185.281 152.046 184.196 153.151 182.929 154.132C181.696 155.055 180.403 155.845 179.049 156.504C177.73 157.104 176.361 157.52 174.943 157.752C173.559 157.926 172.257 157.855 171.038 157.54C169.656 157.171 168.448 156.532 167.416 155.624C166.383 154.717 165.697 153.445 165.357 151.809C165.03 150.219 164.786 148.755 164.624 147.417C164.451 146.032 164.342 144.705 164.297 143.434C164.299 142.15 164.323 140.861 164.371 139.565C164.406 138.224 164.452 136.83 164.509 135.384C164.579 134.723 164.9 134.267 165.474 134.015C165.692 133.907 165.968 133.833 166.303 133.793C166.441 133.756 166.65 133.798 166.929 133.921C167.242 133.985 167.551 134.124 167.855 134.339C168.16 134.553 168.43 134.826 168.667 135.158C168.95 135.476 169.084 135.885 169.069 136.382C169.049 137.966 169.036 139.573 169.029 141.204C169.021 142.834 169.042 144.383 169.09 145.85C169.183 147.305 169.332 148.598 169.536 149.727C169.774 150.798 170.111 151.596 170.548 152.121C171.381 152.835 172.34 153.195 173.427 153.199C174.548 153.146 175.659 152.873 176.76 152.38C177.862 151.888 178.887 151.293 179.834 150.594C180.816 149.838 181.63 149.102 182.277 148.386C183.298 147.224 183.918 145.948 184.138 144.557C184.403 143.153 184.407 141.696 184.151 140.186C183.894 138.676 183.458 137.14 182.842 135.578C182.272 134.004 181.639 132.471 180.944 130.98C180.741 130.59 180.622 130.055 180.587 129.373C180.553 128.691 180.785 128.086 181.285 127.558C181.831 127.017 182.419 126.909 183.049 127.233C183.724 127.546 184.288 128.085 184.741 128.852ZM206.379 134.304C206.392 135.09 206.498 136.221 206.696 137.698C206.928 139.116 207.185 140.626 207.466 142.229C207.781 143.772 208.083 145.27 208.374 146.722C208.71 148.162 208.983 149.273 209.193 150.055C209.551 151.39 208.993 152.255 207.52 152.65C207.013 152.786 206.493 152.777 205.959 152.624C205.47 152.459 205.121 151.985 204.911 151.202C204.393 149.269 203.901 147.156 203.435 144.863C202.969 142.57 202.53 140.196 202.118 137.74C199.718 135.226 197.421 132.732 195.229 130.261C193.083 127.776 191.206 125.467 189.598 123.332C189.303 122.967 189.025 122.573 188.763 122.149C188.535 121.668 188.366 121.22 188.255 120.805C188.19 120.379 188.213 120.002 188.323 119.677C188.421 119.305 188.687 119.012 189.123 118.796C189.617 118.615 190.113 118.531 190.61 118.546C191.141 118.502 191.659 118.684 192.163 119.092C192.79 119.96 193.547 120.942 194.432 122.037C195.318 123.132 196.232 124.243 197.176 125.372C198.12 126.501 199.052 127.583 199.971 128.62C200.878 129.611 201.672 130.459 202.355 131.164C203.686 127.847 204.884 124.491 205.948 121.097C207.059 117.691 208.068 114.46 208.976 111.404C209.328 110.323 209.814 109.65 210.434 109.386C211.054 109.121 211.62 109.117 212.133 109.374C212.575 109.552 212.906 109.957 213.125 110.589C213.389 111.209 213.474 111.803 213.38 112.371C212.967 113.962 212.454 115.728 211.839 117.669C211.258 119.551 210.637 121.469 209.976 123.423C209.361 125.364 208.74 127.282 208.113 129.177C207.486 131.072 206.908 132.781 206.379 134.304Z" fill="white"/>
<path d="M87.8747 118.786C86.0787 118.221 84.6275 114.964 83.814 113.549C79.6335 106.279 75.8968 98.5145 72.8071 90.7203C70.8756 85.848 69.43 80.7785 67.8484 75.7848C67.611 75.0353 65.1134 69.3824 67.5345 70.4475C72.5668 72.6614 76.8565 76.7405 81.5608 79.5517C88.347 83.6069 95.6951 86.1411 102.697 89.7007C109.02 92.9148 114.527 97.7973 121.188 100.293" stroke="#4DC5E6" stroke-width="3.17739" stroke-linecap="round"/>
<path d="M208.634 74.9476C209.236 71.7426 210.529 68.8349 211.831 65.8525C215.095 58.3752 218.634 51.0231 221.967 43.5771C225.983 34.6053 228.938 24.793 233.711 16.1935C234.191 15.3281 237.513 26.5575 237.699 27.5089C240.559 42.1089 242.495 56.9757 243.662 71.7804" stroke="#4DC5E6" stroke-width="3.17739" stroke-linecap="round"/>
<path d="M267.91 121.763C278.482 105.662 296.915 95.3811 306.433 78.8955" stroke="#4DC5E6" stroke-width="3.17739" stroke-linecap="round"/>
<path d="M270.2 136.231C289.041 131.183 307.454 125.083 325.693 118.187" stroke="#4DC5E6" stroke-width="3.17739" stroke-linecap="round"/>
<path d="M276.39 150.449C285.721 154.574 297.845 154.317 307.807 154.466C316.136 154.592 324.257 153.721 332.401 152.11" stroke="#4DC5E6" stroke-width="3.17739" stroke-linecap="round"/>
<path d="M79.9916 172.909C65.3602 174.672 50.9207 165.723 36.373 167.133" stroke="#4DC5E6" stroke-width="3.17739" stroke-linecap="round"/>
<path d="M87.1753 190.829C74.1246 193.244 61.071 195.442 48.2324 198.882C43.1256 200.251 37.2535 201.315 34.0493 205.858" stroke="#4DC5E6" stroke-width="3.17739" stroke-linecap="round"/>
<path d="M92.2926 209.504C84.2467 213.584 81.4612 226.714 74.7812 232.638" stroke="#4DC5E6" stroke-width="3.17739" stroke-linecap="round"/>
</svg>
