<svg width="254" height="254" viewBox="0 0 254 254" fill="none" xmlns="http://www.w3.org/2000/svg">
<path d="M107.242 35.8379C108.887 28.5961 118.654 27.3097 122.119 33.8784L126.247 41.7049C143.267 73.9736 173.535 97.1963 209.11 105.281L217.738 107.242C224.98 108.887 226.267 118.654 219.698 122.119L211.871 126.247C179.603 143.267 156.38 173.535 148.296 209.11L146.335 217.738C144.689 224.98 134.922 226.267 131.458 219.698L127.33 211.871C110.31 179.603 80.0415 156.38 44.4664 148.296L35.8379 146.335C28.5961 144.689 27.3097 134.922 33.8785 131.458L41.7049 127.33C73.9736 110.31 97.1963 80.0415 105.281 44.4663L107.242 35.8379Z" stroke="#86E5FF" stroke-width="4"/>
<path d="M95.9496 124.627C96.4192 124.36 95.9983 122.017 96.0781 121.48C96.4834 118.756 97.5941 116.112 98.1777 113.411C98.6724 111.121 99.8398 108.9 99.9383 106.552C99.9856 105.425 100.517 105.689 101.452 105.504C106.176 104.57 110.663 104.095 115.212 102.21C123.409 98.814 131.472 95.1301 139.67 91.7339C142.216 90.6793 142.798 90.1928 141.622 92.9878C140.013 96.8114 138.02 100.278 135.612 103.651C134.138 105.715 133.185 107.892 132.45 110.308C132.336 110.684 132.23 111.676 131.82 111.829C130.062 112.485 128.177 112.651 126.361 113.403C121.833 115.279 117.307 117.12 112.922 119.315C108.444 121.556 103.89 124.087 99.269 126.002" stroke="#86E5FF" stroke-width="3" stroke-linecap="round"/>
<path d="M103.825 132.02C103.421 129.722 112.629 132.575 113.546 132.806C116.168 133.464 117.963 135.202 120.33 136.182" stroke="#86E5FF" stroke-width="3" stroke-linecap="round"/>
<path d="M106.566 129.51C119.475 124.162 132.384 118.814 145.293 113.466C147.026 112.748 147.985 115.789 148.888 116.98C149.683 118.029 152.576 121.141 154.17 120.788C154.407 120.736 155.551 121.1 155.383 121.317C154.342 122.661 151.499 123.259 150.033 123.801C145.79 125.368 141.571 126.956 137.448 128.824C132.771 130.942 127.816 133.886 122.746 134.914C120.853 135.298 118.656 136.189 116.86 136.933" stroke="#86E5FF" stroke-width="3" stroke-linecap="round"/>
<path d="M114.395 147.578C113.667 151.06 113.191 154.538 112.396 158.012C112.145 159.111 111.523 160.561 111.972 161.644" stroke="#86E5FF" stroke-width="3" stroke-linecap="round"/>
<path d="M115.519 147.8C120.528 145.725 125.528 143.626 130.547 141.575C133.969 140.176 137.482 139.025 140.904 137.627C144.227 136.271 147.541 134.581 151.05 133.768C152.488 133.435 153.642 133.038 155.018 132.468C155.466 132.282 155.958 132.125 156.38 131.884C157.928 131.004 157.131 134.397 156.999 135.084C156.365 138.403 155.07 141.563 154.531 144.891C154.387 145.779 152.849 146.101 152.164 146.368C147.864 148.051 143.186 148.804 138.791 150.228C131.326 152.647 123.666 155.463 117.201 159.974C115.192 161.376 113.275 161.792 111.042 162.717" stroke="#86E5FF" stroke-width="3" stroke-linecap="round"/>
</svg>
