<svg width="603" height="559" viewBox="0 0 603 559" fill="none" xmlns="http://www.w3.org/2000/svg">
<path d="M320.588 162.221C378.44 169.313 551.284 223.39 602.925 242.916L517.059 391.64C487.412 378.575 346.902 344.231 315.899 338.525L320.588 162.221Z" fill="#E7E7E7"/>
<path d="M385.121 175.916C397.428 184.054 408.884 193.49 419.207 204.06C425.783 210.779 432.037 218.143 435.369 226.945C438.683 235.735 438.658 246.251 433.249 253.961C427.421 262.311 416.909 265.639 407.957 270.497C398.994 275.374 390.288 284.607 392.882 294.469C395.881 305.899 410.918 308.61 419.055 317.163C430.385 329.044 424.979 350.058 412.335 360.569C412.15 360.715 411.966 360.86 411.781 361.005C370.834 350.591 330.753 341.253 315.902 338.526L320.6 162.219C335.679 164.072 358.591 169.113 385.121 175.916Z" fill="#CACACA"/>
<path d="M545.796 341.866L517.063 391.634C504.749 386.213 473.274 377.11 438.481 367.905C442.423 361.515 447.46 355.933 453.867 351.772C464.029 345.168 483.094 357.788 495.032 355.787C510.712 353.151 520.045 335.765 535.613 338.908C539.09 339.606 542.5 340.593 545.796 341.866Z" fill="#B5B5B5"/>
<path d="M602.927 242.916L560.404 316.566C553.967 317.636 547.492 318.03 540.97 317.413C523.058 315.713 504.765 304.068 501.377 286.417C500.01 279.229 500.928 271.093 496.415 265.338C492.212 259.964 484.66 258.602 479.155 254.567C467.853 246.303 468.052 228.33 475.819 216.666C478.892 212.041 482.749 208.196 487.078 204.8L487.097 204.811C535.631 219.581 580.619 234.47 602.927 242.916Z" fill="#828282"/>
<path d="M140.457 396.239C141.524 399.077 151.65 397.33 151.65 397.33L149.904 392.687L148.159 388.044C148.159 388.044 139.39 393.401 140.457 396.239Z" fill="#737373"/>
<path d="M140.748 71.7804C139.006 74.2612 146.161 81.6396 146.161 81.6396L149.012 77.5792L151.86 73.5177C151.86 73.5177 142.49 69.2996 140.748 71.7804Z" fill="#737373"/>
<path d="M191.336 147.408C170.935 134.357 129.19 97.5254 148.369 74.2302C167.547 50.935 232.302 82.3833 261.834 102.824C295.069 125.832 360.184 178.063 351.852 259.81C344.199 334.901 306.501 381.28 195.235 404.236C170.031 409.435 152.215 409.946 146.682 392.75C141.15 375.554 173.137 346.924 200.394 335.931L116.224 169.593C140.005 155.958 174.115 149.557 191.336 147.408Z" fill="#EBEBEB"/>
<path d="M271.103 211.541C293.781 208.596 313.262 248.694 287.608 261.623C326.674 311.11 206.639 331.207 187.859 253.919C170.209 181.289 303.011 152.155 271.103 211.541Z" fill="#DADADA"/>
<path d="M289.948 260.517C272.857 271.582 251.35 275.598 231.417 271.449" stroke="#8E8E8E" stroke-miterlimit="10" stroke-linecap="round" stroke-linejoin="round"/>
<path d="M219.95 231.794C235.168 219.171 254.641 211.773 274.402 211.11" stroke="#8E8E8E" stroke-miterlimit="10" stroke-linecap="round" stroke-linejoin="round"/>
<path d="M237.588 150.88C250.141 137.094 214.275 104.484 197.497 118.664C180.718 132.842 224.488 165.272 237.588 150.88Z" fill="#DADADA"/>
<path d="M249.84 351.271C239.731 332.647 200.556 353.265 207.08 369.114C213.755 385.332 257.012 364.481 249.84 351.271Z" fill="#DADADA"/>
<path d="M185.369 143.145C199.207 154.425 215.501 162.673 232.781 167.153" stroke="#737373" stroke-miterlimit="10" stroke-linecap="round" stroke-linejoin="round"/>
<path d="M219.276 191.134C218.861 188.13 208.6 187.598 208.6 187.598L209.277 192.513L209.954 197.426C209.954 197.426 219.689 194.136 219.276 191.134Z" fill="#A3A3A3"/>
<path d="M237.864 239.853C237.178 236.9 226.909 237.307 226.909 237.307L228.034 242.138L229.158 246.969C229.158 246.969 238.553 242.805 237.864 239.853Z" fill="#A3A3A3"/>
<path d="M252.732 289.465C251.713 286.61 241.558 288.189 241.558 288.189L243.227 292.86L244.896 297.532C244.896 297.532 253.752 292.319 252.732 289.465Z" fill="#A3A3A3"/>
<path d="M116.222 169.593C101.175 172.144 85.2096 197.481 88.8542 212.143C92.4999 226.804 112.681 238.456 123.665 238.071C113.609 246.169 105.917 264.152 109.769 275.344C113.621 286.537 135.628 299.691 148.113 297.483C133.975 314.435 138.711 341.835 169.718 340.9C200.724 339.965 224.177 328.852 237.44 320.245C256.905 307.616 246.969 269.793 214.591 273.524C237.317 257.943 246.513 226.476 195.664 221.336C222.741 199.296 212.256 173.957 184.437 167.764C156.621 161.573 125.295 168.055 116.222 169.593Z" fill="#EBEBEB"/>
<path d="M211.346 196.335C212.439 182.987 201.823 171.638 184.439 167.765C156.622 161.571 125.296 168.053 116.223 169.591" stroke="#A3A3A3" stroke-miterlimit="10" stroke-linecap="round" stroke-linejoin="round"/>
<path d="M193.756 337.783C215.04 333.039 229.237 325.873 238.793 319.282C243.865 315.786 246.594 309.772 247.001 303.225" stroke="#A3A3A3" stroke-miterlimit="10" stroke-linecap="round" stroke-linejoin="round"/>
<path d="M146.229 297.629C169.778 295.696 194.722 286.313 214.592 273.527" stroke="#A3A3A3" stroke-miterlimit="10" stroke-linecap="round" stroke-linejoin="round"/>
<path d="M195.665 221.34C177.448 222.841 133.881 234.643 123.666 238.072" stroke="#A3A3A3" stroke-miterlimit="10" stroke-linecap="round" stroke-linejoin="round"/>
</svg>
