<svg width="723" height="687" viewBox="0 0 723 687" fill="none" xmlns="http://www.w3.org/2000/svg">
<path d="M284.364 386.174C281.137 402.16 295.303 414.457 299.926 418.379C301.135 419.404 302.414 420.343 303.721 421.237C298.354 422.879 286.375 427.41 278.618 439.04C276.232 442.621 272.253 448.587 273.059 456.391C273.213 457.875 273.866 464.2 278.856 468.57C280.485 469.998 282.794 471.408 288.972 472.683C295.876 474.111 310.523 477.209 324.582 469.322C326.294 468.363 327.928 467.28 329.498 466.113C329.109 477.28 330.811 487.012 337.719 495.444C346.115 505.689 362.382 505.438 372.879 497.146C385.676 487.038 382.818 468.495 381.826 462.512C381.549 460.84 381.152 459.197 380.691 457.566C389.127 459.912 397.211 460.261 405.55 457.007C417.892 452.19 422.683 436.644 418.042 424.098C412.387 408.803 393.872 405.787 387.874 404.881C387.471 404.819 387.067 404.79 386.662 404.741C392.483 395.946 395.889 387.164 394.649 376.823C393.069 363.67 379.215 355.145 365.908 356.503C349.686 358.155 342.135 375.327 339.758 380.907C339.405 381.737 339.087 382.582 338.786 383.432C331.516 373.809 323.668 366.824 312.287 364.737C299.261 362.356 287.014 373.063 284.364 386.174Z" fill="#FFC9C9"/>
<path d="M353.103 425.689C357.467 423.041 361.009 417.121 364.139 413.302C371.66 404.13 378.034 394.75 383.218 384.052" stroke="#E87777" stroke-miterlimit="10"/>
<path d="M350.666 421.658C355.132 414.911 358.439 408.276 359.678 400.242" stroke="#E87777" stroke-miterlimit="10"/>
<path d="M347.649 421.431C349.977 415.429 348.181 409.342 348.235 403.143C348.34 391.34 350.559 378.677 356.81 368.488" stroke="#E87777" stroke-miterlimit="10"/>
<path d="M358.415 434.89C365.88 441.905 372.94 447.067 382.632 450.875" stroke="#E87777" stroke-miterlimit="10"/>
<path d="M359.193 431.509C373.214 433.577 387.05 434.531 400.373 439.731" stroke="#E87777" stroke-miterlimit="10"/>
<path d="M358.431 427.721C365.207 423.086 373.827 425.66 381.233 423.72" stroke="#E87777" stroke-miterlimit="10"/>
<path d="M352.767 438.72C362.484 447.397 367.753 462.534 369.04 475.094" stroke="#E87777" stroke-miterlimit="10"/>
<path d="M350.284 439.175C351.749 442.433 351.761 447.039 352.023 450.568C352.26 453.788 352.687 456.911 352.626 460.146C352.441 469.565 354.978 478.623 354.955 488.03" stroke="#E87777" stroke-miterlimit="10"/>
<path d="M345.959 441.821C344.134 448.368 342.799 455.082 340.831 461.581" stroke="#E87777" stroke-miterlimit="10"/>
<path d="M336.617 432.496C331.718 448.029 317.025 459.025 302.328 464.493" stroke="#E87777" stroke-miterlimit="10"/>
<path d="M331.287 432.853C329.642 437.414 322.44 439.902 318.256 441.028" stroke="#E87777" stroke-miterlimit="10"/>
<path d="M331.125 430.335C323.466 430.031 315.97 431.702 308.363 432.24" stroke="#E87777" stroke-miterlimit="10"/>
<path d="M340.498 422.759C340.526 417.037 338.83 412.016 337.097 406.565C335.515 401.582 333.754 396.839 331.017 392.355C328.365 388.006 324.916 384.224 321.958 380.095" stroke="#E87777" stroke-miterlimit="10"/>
<path d="M336.844 420.969C334.454 416.448 331.491 413.054 328.226 409.188" stroke="#E87777" stroke-miterlimit="10"/>
<path d="M332.759 421.769C323.098 414.191 310.416 412.911 301.1 404.758" stroke="#E87777" stroke-miterlimit="10"/>
<path d="M357.274 438.231C359.767 438.984 361.845 437.154 361.543 434.568C361.449 433.76 360.8 433.088 360.781 432.247C360.757 431.257 361.382 430.441 361.706 429.572C363.262 425.385 360.313 424.859 359.319 421.348C358.932 419.974 358.897 418.549 357.38 417.795C355.984 417.102 354.377 417.852 352.869 417.599C348.811 416.916 345.537 411.262 341.735 415.142C340.45 416.452 339.549 417.212 337.719 417.307C336.2 417.383 334.447 416.963 333.05 417.974C331.881 418.817 331.126 420.443 330.249 421.56C329.146 422.962 327.974 424.409 329.219 426.112C330.409 427.733 331.975 427.057 330.654 429.63C329.781 431.332 328.337 432.467 329.122 434.494C329.905 436.518 331.49 436.321 333.189 436.707C335.866 437.316 335.838 439.092 337.236 441.074C338.749 443.222 340.965 443.243 343.141 442.591C345.703 441.823 345.605 443.76 347.401 445.205C350.765 447.912 356.278 441.674 357.274 438.231Z" fill="#FF6A6A"/>
<path d="M350.563 442.287C352.283 440.085 355.461 439.696 357.66 441.414C359.862 443.134 360.251 446.311 358.534 448.511C356.814 450.713 353.636 451.102 351.437 449.384C349.235 447.664 348.846 444.487 350.563 442.287Z" fill="#FFAB32"/>
<path d="M335.783 438.494C337.202 436.677 339.821 436.355 341.638 437.774C343.455 439.192 343.777 441.812 342.359 443.629C340.942 445.443 338.321 445.768 336.504 444.349C334.69 442.932 334.365 440.311 335.783 438.494Z" fill="#FFAB32"/>
<path d="M345.401 425.449C346.992 423.412 349.933 423.05 351.97 424.641C354.007 426.232 354.369 429.173 352.779 431.21C351.188 433.247 348.247 433.609 346.21 432.019C344.173 430.428 343.811 427.487 345.401 425.449Z" fill="#FFAB32"/>
<path d="M344.716 411.184C346.172 409.32 348.861 408.989 350.725 410.445C352.589 411.901 352.92 414.59 351.464 416.454C350.009 418.318 347.32 418.649 345.455 417.193C343.591 415.738 343.263 413.046 344.716 411.184Z" fill="#FFAB32"/>
<path d="M324.953 428.9C326.542 426.865 329.478 426.504 331.513 428.092C333.547 429.681 333.909 432.618 332.32 434.652C330.732 436.687 327.795 437.048 325.76 435.46C323.726 433.871 323.364 430.934 324.953 428.9Z" fill="#FFAB32"/>
<path d="M440.593 255.762C437.366 271.748 451.531 284.046 456.154 287.968C457.363 288.992 458.642 289.932 459.949 290.826C454.579 292.465 442.603 296.998 434.847 308.629C432.46 312.209 428.481 318.176 429.287 325.98C429.442 327.463 430.094 333.789 435.085 338.158C436.713 339.586 439.022 340.996 445.201 342.271C452.104 343.699 466.752 346.797 480.811 338.911C482.52 337.954 484.157 336.868 485.726 335.701C485.335 346.871 487.04 356.6 493.948 365.033C502.344 375.277 518.61 375.027 529.107 366.735C541.904 356.626 539.044 338.086 538.054 332.101C537.777 330.428 537.381 328.785 536.919 327.155C545.356 329.501 553.442 329.852 561.779 326.596C574.118 321.781 578.911 306.233 574.27 293.687C568.615 278.391 550.098 275.374 544.102 274.469C543.702 274.409 543.295 274.379 542.891 274.329C548.712 265.534 552.117 256.752 550.878 246.411C549.297 233.259 535.444 224.733 522.136 226.091C505.914 227.744 498.364 244.916 495.989 250.497C495.636 251.328 495.318 252.172 495.017 253.022C487.747 243.4 479.897 236.413 468.518 234.327C455.487 231.942 443.24 242.649 440.593 255.762Z" fill="#FFC9C9"/>
<path d="M509.328 295.276C513.692 292.627 517.234 286.707 520.363 282.888C527.884 273.716 534.262 264.338 539.445 253.64" stroke="#E87777" stroke-miterlimit="10"/>
<path d="M506.89 291.244C511.356 284.497 514.663 277.862 515.902 269.828" stroke="#E87777" stroke-miterlimit="10"/>
<path d="M503.874 291.018C506.202 285.015 504.405 278.928 504.46 272.729C504.564 260.926 506.784 248.264 513.035 238.075" stroke="#E87777" stroke-miterlimit="10"/>
<path d="M514.639 304.476C522.105 311.491 529.165 316.654 538.857 320.461" stroke="#E87777" stroke-miterlimit="10"/>
<path d="M515.418 301.095C529.438 303.164 543.275 304.118 556.598 309.317" stroke="#E87777" stroke-miterlimit="10"/>
<path d="M514.655 297.307C521.434 292.674 530.052 295.247 537.458 293.307" stroke="#E87777" stroke-miterlimit="10"/>
<path d="M508.991 308.306C518.709 316.983 523.977 332.12 525.265 344.68" stroke="#E87777" stroke-miterlimit="10"/>
<path d="M506.509 308.761C507.974 312.02 507.986 316.625 508.247 320.155C508.485 323.374 508.912 326.497 508.85 329.733C508.666 339.152 511.2 348.212 511.18 357.616" stroke="#E87777" stroke-miterlimit="10"/>
<path d="M502.186 311.407C500.361 317.954 499.026 324.669 497.056 331.17" stroke="#E87777" stroke-miterlimit="10"/>
<path d="M492.842 302.083C487.943 317.615 473.25 328.611 458.552 334.079" stroke="#E87777" stroke-miterlimit="10"/>
<path d="M487.511 302.439C485.866 307 478.669 309.488 474.481 310.614" stroke="#E87777" stroke-miterlimit="10"/>
<path d="M487.35 299.922C479.691 299.617 472.195 301.289 464.588 301.827" stroke="#E87777" stroke-miterlimit="10"/>
<path d="M496.723 292.345C496.751 286.624 495.055 281.602 493.322 276.152C491.74 271.168 489.976 266.428 487.241 261.942C484.59 257.592 481.138 253.808 478.182 249.681" stroke="#E87777" stroke-miterlimit="10"/>
<path d="M493.069 290.556C490.678 286.034 487.715 282.64 484.45 278.774" stroke="#E87777" stroke-miterlimit="10"/>
<path d="M488.987 291.357C479.326 283.78 466.644 282.499 457.328 274.347" stroke="#E87777" stroke-miterlimit="10"/>
<path d="M513.499 307.817C515.992 308.57 518.071 306.741 517.769 304.154C517.676 303.343 517.025 302.675 517.007 301.833C516.982 300.843 517.607 300.027 517.931 299.158C519.487 294.971 516.539 294.445 515.545 290.934C515.156 289.563 515.122 288.136 513.605 287.381C512.209 286.688 510.602 287.438 509.095 287.185C505.037 286.502 501.761 280.85 497.96 284.728C496.678 286.035 495.774 286.798 493.946 286.891C492.427 286.966 490.674 286.547 489.277 287.558C488.108 288.401 487.353 290.027 486.476 291.144C485.374 292.545 484.201 293.993 485.446 295.695C486.637 297.317 488.205 296.643 486.882 299.213C486.008 300.916 484.565 302.051 485.353 304.079C486.135 306.104 487.717 305.905 489.419 306.292C492.096 306.901 492.068 308.677 493.466 310.66C494.979 312.808 497.195 312.829 499.371 312.177C501.933 311.409 501.838 313.348 503.631 314.79C506.991 317.498 512.506 311.262 513.499 307.817Z" fill="#FF6A6A"/>
<path d="M506.789 311.874C508.506 309.674 511.686 309.283 513.885 311C516.088 312.72 516.476 315.897 514.759 318.097C513.039 320.299 509.864 320.69 507.662 318.97C505.46 317.251 505.071 314.073 506.789 311.874Z" fill="#FFAB32"/>
<path d="M492.008 308.081C493.427 306.264 496.046 305.941 497.863 307.36C499.68 308.779 500.002 311.398 498.584 313.215C497.165 315.032 494.546 315.354 492.729 313.935C490.912 312.517 490.59 309.897 492.008 308.081Z" fill="#FFAB32"/>
<path d="M501.63 295.035C503.22 292.998 506.162 292.636 508.199 294.227C510.236 295.818 510.598 298.759 509.007 300.796C507.417 302.833 504.475 303.195 502.438 301.605C500.401 300.014 500.039 297.072 501.63 295.035Z" fill="#FFAB32"/>
<path d="M500.944 280.769C502.399 278.905 505.089 278.574 506.953 280.029C508.817 281.485 509.148 284.174 507.692 286.038C506.237 287.902 503.547 288.233 501.683 286.778C499.819 285.322 499.488 282.633 500.944 280.769Z" fill="#FFAB32"/>
<path d="M487.741 297.678C485.707 296.09 482.77 296.451 481.182 298.486C479.593 300.52 479.954 303.457 481.989 305.045C484.023 306.634 486.96 306.273 488.549 304.238C490.137 302.204 489.776 299.267 487.741 297.678Z" fill="#FFAB32"/>
<path d="M57.8754 243.754C55.4883 255.572 65.9636 264.667 69.3825 267.569C70.2767 268.326 71.2201 269.021 72.19 269.681C68.2206 270.895 59.3623 274.245 53.629 282.847C51.8621 285.494 48.9237 289.905 49.5201 295.676C49.6339 296.773 50.1171 301.451 53.8064 304.682C55.0122 305.738 56.7186 306.779 61.2854 307.724C66.3897 308.781 77.2218 311.069 87.6161 305.237C88.8796 304.527 90.0894 303.729 91.2507 302.863C90.9637 311.122 92.221 318.316 97.3323 324.552C103.542 332.128 115.567 331.942 123.33 325.811C132.792 318.335 130.679 304.628 129.947 300.203C129.743 298.968 129.448 297.75 129.109 296.548C135.346 298.283 141.324 298.54 147.49 296.134C156.614 292.573 160.157 281.08 156.726 271.8C152.545 260.491 138.853 258.261 134.419 257.589C134.122 257.543 133.821 257.523 133.525 257.486C137.829 250.984 140.348 244.489 139.43 236.843C138.262 227.119 128.019 220.813 118.177 221.818C106.182 223.04 100.6 235.74 98.8421 239.862C98.5813 240.477 98.3475 241.1 98.1237 241.727C92.748 234.614 86.9438 229.448 78.5307 227.905C68.8889 226.141 59.832 234.06 57.8754 243.754Z" fill="#FFC9C9"/>
<path d="M108.699 272.973C111.925 271.014 114.545 266.637 116.859 263.814C122.421 257.032 127.136 250.096 130.966 242.186" stroke="#E87777" stroke-miterlimit="10"/>
<path d="M106.895 269.991C110.196 265.002 112.642 260.096 113.558 254.156" stroke="#E87777" stroke-miterlimit="10"/>
<path d="M104.666 269.824C106.388 265.387 105.059 260.885 105.101 256.301C105.181 247.572 106.818 238.212 111.441 230.676" stroke="#E87777" stroke-miterlimit="10"/>
<path d="M112.626 279.774C118.146 284.963 123.365 288.78 130.532 291.595" stroke="#E87777" stroke-miterlimit="10"/>
<path d="M113.202 277.275C123.571 278.805 133.799 279.511 143.651 283.355" stroke="#E87777" stroke-miterlimit="10"/>
<path d="M112.639 274.475C117.649 271.047 124.024 272.953 129.501 271.516" stroke="#E87777" stroke-miterlimit="10"/>
<path d="M108.447 282.607C115.63 289.022 119.529 300.215 120.48 309.504" stroke="#E87777" stroke-miterlimit="10"/>
<path d="M106.612 282.946C107.695 285.354 107.705 288.763 107.896 291.372C108.072 293.751 108.387 296.061 108.343 298.452C108.207 305.415 110.081 312.116 110.065 319.071" stroke="#E87777" stroke-miterlimit="10"/>
<path d="M103.418 284.899C102.069 289.741 101.082 294.706 99.6262 299.511" stroke="#E87777" stroke-miterlimit="10"/>
<path d="M96.513 278.004C92.8902 289.486 82.0277 297.619 71.1571 301.661" stroke="#E87777" stroke-miterlimit="10"/>
<path d="M92.5671 278.267C91.3517 281.639 86.0281 283.48 82.9312 284.311" stroke="#E87777" stroke-miterlimit="10"/>
<path d="M92.4485 276.407C86.7857 276.184 81.2429 277.419 75.6186 277.817" stroke="#E87777" stroke-miterlimit="10"/>
<path d="M99.3762 270.805C99.398 266.572 98.1427 262.862 96.8624 258.832C95.6911 255.149 94.3873 251.641 92.3678 248.325C90.4056 245.109 87.855 242.311 85.6687 239.258" stroke="#E87777" stroke-miterlimit="10"/>
<path d="M96.6768 269.48C94.9099 266.138 92.7218 263.628 90.3035 260.769" stroke="#E87777" stroke-miterlimit="10"/>
<path d="M93.6574 270.073C86.515 264.471 77.1374 263.525 70.2481 257.496" stroke="#E87777" stroke-miterlimit="10"/>
<path d="M111.781 282.246C113.622 282.802 115.159 281.449 114.938 279.538C114.869 278.939 114.391 278.444 114.374 277.823C114.355 277.09 114.819 276.486 115.057 275.845C116.207 272.751 114.027 272.36 113.293 269.766C113.006 268.749 112.981 267.695 111.858 267.139C110.825 266.624 109.638 267.182 108.522 266.995C105.522 266.492 103.099 262.309 100.289 265.178C99.3392 266.146 98.6715 266.709 97.3195 266.776C96.1959 266.831 94.9018 266.521 93.8679 267.267C93.0061 267.89 92.4457 269.094 91.7962 269.92C90.9829 270.957 90.1122 272.028 91.0346 273.284C91.9169 274.484 93.0738 273.986 92.0966 275.886C91.4506 277.146 90.383 277.983 90.9633 279.483C91.541 280.981 92.7124 280.832 93.9684 281.121C95.9504 281.571 95.9269 282.882 96.963 284.349C98.0825 285.937 99.7197 285.953 101.329 285.471C103.223 284.904 103.153 286.334 104.479 287.403C106.972 289.405 111.047 284.792 111.781 282.246Z" fill="#FF6A6A"/>
<path d="M106.819 285.243C108.09 283.615 110.439 283.326 112.067 284.597C113.695 285.868 113.984 288.217 112.713 289.845C111.441 291.473 109.093 291.762 107.465 290.49C105.839 289.221 105.548 286.871 106.819 285.243Z" fill="#FFAB32"/>
<path d="M100.22 281.908C98.8776 280.86 96.9398 281.098 95.8918 282.44C94.8437 283.783 95.0821 285.72 96.4244 286.768C97.7666 287.817 99.7044 287.578 100.752 286.236C101.801 284.894 101.562 282.956 100.22 281.908Z" fill="#FFAB32"/>
<path d="M103.005 272.795C104.18 271.29 106.356 271.022 107.861 272.197C109.366 273.372 109.633 275.548 108.458 277.053C107.281 278.56 105.108 278.825 103.603 277.65C102.098 276.475 101.828 274.302 103.005 272.795Z" fill="#FFAB32"/>
<path d="M102.498 262.248C103.572 260.871 105.561 260.626 106.938 261.701C108.317 262.778 108.559 264.765 107.484 266.141C106.409 267.518 104.42 267.762 103.044 266.688C101.668 265.613 101.423 263.624 102.498 262.248Z" fill="#FFAB32"/>
<path d="M87.8866 275.345C89.0616 273.84 91.2327 273.573 92.7376 274.748C94.2424 275.923 94.5096 278.094 93.3345 279.599C92.1595 281.104 89.9884 281.371 88.4835 280.196C86.9787 279.021 86.7115 276.85 87.8866 275.345Z" fill="#FFAB32"/>
<path d="M172.883 385.16C170.496 396.978 180.971 406.073 184.39 408.975C185.284 409.732 186.228 410.427 187.198 411.087C183.228 412.301 174.37 415.652 168.637 424.253C166.87 426.9 163.929 431.309 164.528 437.082C164.642 438.18 165.127 442.855 168.814 446.088C170.02 447.144 171.726 448.185 176.293 449.13C181.397 450.187 192.229 452.475 202.624 446.644C203.887 445.934 205.097 445.135 206.258 444.27C205.971 452.528 207.229 459.722 212.337 465.956C218.547 473.532 230.572 473.346 238.335 467.215C247.797 459.74 245.684 446.032 244.952 441.608C244.748 440.372 244.454 439.155 244.114 437.952C250.351 439.687 256.329 439.944 262.495 437.539C271.619 433.977 275.162 422.484 271.731 413.204C267.55 401.896 253.858 399.666 249.424 398.993C249.127 398.947 248.826 398.927 248.53 398.89C252.834 392.388 255.353 385.893 254.435 378.247C253.267 368.523 243.024 362.217 233.182 363.222C221.188 364.444 215.605 377.144 213.845 381.268C213.582 381.881 213.351 382.507 213.127 383.134C207.751 376.02 201.947 370.855 193.534 369.312C183.897 367.548 174.84 375.466 172.883 385.16Z" fill="#FFC9C9"/>
<path d="M223.707 414.378C226.933 412.419 229.553 408.042 231.867 405.219C237.429 398.437 242.142 391.504 245.977 383.593" stroke="#E87777" stroke-miterlimit="10"/>
<path d="M221.903 411.396C225.204 406.407 227.65 401.501 228.566 395.561" stroke="#E87777" stroke-miterlimit="10"/>
<path d="M219.674 411.23C221.396 406.793 220.067 402.291 220.109 397.707C220.187 388.981 221.826 379.618 226.449 372.081" stroke="#E87777" stroke-miterlimit="10"/>
<path d="M227.634 421.18C233.154 426.368 238.375 430.184 245.542 432.999" stroke="#E87777" stroke-miterlimit="10"/>
<path d="M228.21 418.68C238.577 420.208 248.807 420.916 258.659 424.76" stroke="#E87777" stroke-miterlimit="10"/>
<path d="M227.647 415.88C232.657 412.453 239.032 414.358 244.509 412.921" stroke="#E87777" stroke-miterlimit="10"/>
<path d="M223.458 424.011C230.641 430.426 234.54 441.62 235.491 450.909" stroke="#E87777" stroke-miterlimit="10"/>
<path d="M221.623 424.349C222.706 426.756 222.716 430.165 222.907 432.774C223.083 435.153 223.398 437.463 223.354 439.855C223.218 446.817 225.092 453.518 225.076 460.473" stroke="#E87777" stroke-miterlimit="10"/>
<path d="M218.426 426.304C217.077 431.146 216.09 436.111 214.634 440.916" stroke="#E87777" stroke-miterlimit="10"/>
<path d="M211.521 419.409C207.896 430.893 197.036 439.024 186.165 443.066" stroke="#E87777" stroke-miterlimit="10"/>
<path d="M207.575 419.672C206.36 423.045 201.036 424.885 197.939 425.716" stroke="#E87777" stroke-miterlimit="10"/>
<path d="M207.457 417.812C201.794 417.589 196.251 418.824 190.627 419.222" stroke="#E87777" stroke-miterlimit="10"/>
<path d="M214.384 412.21C214.406 407.977 213.151 404.267 211.87 400.237C210.699 396.554 209.395 393.046 207.373 389.728C205.411 386.512 202.86 383.714 200.674 380.661" stroke="#E87777" stroke-miterlimit="10"/>
<path d="M211.685 410.886C209.918 407.544 207.73 405.034 205.312 402.175" stroke="#E87777" stroke-miterlimit="10"/>
<path d="M208.666 411.478C201.523 405.876 192.145 404.93 185.256 398.901" stroke="#E87777" stroke-miterlimit="10"/>
<path d="M226.789 423.651C228.632 424.209 230.167 422.854 229.946 420.942C229.877 420.344 229.396 419.847 229.382 419.227C229.363 418.495 229.826 417.891 230.065 417.25C231.215 414.156 229.034 413.765 228.3 411.17C228.012 410.156 227.988 409.1 226.865 408.544C225.833 408.028 224.646 408.587 223.53 408.4C220.53 407.897 218.107 403.713 215.297 406.583C214.347 407.551 213.679 408.114 212.327 408.181C211.204 408.236 209.909 407.926 208.875 408.672C208.014 409.295 207.453 410.499 206.804 411.325C205.988 412.364 205.12 413.433 206.042 414.689C206.922 415.887 208.081 415.391 207.104 417.291C206.458 418.551 205.393 419.39 205.971 420.888C206.549 422.386 207.718 422.239 208.976 422.525C210.958 422.976 210.935 424.287 211.968 425.752C213.088 427.34 214.725 427.356 216.336 426.876C218.231 426.309 218.159 427.742 219.487 428.808C221.98 430.81 226.054 426.197 226.789 423.651Z" fill="#FF6A6A"/>
<path d="M227.075 426.003C225.448 424.732 223.098 425.021 221.827 426.649C220.557 428.276 220.846 430.626 222.473 431.897C224.101 433.167 226.45 432.878 227.721 431.251C228.992 429.623 228.703 427.274 227.075 426.003Z" fill="#FFAB32"/>
<path d="M210.9 423.846C211.948 422.504 213.886 422.266 215.228 423.314C216.57 424.362 216.809 426.3 215.761 427.642C214.713 428.984 212.775 429.223 211.433 428.175C210.09 427.126 209.852 425.189 210.9 423.846Z" fill="#FFAB32"/>
<path d="M222.873 413.604C221.367 412.428 219.193 412.696 218.017 414.202C216.841 415.708 217.109 417.882 218.614 419.058C220.12 420.233 222.294 419.966 223.47 418.46C224.646 416.954 224.378 414.78 222.873 413.604Z" fill="#FFAB32"/>
<path d="M217.506 403.653C218.581 402.276 220.569 402.032 221.946 403.106C223.322 404.181 223.567 406.17 222.492 407.547C221.417 408.923 219.429 409.168 218.052 408.093C216.676 407.018 216.431 405.029 217.506 403.653Z" fill="#FFAB32"/>
<path d="M202.892 416.751C204.067 415.246 206.238 414.979 207.743 416.154C209.248 417.329 209.515 419.5 208.34 421.005C207.165 422.51 204.994 422.777 203.489 421.602C201.984 420.427 201.717 418.256 202.892 416.751Z" fill="#FFAB32"/>
<path d="M423.436 364.46C417.963 391.564 441.981 412.42 449.823 419.071C451.874 420.812 454.042 422.403 456.259 423.915C447.157 426.696 426.846 434.381 413.692 454.107C409.645 460.177 402.898 470.292 404.269 483.529C404.531 486.042 405.638 496.769 414.098 504.181C416.863 506.602 420.775 508.99 431.251 511.156C442.957 513.578 467.795 518.83 491.636 505.457C494.536 503.83 497.31 501.996 499.974 500.016C499.314 518.956 502.2 535.453 513.918 549.751C528.154 567.126 555.736 566.701 573.537 552.638C595.235 535.498 590.389 504.059 588.71 493.914C588.238 491.081 587.565 488.289 586.787 485.529C601.095 489.506 614.801 490.101 628.938 484.584C649.863 476.416 657.988 450.057 650.12 428.78C640.53 402.845 609.133 397.729 598.965 396.191C598.281 396.088 597.595 396.038 596.912 395.956C606.781 381.046 612.56 366.149 610.454 348.616C607.776 326.314 584.285 311.858 561.716 314.159C534.209 316.963 521.407 346.081 517.375 355.542C516.775 356.947 516.241 358.383 515.726 359.821C503.4 343.507 490.088 331.661 470.792 328.123C448.695 324.07 427.925 342.226 423.436 364.46Z" fill="#FFC9C9"/>
<path d="M539.989 431.463C547.392 426.971 553.392 416.936 558.702 410.46C571.457 394.903 582.266 379.001 591.058 360.861" stroke="#E87777" stroke-miterlimit="10"/>
<path d="M535.855 424.627C543.425 413.188 549.036 401.938 551.136 388.309" stroke="#E87777" stroke-miterlimit="10"/>
<path d="M530.745 424.244C534.694 414.063 531.647 403.746 531.742 393.231C531.921 373.215 535.683 351.751 546.284 334.466" stroke="#E87777" stroke-miterlimit="10"/>
<path d="M548.997 447.064C561.656 458.962 573.627 467.714 590.06 474.169" stroke="#E87777" stroke-miterlimit="10"/>
<path d="M550.319 441.329C574.093 444.835 597.552 446.453 620.148 455.273" stroke="#E87777" stroke-miterlimit="10"/>
<path d="M549.023 434.908C560.516 427.047 575.13 431.415 587.69 428.123" stroke="#E87777" stroke-miterlimit="10"/>
<path d="M539.416 453.56C555.891 468.273 564.83 493.94 567.01 515.242" stroke="#E87777" stroke-miterlimit="10"/>
<path d="M535.208 454.331C537.691 459.853 537.712 467.669 538.154 473.653C538.558 479.113 539.284 484.41 539.174 489.891C538.859 505.859 543.16 521.224 543.12 537.171" stroke="#E87777" stroke-miterlimit="10"/>
<path d="M527.875 458.815C524.779 469.915 522.517 481.303 519.178 492.323" stroke="#E87777" stroke-miterlimit="10"/>
<path d="M512.038 443.004C503.73 469.339 478.815 487.989 453.892 497.255" stroke="#E87777" stroke-miterlimit="10"/>
<path d="M502.998 443.61C500.21 451.342 488.001 455.563 480.903 457.47" stroke="#E87777" stroke-miterlimit="10"/>
<path d="M502.723 439.341C489.737 438.827 477.025 441.659 464.125 442.571" stroke="#E87777" stroke-miterlimit="10"/>
<path d="M518.615 426.495C518.662 416.792 515.787 408.276 512.849 399.035C510.165 390.588 507.175 382.543 502.537 374.938C498.039 367.564 492.19 361.148 487.174 354.147" stroke="#E87777" stroke-miterlimit="10"/>
<path d="M512.418 423.459C508.364 415.794 503.345 410.039 497.805 403.481" stroke="#E87777" stroke-miterlimit="10"/>
<path d="M505.494 424.819C489.111 411.971 467.608 409.8 451.809 395.978" stroke="#E87777" stroke-miterlimit="10"/>
<path d="M547.062 452.731C551.286 454.007 554.811 450.903 554.305 446.519C554.146 445.145 553.048 444.01 553.01 442.584C552.968 440.909 554.029 439.517 554.578 438.047C557.216 430.949 552.215 430.057 550.533 424.105C549.874 421.776 549.813 419.357 547.244 418.081C544.876 416.903 542.153 418.179 539.598 417.749C532.718 416.593 527.161 407.004 520.717 413.582C518.542 415.8 517.009 417.093 513.91 417.251C511.331 417.381 508.364 416.668 505.994 418.38C504.013 419.808 502.734 422.565 501.244 424.462C499.375 426.839 497.383 429.293 499.499 432.177C501.516 434.929 504.176 433.782 501.935 438.143C500.451 441.032 498.008 442.956 499.338 446.392C500.666 449.826 503.35 449.491 506.232 450.146C510.774 451.177 510.725 454.186 513.094 457.551C515.661 461.192 519.417 461.23 523.108 460.124C527.453 458.824 527.288 462.105 530.329 464.556C536.027 469.149 545.375 458.571 547.062 452.731Z" fill="#FF6A6A"/>
<path d="M535.684 459.607C538.599 455.874 543.987 455.211 547.72 458.126C551.454 461.041 552.117 466.429 549.201 470.163C546.286 473.896 540.898 474.559 537.165 471.644C533.432 468.729 532.769 463.341 535.684 459.607Z" fill="#FFAB32"/>
<path d="M520.548 451.958C517.47 449.554 513.026 450.101 510.622 453.179C508.218 456.258 508.765 460.702 511.844 463.105C514.922 465.509 519.366 464.962 521.77 461.884C524.173 458.806 523.627 454.362 520.548 451.958Z" fill="#FFAB32"/>
<path d="M538.078 429.688C534.623 426.99 529.635 427.604 526.938 431.059C524.24 434.514 524.854 439.501 528.308 442.199C531.763 444.897 536.751 444.283 539.448 440.828C542.146 437.373 541.532 432.386 538.078 429.688Z" fill="#FFAB32"/>
<path d="M535.956 405.612C532.797 403.145 528.236 403.706 525.769 406.865C523.302 410.025 523.863 414.586 527.023 417.053C530.182 419.52 534.743 418.959 537.21 415.799C539.677 412.64 539.116 408.079 535.956 405.612Z" fill="#FFAB32"/>
<path d="M492.258 436.907C494.952 433.457 499.934 432.844 503.384 435.538C506.834 438.232 507.445 443.212 504.751 446.662C502.057 450.112 497.077 450.723 493.63 448.031C490.179 445.337 489.564 440.358 492.258 436.907Z" fill="#FFAB32"/>
</svg>
