<svg width="357" height="305" viewBox="0 0 357 305" fill="none" xmlns="http://www.w3.org/2000/svg">
<path d="M300.693 181.29C295.721 156.991 268.583 148.184 259.777 145.435C257.473 144.717 255.129 144.161 252.765 143.688C259.308 138.204 273.388 124.742 277.342 103.848C278.557 97.4189 280.585 86.7028 274.818 76.2514C273.723 74.2656 269.049 65.7993 259.471 62.6416C256.34 61.6095 252.274 61.0075 242.863 62.89C232.349 64.9922 209.998 69.3522 194.996 88.7453C193.171 91.1026 191.524 93.5891 190.018 96.1579C183.929 80.2889 175.769 67.675 161.085 59.9723C143.242 50.6136 120.616 60.6234 110.844 78.4706C98.9304 100.224 113.942 124.487 118.885 132.275C120.266 134.449 121.799 136.519 123.41 138.525C110.203 140.253 98.6769 144.561 88.9344 154.07C74.515 168.142 77.0391 192.755 90.9884 207.57C107.991 225.627 135.709 218.855 144.644 216.562C145.243 216.409 145.829 216.208 146.423 216.039C143.495 231.809 143.94 246.132 151.821 259.873C161.843 277.351 186.304 281.062 204.135 271.257C225.87 259.308 226.241 230.778 226.256 221.554C226.259 220.182 226.198 218.812 226.119 217.443C242.011 226.596 257.154 231.718 274.325 227.881C293.981 223.488 304.774 201.224 300.693 181.29Z" fill="#FF84B1"/>
<path d="M180.982 166.785C176.444 173.088 175 183.476 172.884 190.681C167.8 207.994 164.444 224.91 163.538 242.97" stroke="#FFC6DC" stroke-miterlimit="10"/>
<path d="M186.788 170.983C184.544 183.081 183.854 194.335 186.889 206.324" stroke="#FFC6DC" stroke-miterlimit="10"/>
<path d="M191.143 169.508C191.447 179.297 197.578 186.75 201.182 195.465C208.044 212.054 212.458 231.099 209.755 249.081" stroke="#FFC6DC" stroke-miterlimit="10"/>
<path d="M168.075 157.057C153.454 151.668 140.504 148.632 124.673 149.058" stroke="#FFC6DC" stroke-miterlimit="10"/>
<path d="M168.994 162.253C148.135 167.686 128.196 174.564 106.449 175.197" stroke="#FFC6DC" stroke-miterlimit="10"/>
<path d="M172.313 167.104C165.576 177.62 151.978 179.132 142.762 186.249" stroke="#FFC6DC" stroke-miterlimit="10"/>
<path d="M173.713 148.336C154.954 141.956 138.586 123.893 129.324 107.07" stroke="#FFC6DC" stroke-miterlimit="10"/>
<path d="M176.92 146.225C172.936 142.535 170.18 136.09 167.72 131.302C165.475 126.935 163.021 122.815 161.19 118.25C155.856 104.954 146.925 93.7747 141.371 80.5929" stroke="#FFC6DC" stroke-miterlimit="10"/>
<path d="M181.405 139.955C180.072 129.706 177.952 119.509 176.849 109.24" stroke="#FFC6DC" stroke-miterlimit="10"/>
<path d="M200.02 147.465C197.656 122.808 211.699 98.6839 229.032 82.2997" stroke="#FFC6DC" stroke-miterlimit="10"/>
<path d="M207.272 143.797C206.867 136.435 215.471 128.674 220.664 124.611" stroke="#FFC6DC" stroke-miterlimit="10"/>
<path d="M208.994 147.228C219.897 143.101 229.404 136.313 239.733 131.043" stroke="#FFC6DC" stroke-miterlimit="10"/>
<path d="M200.372 163.399C203.731 171.429 209.087 177.453 214.75 184.056C219.927 190.091 225.21 195.686 231.703 200.343C237.999 204.856 245.077 208.106 251.672 212.129" stroke="#FFC6DC" stroke-miterlimit="10"/>
<path d="M206.552 163.736C212.585 168.644 218.747 171.64 225.616 175.114" stroke="#FFC6DC" stroke-miterlimit="10"/>
<path d="M211.792 160.189C229.821 165.059 248.339 159.322 266.225 165.204" stroke="#FFC6DC" stroke-miterlimit="10"/>
<path d="M167.692 151.698C163.756 152.126 161.932 155.921 163.887 159.364C164.5 160.442 165.806 160.996 166.334 162.16C166.956 163.531 166.567 165.046 166.629 166.455C166.935 173.239 171.378 172.227 174.853 176.551C176.212 178.243 177.108 180.22 179.678 180.374C182.046 180.518 183.848 178.51 186.108 177.97C192.196 176.516 200.141 182.486 203.159 174.798C204.179 172.205 204.99 170.599 207.495 169.385C209.579 168.374 212.28 167.924 213.637 165.679C214.772 163.807 214.864 161.08 215.429 158.993C216.139 156.373 216.925 153.651 214.168 152.01C211.539 150.445 209.745 152.321 210.068 147.936C210.283 145.032 211.625 142.587 209.322 140.214C207.021 137.843 204.924 139.06 202.314 139.529C198.202 140.268 197.188 137.767 194.054 135.82C190.658 133.711 187.546 134.995 184.881 137.2C181.749 139.796 180.734 137.028 177.365 136.072C171.051 134.279 167.038 146.287 167.692 151.698Z" fill="#C0368F"/>
<path d="M174.68 142.034C173.581 146.138 169.365 148.572 165.261 147.472C161.16 146.373 158.723 142.157 159.823 138.053C160.923 133.949 165.138 131.515 169.242 132.615C173.343 133.714 175.779 137.933 174.68 142.034Z" fill="#FFCC83"/>
<path d="M189.855 143.049C193.239 143.956 196.717 141.948 197.624 138.564C198.531 135.18 196.523 131.702 193.139 130.795C189.755 129.888 186.277 131.896 185.37 135.28C184.463 138.664 186.471 142.142 189.855 143.049Z" fill="#FFCC83"/>
<path d="M191.903 162.545C190.886 166.343 186.982 168.595 183.187 167.578C179.389 166.56 177.135 162.656 178.152 158.86C179.169 155.062 183.073 152.811 186.871 153.828C190.666 154.845 192.92 158.75 191.903 162.545Z" fill="#FFCC83"/>
<path d="M201.338 182.115C200.408 185.587 196.839 187.648 193.367 186.717C189.893 185.787 187.835 182.218 188.765 178.747C189.696 175.273 193.265 173.214 196.736 174.145C200.208 175.072 202.269 178.642 201.338 182.115Z" fill="#FFCC83"/>
<path d="M218.487 145.569C217.471 149.362 213.573 151.612 209.78 150.596C205.987 149.58 203.737 145.682 204.753 141.889C205.77 138.097 209.667 135.846 213.46 136.863C217.253 137.879 219.503 141.776 218.487 145.569Z" fill="#FFCC83"/>
<path d="M200.253 39.8007C214.196 38.1957 228.111 37.5868 242.149 38.0681C250.32 38.3483 265.071 37.4896 271.865 43.5283C274.307 45.6988 275.056 50.8793 277.062 53.661C281.333 59.5823 287.829 65.4 288.875 72.9815C289.759 79.389 289.195 85.0124 292.76 90.8319C296.767 97.3714 302.587 101.628 308.826 105.742C312.04 107.863 308.278 114.817 307.041 117.293" stroke="#86E5FF" stroke-width="3" stroke-linecap="round"/>
<path d="M261.68 2C268.608 2.81507 276.573 5.67548 282.05 10.0327C284.24 11.7746 285.278 14.0414 286.67 16.3854C289.923 21.861 293.965 26.7826 298.221 31.5057C305.219 39.2725 315.217 46.4474 319.641 56.1814C321.164 59.5308 322.398 62.956 324.051 66.2616" stroke="#86E5FF" stroke-width="3" stroke-linecap="round"/>
<path d="M58.4993 83.272C49.0627 88.5145 41.8464 97.5774 38.8113 107.948C36.9222 114.402 35.0709 122.139 36.6587 128.843C38.627 137.154 45.77 142.911 47.474 151.314C48.8338 158.019 47.0717 164.974 47.369 171.737C47.7584 180.596 51.3753 188.443 53.1966 196.99C54.8449 204.724 54.7192 212.446 54.7192 220.3" stroke="#86E5FF" stroke-width="3" stroke-linecap="round"/>
<path d="M9.35832 117.293C3.80336 124.269 0.615144 130.501 2.58565 139.659C4.9394 150.597 13.6309 158.777 16.2885 169.584C18.1037 176.966 16.7556 185.407 16.971 192.947C17.1634 199.68 18.7381 206.14 19.7536 212.74" stroke="#86E5FF" stroke-width="3" stroke-linecap="round"/>
<path d="M234.274 289.287C262.841 276.302 295.296 266.785 315.756 241.091C327.833 225.924 334.037 204.189 338.227 185.334" stroke="#86E5FF" stroke-width="3" stroke-linecap="round"/>
<path d="M289.085 302.517C296.41 299.217 302.622 295.216 308.93 290.232C318.207 282.904 328.167 276.094 336.861 268.077C345.805 259.828 350.943 249.418 355.237 238.256" stroke="#86E5FF" stroke-width="3" stroke-linecap="round"/>
</svg>
