<svg width="155" height="211" viewBox="0 0 155 211" fill="none" xmlns="http://www.w3.org/2000/svg">
<path d="M2.18604 2.24609C11.7622 5.03913 24.8909 13.4739 27.608 23.8418C30.5346 35.0092 24.4431 46.5146 22.4198 57.3053C20.9957 64.9005 23.4805 68.6832 28.5483 74.3289C32.4894 78.7194 37.4863 82.8385 37.5303 89.2124C37.5625 93.8882 35.1231 98.0723 34.1256 102.539C32.1082 111.574 34.3896 120.26 39.638 127.767C42.8132 132.308 48.2604 136.35 49.5279 142.002C50.7873 147.618 48.2396 153.336 48.6199 158.993C49.6335 174.07 64.5321 179.778 76.2468 185.161C78.3529 186.128 77.6085 190.266 78.1275 192.132C80.1609 199.445 85.3149 203.672 92.5571 205.459C112.204 210.309 133.717 209.788 153.356 205.946" stroke="#86E5FF" stroke-width="3" stroke-linecap="round"/>
</svg>
