<svg width="91" height="403" viewBox="0 0 91 403" fill="none" xmlns="http://www.w3.org/2000/svg">
<path d="M10.3268 401.414C5.14346 386.132 -1.63088 370.561 4.51556 354.709C9.83481 340.991 25.5737 337.946 34.8631 327.59C50.4046 310.265 47.1678 283.831 43.0419 262.913C41.1634 253.389 38.9927 243.638 39.652 233.857C40.1038 227.156 43.2213 226.068 46.4856 221.32C47.7229 219.52 46.9531 216.802 46.4856 214.917C43.7709 203.967 39.0583 193.558 35.2936 182.955C32.5931 175.349 29.1536 166.784 32.7108 158.849C37.303 148.605 47.5974 142.336 55.4177 134.851C70.1169 120.781 64.6726 101.397 64.6726 82.8724C64.6726 54.4359 77.8584 28.0704 88.7785 2.37598" stroke="#86E5FF" stroke-width="3" stroke-linecap="round"/>
</svg>
