<svg width="219" height="222" viewBox="0 0 219 222" fill="none" xmlns="http://www.w3.org/2000/svg">
<path d="M101.327 46.7439C103.782 34.5813 113.548 13.5257 124.553 7.79726C129.483 20.8027 137.272 43.4605 131.262 56.0049C151.256 43.1624 171.932 33.2587 173.988 34.8584C176.435 36.7609 167.868 62.3737 155.552 74.988C165.745 69.1058 185.505 59.5607 197.247 60.3524C197.279 83.7716 172.793 90.1894 161.646 98.8682C176.207 94.835 203.201 90.1568 217.869 93.7709C208.827 132.261 162.042 121.652 145.525 126.94C182.045 127.571 214.332 145.427 209.656 150.366C192.68 168.29 180.455 157.569 160.559 145.029C168.879 153.775 186.104 183.58 180.41 196.979C153.147 191.353 145.849 174.973 131.488 156.586C139.419 168.141 150.827 203.69 133.011 221.162C110.015 208.834 107.207 174.337 107.526 154.227C108.243 174.023 107.831 206.92 80.479 221.041C67.902 200.488 80.9005 171.762 85.7138 154.497C79.3472 170.563 65.7177 198.574 37.2803 199.871C39.0827 175.217 60.1033 158.663 73.1251 147.754C66.0134 155.11 30.8975 172.002 7.61335 168.79C12.0913 155.531 30.9696 144.405 43.1601 137.531C31.5378 144.098 12.3731 139.238 1 138.702C7.73677 128.724 44.6714 115.457 56.3845 112.668C37.5457 118.725 5.32895 106.502 2.35061 92.7835C15.3468 89.025 29.4234 89.0949 42.3823 92.9837C19.1704 77.78 13.0414 52.633 16.9163 51.1846C18.8886 50.4464 52.3815 61.3818 66.4675 73.9215C56.2844 64.5138 33.4916 46.8393 41.714 27.0086C62.8954 30.0381 68.8637 50.6187 73.4628 63.7476C73.0483 47.6474 75.1021 13.5421 86.4124 1C95.2542 12.3382 100.2 32.4064 101.327 46.7439Z" fill="white" stroke="#39092C" stroke-width="1.5" stroke-miterlimit="10" stroke-linecap="round" stroke-linejoin="round"/>
<path d="M150.717 121.379C162.616 117.758 176.644 112.94 179.455 99.6413C168.154 94.8327 154.962 94.1038 143.303 97.9647C154.399 92.7904 161.918 80.749 161.699 68.5097C151.425 68.5772 137.111 78.3924 128.961 84.6472C136.606 70.829 138.999 46.83 129.918 48.2574C120.822 49.6849 114.295 69.0941 111.323 77.8079C113.403 66.6351 110.546 45.7658 101.976 38.2979C92.7245 45.4095 90.3027 63.2912 88.9265 74.8808C82.9116 65.5127 69.2262 51.7714 58.3235 49.5172C50.0591 63.4099 62.3614 78.8023 68.4601 91.4305C56.3348 90.7855 37.1514 96.1903 29.4692 105.596C37.8035 114.887 53.3332 113.678 62.7642 112.596C51.256 119.044 35.0044 138.101 43.164 137.526C55.1146 136.685 68.2412 135.537 76.3169 125.981C76.3309 129.25 58.4143 142.852 64.1963 168.648C79.237 163.509 91.6254 151.153 96.802 136.127C92.4544 146.258 94.5246 161.297 101.171 170.097C106.536 163.476 112.048 156.567 114.104 148.301C114.467 159.513 123.349 169.873 134.375 171.946C140.431 161.749 138.373 149.232 134.275 138.059C144.155 147.863 155.495 152.536 169.071 152.348C168.41 140.49 161.005 127.301 150.717 121.379Z" fill="#D3D8F7" stroke="#39092C" stroke-width="1.5" stroke-miterlimit="10" stroke-linecap="round" stroke-linejoin="round"/>
<path d="M103.879 150.962C102.149 146.792 102.675 132.228 97.0049 130.961C92.995 130.067 89.495 137.051 87.4295 139.494C84.1135 143.42 80.574 147.066 76.5408 150.266C76.0681 150.641 75.5441 151.027 74.941 151.032C73.5275 151.044 73.0082 149.155 73.127 147.746C73.9257 138.329 82.9259 131.623 85.5317 122.539C85.7925 121.633 85.888 120.45 85.0869 119.949C84.5839 119.635 83.9319 119.749 83.3567 119.891C75.5232 121.838 68.514 127.268 60.4429 127.266C58.6824 127.266 56.419 126.427 56.5424 124.672C56.6076 123.738 57.3737 123.025 58.0863 122.418C60.9435 119.975 63.7985 117.534 66.6557 115.092C67.6873 114.209 68.7887 113.203 68.9634 111.857C69.3313 109.04 65.7359 107.593 62.9322 107.13C57.1758 106.182 51.4171 105.235 45.6606 104.287C48.5039 101.027 53.0587 99.8181 57.3784 99.5806C61.698 99.3454 66.0479 99.9066 70.3443 99.4129C71.653 99.2616 73.134 98.8843 73.7231 97.7037C74.4217 96.3018 73.4647 94.6834 72.6194 93.3654C68.9098 87.5717 66.7628 80.7861 66.4671 73.9142C66.4228 72.8687 66.4578 71.716 67.154 70.9359C68.3812 69.5643 70.668 70.2815 72.1536 71.3644C79.6658 76.8344 81.1469 88.261 89.013 93.2071C87.8184 82.9657 89.3157 72.424 93.314 62.9208C94.136 60.967 95.9384 58.6895 97.8805 59.5395C98.6815 59.8888 99.1729 60.6946 99.5664 61.4747C104.014 70.2769 102.484 81.6454 108.569 89.4067C113.399 81.1936 118.228 72.9805 123.058 64.765C123.449 64.099 123.994 63.3469 124.765 63.3818C125.815 63.4307 126.162 64.8139 126.136 65.8641C125.908 75.3766 119.97 84.0112 119.521 93.5168C119.497 94.0058 119.507 94.5484 119.837 94.9093C120.461 95.594 121.588 95.0979 122.331 94.5483C129.904 88.9573 135.898 80.4251 145.068 78.3014C145.823 78.1268 146.659 78.0104 147.334 78.3853C148.906 79.2585 148.242 81.6617 147.252 83.1637C142.353 90.6037 134.289 95.9712 131.11 104.294C130.596 105.642 130.337 107.433 131.492 108.301C132.323 108.925 133.485 108.739 134.498 108.504C143.51 106.399 152.715 102.638 161.711 104.813C162.815 105.081 164.098 105.67 164.189 106.804C164.254 107.635 163.616 108.348 162.959 108.867C159.827 111.347 155.633 111.85 151.751 112.803C146.498 114.093 141.487 116.363 137.053 119.465C136.282 120.005 135.444 120.741 135.523 121.677C135.602 122.616 136.55 123.2 137.388 123.628C143.974 127.005 150.717 130.598 155.384 136.343C157.182 138.555 158.372 142.358 155.931 143.836C153.877 145.08 151.381 143.324 149.525 141.799C142.982 136.427 134.992 132.836 126.632 131.509C128.931 139.282 135.986 146.261 134.114 154.145C133.805 155.449 132.773 156.944 131.485 156.574C130.959 156.423 130.575 155.987 130.221 155.571C124.101 148.317 118.871 140.313 114.682 131.797C113.862 138.199 112.458 144.523 110.492 150.669C109.994 152.227 109.151 154.036 107.526 154.215C105.784 154.413 104.552 152.583 103.879 150.962Z" fill="#B0C2F7"/>
<path d="M74.8541 123.144C71.9782 122.7 69.8428 120.122 69.3701 117.323C68.1033 109.839 75.392 107.221 75.2546 102.245C75.1847 99.688 69.908 92.8674 82.2429 87.4812C90.619 83.8229 95.9586 90.9439 98.1522 91.7682C104.225 94.0549 110.799 86.0095 116.688 85.5135C127.363 84.617 123.206 97.378 127.97 99.7974C130.364 101.013 133.226 99.3317 135.902 99.5762C139.174 99.8766 141.642 103.623 140.627 106.748C140.037 108.56 138.496 110.234 138.927 112.088C139.39 114.084 141.903 114.997 142.571 116.932C144.564 122.686 133.736 122.606 131.859 126.889C130.765 129.387 132.33 132.296 131.859 134.983C131.34 137.934 127.996 140.046 125.109 139.245C122.032 138.39 119.552 134.855 116.479 135.724C113.312 136.618 112.879 141.422 109.87 142.754C103.969 145.367 100.283 133.295 94.3844 135.272C91.9719 136.08 88.0528 143.087 83.1301 137.526C78.0024 131.746 84.3386 124.609 74.8541 123.144Z" fill="#F55F06" stroke="#39092C" stroke-width="1.5" stroke-miterlimit="10" stroke-linecap="round" stroke-linejoin="round"/>
<path d="M114.77 126.952C80.9958 138.42 65.862 95.7781 103.612 99.136C131.234 101.593 128.898 122.155 114.77 126.952Z" fill="#F58F05" stroke="#39092C" stroke-width="1.5" stroke-miterlimit="10" stroke-linecap="round" stroke-linejoin="round"/>
<path d="M96.1598 106.278C96.2809 104.343 92.8299 103.572 90.7248 107.416C89.2205 110.162 95.9363 109.873 96.1598 106.278Z" fill="#F52F06"/>
<path d="M109.378 106.504C108.332 103.132 100.415 104.147 104.227 107.1C106.854 109.137 109.879 108.113 109.378 106.504Z" fill="#F52F06"/>
<path d="M106.775 110.982C104.153 105.079 95.9232 109.859 103.282 113.369C105.275 114.314 107.518 112.649 106.775 110.982Z" fill="#F52F06"/>
<path d="M91.5243 112.171C87.2932 109.945 88.6787 117.434 92.4744 117.027C94.6144 116.796 94.7891 113.897 91.5243 112.171Z" fill="#F52F06"/>
<path d="M104.381 120.995C102.973 119.656 97.3769 118.88 96.5665 120.552C95.5839 122.578 99.2584 124.094 100.728 124.22C103.185 124.427 106.028 122.56 104.381 120.995Z" fill="#F52F06"/>
<path d="M114.758 117.257C115.221 114.94 109.157 113.664 108.251 116.389C107.099 119.861 114.038 120.848 114.758 117.257Z" fill="#F52F06"/>
<path d="M112.23 107.694C110.335 108.625 111.573 111.953 114.396 111.902C120.667 111.787 117.532 105.088 112.23 107.694Z" fill="#F52F06"/>
</svg>
