<svg width="66" height="42" viewBox="0 0 66 42" fill="none" xmlns="http://www.w3.org/2000/svg">
<path d="M21.8509 2.44359C19.3612 4.42772 17.2424 6.91695 15.0701 9.22926C11.577 12.9473 7.57347 16.5143 4.63055 20.6989C4.07412 21.4901 0.0530397 26.291 2.64114 26.5491C7.09437 26.9932 12.6335 24.3584 16.807 23.1017C17.4609 22.9048 25.1911 20.6345 25.0766 21.0509C23.6386 26.2789 17.2495 29.2903 15.4492 34.3198C15.1976 35.0225 16.5747 34.9622 16.8725 34.9102C20.1777 34.3328 23.0789 33.0465 26.5354 33.2011C31.7328 33.4335 27.8882 36.3136 27.2477 39.2807C27.0405 40.2403 28.083 40.2516 28.7043 40.0639C35.5038 38.0086 41.9418 34.5682 48.6957 32.287C53.0241 30.825 57.848 29.9474 61.894 27.7604C62.6892 27.3306 63.3981 26.9585 63.852 26.1724" stroke="white" stroke-width="3" stroke-linecap="round"/>
</svg>
