<svg width="54" height="59" viewBox="0 0 54 59" fill="none" xmlns="http://www.w3.org/2000/svg">
<path d="M2.04977 18.8301C3.86507 18.4671 5.67894 16.8798 7.11202 15.8538C12.1495 12.2474 16.8855 8.22733 22.0444 4.78808C23.996 3.48701 26.0988 2.122 28.4167 1.57011C28.8845 1.45875 25.9906 5.73742 25.8856 5.88194C22.0314 11.1856 18.1064 16.3285 16.8804 22.9257C16.5393 24.7609 20.4688 22.8352 21.1413 22.6586C25.7 21.4614 31.0806 19.4832 35.8575 20.3564C37.0106 20.5672 38.1101 20.7937 37.0277 21.8573C34.3277 24.5103 31.1011 26.5385 28.2132 28.9673C26.7568 30.1923 23.8612 32.4469 24.2321 34.7546C24.642 37.3048 29.6785 37.1986 31.2786 37.3493C37.3814 37.9242 43.3776 38.2278 49.2636 40.0967C50.4294 40.4668 53.8212 40.92 51.4131 42.1445C39.4476 48.2287 26.1354 51.5754 13.726 56.6062" stroke="white" stroke-width="3" stroke-linecap="round"/>
</svg>
