<svg width="49" height="41" viewBox="0 0 49 41" fill="none" xmlns="http://www.w3.org/2000/svg">
<path d="M48.9869 3.51013C48.3086 10.7127 45.3691 28.2177 43.8767 36.2865C43.2436 39.7054 41.9774 40.8451 40.8016 40.9818C38.1786 41.2098 36.1888 39.2496 33.6563 37.5629C29.6767 34.9189 27.4155 33.2778 23.5716 30.725C19.0945 27.7619 21.9888 26.1208 24.5665 23.4768C25.2448 22.793 36.8219 12.1715 37.048 11.2142C37.0795 11.0692 37.0753 10.9186 37.0359 10.7756C36.9965 10.6326 36.923 10.5015 36.8219 10.3936C36.5506 10.1657 36.1888 10.2569 35.8722 10.3024C35.4652 10.3936 29.134 14.6331 16.7881 23.0209C14.9792 24.2518 13.3511 24.89 11.904 24.8444C10.276 24.7988 7.20081 23.9327 4.89443 23.1577C2.04538 22.246 -0.170556 21.7445 0.010336 20.149C0.100782 19.3285 1.23136 18.5079 3.35685 17.6418C16.562 11.8524 25.3353 8.02314 29.7219 6.1997C42.2939 0.911723 44.8716 0 46.5901 0C46.9519 0 47.8111 0.0911715 48.3538 0.547032C48.8061 0.91172 48.9417 1.41317 48.9869 1.77786C48.9417 2.05137 49.0322 2.87192 48.9869 3.51013Z" fill="white"/>
</svg>
