<svg width="1025" height="238" viewBox="0 0 1025 238" fill="none" xmlns="http://www.w3.org/2000/svg">
<path d="M671.517 93.9167C677.046 107.739 695.811 109.498 708.695 109.901C713.926 110.065 718.649 112.645 723.851 113.512C729.226 114.408 733.804 114.452 738.888 115.821C750.136 118.849 764.179 115.229 776.067 115.229C788.872 115.229 803.74 110.503 814.903 104.336C824.093 99.2589 829.838 91.3291 837.754 85.3917M483.967 102.442C484.839 112.041 495.564 109.808 502.201 109.901C507.223 109.972 510.621 113.459 514.929 115.703C525.507 121.212 535.248 118.279 546.306 115.94C550.81 114.987 551.157 115.081 554.298 117.953C557.439 120.825 564.283 119.64 568.033 119.314C581.471 118.146 594.951 116.088 608.408 114.756C618.25 113.781 627.571 111.882 633.154 103.507M20.4194 2.27295C19.9595 12.3898 15.872 26.7266 24.0307 34.7153C29.9858 40.5464 37.7112 43.8454 43.2119 50.2853C48.0579 55.9587 52.0083 62.4291 56.6507 68.2826C66.56 80.777 80.1646 84.6033 92.3491 93.976C95.8875 96.6978 96.7238 99.8396 101.525 101.317C111.904 104.51 123.228 105.441 133.968 106.704C144.416 107.934 152.759 118.993 162.148 123.754C179.515 132.562 196.366 134.238 215.192 128.846C222.555 126.737 229.803 124.395 237.333 122.925C240.505 122.307 245.158 123.786 248.345 123.991C285.155 126.357 322.416 125.413 359.288 125.886M2.30371 83.2605C14.1223 100.885 19.763 117.38 42.7975 123.044C50.5896 124.96 49.6646 128.362 52.8617 135.239C57.3686 144.933 63.6724 151.852 73.5823 156.078C78.3854 158.127 83.6901 159.421 88.1458 162.235C99.9479 169.689 109.625 177.076 123.311 181.653C138.616 186.772 154.616 189.402 170.14 193.73C193.557 200.26 216.927 203.816 241.004 206.873M518.067 150.395C529.302 153.605 541.743 156.789 553.469 156.789C574.616 156.789 593.17 147.514 613.973 145.067M667.254 145.067C684.86 149.396 701.495 154.995 719.766 156.137C742.848 157.58 764.169 154.168 786.604 149.329M899.561 65.1448C913.988 65.9935 946.991 73.3932 948.52 49.6933C949.01 42.1086 948.732 41.6926 956.039 38.445C965.156 34.393 970.572 28.3872 976.286 20.3885M927.267 138.673C937.262 137.274 946.762 132.752 956.157 129.26C966.064 125.578 975.844 122.187 984.929 116.709C992.065 112.407 999.759 108.214 1006.12 102.797C1015.01 95.2368 1018.9 85.2161 1023.17 74.7355M344.37 211.136C358.478 211.136 372.478 212.933 386.166 216.523C401.019 220.419 409.893 235.415 426.423 235.645C436.226 235.781 445.677 233.377 455.195 231.383C468.901 228.51 482.934 228.34 496.636 225.462C514.156 221.783 530.082 217.336 547.904 221.792" stroke="#86E5FF" stroke-width="3" stroke-linecap="round"/>
</svg>
